<svg width="138" height="32" viewBox="0 0 138 32" fill="none" xmlns="http://www.w3.org/2000/svg">
<g clip-path="url(#clip0_1566_14138)">
<path d="M1.4071 20.8288C1.4071 20.4336 1.09254 20.1094 0.703054 20.1094C0.313571 20.1094 0 20.4341 0 20.8288C0 21.2236 0.314563 21.5468 0.703054 21.5468C1.09155 21.5468 1.4071 21.2241 1.4071 20.8288Z" fill="#D9117C"/>
<path d="M13.2742 3.96484V21.8899C13.2742 24.7423 12.5947 29.5452 8.02889 29.672C6.22508 29.7166 4.49715 29.0497 3.27609 27.8259C2.00346 26.5493 1.3354 24.7636 1.35325 22.6649C1.35722 22.3621 1.11767 22.1146 0.821579 22.1146H0.820587C0.528466 22.1146 0.289412 22.3555 0.288421 22.6542C0.269574 25.0577 1.04724 27.1138 2.52967 28.6044C3.90596 29.9839 5.64183 30.6285 7.64651 30.7974C8.06014 30.8344 8.60223 30.8314 8.67067 30.8284C9.42255 30.8066 11.0939 30.73 11.7164 30.4962C12.3487 30.2593 11.3146 29.7963 11.8096 29.355C13.4502 27.8933 14.344 25.3392 14.344 21.8894V5.05324H16.4548V3.96484H13.2737H13.2742Z" fill="#D9117C"/>
<path d="M2.79338 19.346C3.18435 19.346 3.49743 19.0238 3.49743 18.6266C3.49743 18.2293 3.18385 17.9102 2.79338 17.9102C2.4029 17.9102 2.09082 18.2349 2.09082 18.6266C2.09082 19.0183 2.40638 19.346 2.79338 19.346Z" fill="#FDB913"/>
<path d="M15.3392 6.54883V21.3527C15.3392 22.6684 15.1978 24.5769 14.5228 26.2257C13.6688 28.3157 12.1799 29.4041 10.0929 29.4589C8.70567 29.4975 6.74811 29.2322 5.30337 27.7431C3.85467 26.251 3.1757 23.8247 3.28382 20.5357C3.29274 20.237 3.0641 19.9844 2.77 19.9742C2.47391 19.9636 2.2289 20.1994 2.21998 20.5012C2.09995 24.1011 2.88308 26.7952 4.54554 28.5115C5.84694 29.852 7.67159 30.5559 9.83943 30.5559C9.93268 30.5559 10.9767 30.6721 12.4606 30.4357C12.9357 30.3602 13.6797 30.2537 14.2436 29.9499C14.5967 29.7597 14.0536 29.2226 14.3839 28.7509C14.7668 28.2087 15.1517 27.5154 15.5048 26.6461C16.2487 24.8299 16.4065 22.7657 16.4065 21.3538V6.54883H15.3396H15.3392Z" fill="#FDB913"/>
<path d="M5.08075 21.5333C5.45783 21.5333 5.76793 21.2193 5.76793 20.8301C5.76793 20.4409 5.45733 20.1289 5.08075 20.1289C4.70416 20.1289 4.39258 20.4475 4.39258 20.8301C4.39258 21.2127 4.70069 21.5333 5.08075 21.5333Z" fill="#D9117C"/>
<path d="M17.3903 1.83398V21.1964C17.3903 23.2951 17.3903 28.2086 12.4873 29.1945C11.2642 29.4435 9.26451 29.2534 7.66504 27.9048C6.25601 26.7165 5.51306 24.8775 5.51802 22.5855C5.51802 22.2822 5.27946 22.0388 4.98734 22.0383H4.98536C4.69125 22.0383 4.45121 22.2792 4.45121 22.5805C4.44327 25.9035 5.82651 27.7673 6.98656 28.7462C8.42634 29.9573 10.1443 30.3762 11.5236 30.3762C11.9521 30.3762 13.3969 30.2205 13.744 30.1526C15.4601 29.8057 15.6153 29.1661 16.4634 28.2228C18.4562 25.9978 18.4562 22.7154 18.4562 21.1964V2.9234H20.4147V1.83398H17.3899H17.3903Z" fill="#D9117C"/>
<path d="M7.2819 22.668C7.66295 22.668 7.97007 22.3529 7.97007 21.9653C7.97007 21.5777 7.66295 21.2656 7.2819 21.2656C6.90085 21.2656 6.59473 21.5802 6.59473 21.9653C6.59473 22.3504 6.90284 22.668 7.2819 22.668Z" fill="#FDB913"/>
<path d="M20.5034 4.24023L19.4396 4.24328L19.4495 12.3053V20.7376C19.4495 25.2966 17.788 27.9791 14.3664 28.9422C13.1642 29.2815 11.1575 29.002 9.64631 27.8132C8.78334 27.1371 7.76017 25.891 7.78001 23.8273C7.781 23.5266 7.54443 23.277 7.25231 23.275H7.24636C6.95622 23.275 6.71717 23.5159 6.7132 23.8151C6.69038 26.3287 7.9412 27.8452 8.99512 28.6764C10.2063 29.6284 11.8231 30.17 13.2877 30.17C13.7638 30.17 14.2255 30.1137 14.6481 29.9915C18.5419 28.896 20.5148 25.7835 20.5148 20.7371V12.3058L20.5039 4.24074L20.5034 4.24023Z" fill="#FDB913"/>
<path d="M26.3296 11.8921L28.0754 10.5729C28.5689 11.4965 29.2339 11.9048 29.9437 11.9048C31.0472 11.9048 31.6294 11.3089 31.6294 9.5236V0.986328H34.1817V9.74422C34.1817 12.1726 32.9814 14.1648 30.2636 14.1648C28.4102 14.1648 27.1703 13.406 26.3291 11.8921H26.3296Z" fill="#D9117C"/>
<path d="M36.5303 11.2533C36.5303 9.17493 38.1813 8.07081 42.0364 7.65189C41.9923 6.6984 41.5772 5.98176 40.4117 5.98176C39.5353 5.98176 38.6872 6.3733 37.8019 6.90532L36.8849 5.18752C38.0187 4.46937 39.3806 3.90234 40.8923 3.90234C43.3116 3.90234 44.5777 5.3696 44.5777 8.23209V13.9251H42.5007L42.3127 12.8824H42.2462C41.4155 13.6188 40.4732 14.163 39.3706 14.163C37.6601 14.163 36.5303 12.9301 36.5303 11.2533ZM42.0364 11.1925V9.23934C39.7327 9.54568 38.9719 10.1867 38.9719 11.05C38.9719 11.797 39.4718 12.1404 40.2098 12.1404C40.9478 12.1404 41.4309 11.7828 42.0369 11.1925H42.0364Z" fill="#D9117C"/>
<path d="M47.1133 4.14021H49.1904L49.3783 5.42082H49.4448C50.276 4.5992 51.2451 3.90234 52.552 3.90234C54.6172 3.90234 55.5089 5.3625 55.5089 7.82027V13.9251H52.9676V8.15399C52.9676 6.64565 52.557 6.12275 51.63 6.12275C50.8538 6.12275 50.3593 6.50313 49.6546 7.20709V13.9251H47.1133V4.14021V4.14021Z" fill="#D9117C"/>
<path d="M57.6074 11.2533C57.6074 9.17493 59.2585 8.07081 63.1136 7.65189C63.0694 6.6984 62.6543 5.98176 61.4888 5.98176C60.6125 5.98176 59.7644 6.3733 58.8791 6.90532L57.962 5.18752C59.0958 4.46937 60.4577 3.90234 61.9694 3.90234C64.3887 3.90234 65.6549 5.3696 65.6549 8.23209V13.9251H63.5778L63.3898 12.8824H63.3234C62.4926 13.6188 61.5503 14.163 60.4478 14.163C58.7372 14.163 57.6074 12.9301 57.6074 11.2533ZM63.1136 11.1925V9.23934C60.8098 9.54568 60.049 10.1867 60.049 11.05C60.049 11.797 60.549 12.1404 61.287 12.1404C62.0249 12.1404 62.508 11.7828 63.1141 11.1925H63.1136Z" fill="#D9117C"/>
<path d="M71.7607 12.2826L73.2357 10.4918C74.1384 11.3337 75.3297 11.9063 76.4387 11.9063C77.748 11.9063 78.4309 11.3352 78.4309 10.4467C78.4309 9.50688 77.6627 9.20612 76.5354 8.72431L74.8486 7.9818C73.57 7.4442 72.2924 6.38877 72.2924 4.50259C72.2924 2.39933 74.119 0.75 76.6708 0.75C78.1383 0.75 79.6163 1.35658 80.6563 2.42317L79.3579 4.07301C78.5386 3.39593 77.7128 3.00997 76.6708 3.00997C75.5777 3.00997 74.8729 3.507 74.8729 4.35043C74.8729 5.25574 75.7686 5.58845 76.8453 6.03273L78.5048 6.73314C80.0304 7.37319 81.0387 8.38602 81.0387 10.2382C81.0387 12.3613 79.3113 14.1668 76.3836 14.1668C74.7048 14.1668 73.0061 13.5034 71.7607 12.2837V12.2826Z" fill="#D9117C"/>
<path d="M83.0557 4.14021H85.1328L85.3207 5.43503H85.3872C86.1847 4.5992 87.0769 3.90234 88.3059 3.90234C89.6797 3.90234 90.4852 4.52617 90.9474 5.60239C91.8258 4.6555 92.7483 3.90234 93.9882 3.90234C96.031 3.90234 96.9615 5.3625 96.9615 7.82027V13.9251H94.4201V8.15399C94.4201 6.64565 93.9986 6.12275 93.0934 6.12275C92.5494 6.12275 91.9503 6.47473 91.2787 7.20709V13.9251H88.7374V8.15399C88.7374 6.64565 88.3158 6.12275 87.4107 6.12275C86.8781 6.12275 86.2675 6.47473 85.596 7.20709V13.9251H83.0547V4.14021H83.0557Z" fill="#D9117C"/>
<path d="M99.0576 11.2553C99.0576 9.17688 100.709 8.07277 104.564 7.65384C104.52 6.70035 104.105 5.98371 102.939 5.98371C102.063 5.98371 101.215 6.37525 100.329 6.90728L99.4122 5.18948C100.546 4.47132 101.908 3.9043 103.42 3.9043C105.839 3.9043 107.105 5.37155 107.105 8.23405V13.9271H105.028L104.84 12.8843H104.774C103.943 13.6207 103.001 14.1649 101.898 14.1649C100.187 14.1649 99.0576 12.932 99.0576 11.2553V11.2553ZM104.564 11.1944V9.24129C102.26 9.54763 101.499 10.1887 101.499 11.0519C101.499 11.799 101.999 12.1423 102.737 12.1423C103.475 12.1423 103.958 11.7848 104.564 11.1944H104.564Z" fill="#D9117C"/>
<path d="M109.641 11.1473V-0.015625H112.182V11.2665C112.182 11.8604 112.447 12.0587 112.68 12.0587C112.785 12.0587 112.862 12.0587 113.029 12.0191L113.338 13.9459C113.045 14.0701 112.625 14.166 112.034 14.166C110.266 14.166 109.641 12.9909 109.641 11.1478V11.1473Z" fill="#D9117C"/>
<path d="M115.038 11.1473V-0.015625H117.579V11.2665C117.579 11.8604 117.845 12.0587 118.077 12.0587C118.182 12.0587 118.26 12.0587 118.426 12.0191L118.735 13.9459C118.443 14.0701 118.023 14.166 117.431 14.166C115.663 14.166 115.038 12.9909 115.038 11.1478V11.1473Z" fill="#D9117C"/>
<path d="M26.3281 18.5645H34.1445V20.7565H28.8803V24.0937H33.3683V26.2857H28.8803V31.5055H26.3281V18.565V18.5645Z" fill="#D9117C"/>
<path d="M35.6543 18.7399C35.6543 17.9087 36.2956 17.332 37.1685 17.332C38.0414 17.332 38.6831 17.9087 38.6831 18.7399C38.6831 19.5712 38.0419 20.1474 37.1685 20.1474C36.2951 20.1474 35.6543 19.5595 35.6543 18.7399ZM35.8924 21.7191H38.4337V31.504H35.8924V21.7191V21.7191Z" fill="#D9117C"/>
<path d="M40.8701 21.7203H42.9472L43.1352 23.0009H43.2016C44.0329 22.1793 45.002 21.4824 46.3088 21.4824C48.374 21.4824 49.2658 22.9426 49.2658 25.4003V31.5052H46.7244V25.7341C46.7244 24.2257 46.3138 23.7028 45.3868 23.7028C44.6107 23.7028 44.1162 24.0832 43.4114 24.7872V31.5052H40.8701V21.7203V21.7203Z" fill="#D9117C"/>
<path d="M51.3594 28.8339C51.3594 26.7555 53.0104 25.6514 56.8655 25.232C56.8214 24.2785 56.4063 23.5618 55.2408 23.5618C54.3644 23.5618 53.5163 23.9534 52.631 24.4854L51.714 22.7676C52.8478 22.0494 54.2097 21.4824 55.7214 21.4824C58.1407 21.4824 59.4068 22.9497 59.4068 25.8122V31.5052H57.3298L57.1418 30.4625H57.0753C56.2446 31.1989 55.3023 31.7431 54.1997 31.7431C52.4892 31.7431 51.3594 30.5096 51.3594 28.8334V28.8339ZM56.8655 28.7731V26.8199C54.5618 27.1263 53.801 27.7673 53.801 28.6305C53.801 29.3776 54.3009 29.721 55.0389 29.721C55.7769 29.721 56.26 29.3634 56.866 28.7731H56.8655Z" fill="#D9117C"/>
<path d="M61.9473 21.7203H64.0244L64.2123 23.0009H64.2788C65.11 22.1793 66.0791 21.4824 67.386 21.4824C69.4512 21.4824 70.3429 22.9426 70.3429 25.4003V31.5052H67.8016V25.7341C67.8016 24.2257 67.3909 23.7028 66.464 23.7028C65.6878 23.7028 65.1933 24.0832 64.4886 24.7872V31.5052H61.9473V21.7203V21.7203Z" fill="#D9117C"/>
<path d="M72.3189 26.6186C72.3189 23.3625 74.6162 21.4824 77.212 21.4824C78.4083 21.4824 79.305 21.9358 80.0082 22.5586L78.7926 24.2364C78.3106 23.8109 77.8771 23.5892 77.3499 23.5892C75.8972 23.5892 74.9261 24.7917 74.9261 26.6181C74.9261 28.4444 75.9076 29.6353 77.2671 29.6353C77.955 29.6353 78.5982 29.2894 79.119 28.8527L80.1302 30.5588C79.2167 31.385 78.0547 31.7426 76.9908 31.7426C74.3503 31.7426 72.3184 29.8625 72.3184 26.6181L72.3189 26.6186Z" fill="#D9117C"/>
<path d="M80.876 26.6186C80.876 23.4416 83.0627 21.4824 85.3376 21.4824C87.994 21.4824 89.351 23.4518 89.351 26.1535C89.351 26.6338 89.2954 27.1146 89.2428 27.3525H83.3449C83.5656 28.9298 84.5858 29.7489 85.9953 29.7489C86.766 29.7489 87.442 29.5049 88.1398 29.0743L88.9909 30.6623C88.0446 31.3241 86.828 31.7436 85.6531 31.7436C82.9684 31.7436 80.876 29.8523 80.876 26.6191V26.6186ZM87.1692 25.6118C87.1692 24.3221 86.6133 23.4771 85.3932 23.4771C84.3884 23.4771 83.5115 24.21 83.3181 25.6118H87.1692V25.6118Z" fill="#D9117C"/>
<path d="M96.0801 18.8013H100.269C102.883 18.8013 104.859 19.5778 104.859 22.0005C104.859 23.1904 104.217 24.402 103.147 24.7981V24.8777C104.494 25.2115 105.508 26.1974 105.508 27.936C105.508 30.5464 103.382 31.7413 100.613 31.7413H96.0806V18.8008L96.0801 18.8013ZM100.103 24.0642C101.679 24.0642 102.362 23.412 102.362 22.3794C102.362 21.2555 101.623 20.8244 100.136 20.8244H98.6323V24.0647H100.103V24.0642ZM100.38 29.7192C102.089 29.7192 103.011 29.0954 103.011 27.7783C103.011 26.5301 102.111 26.0022 100.38 26.0022H98.6323V29.7192H100.38V29.7192Z" fill="#D9117C"/>
<path d="M107.039 28.8354C107.039 26.7565 108.69 25.6528 112.545 25.2334C112.501 24.2799 112.086 23.5633 110.92 23.5633C110.044 23.5633 109.196 23.9548 108.311 24.4868L107.394 22.7696C108.527 22.0514 109.889 21.4844 111.401 21.4844C113.82 21.4844 115.087 22.9516 115.087 25.8141V31.5067H113.009L112.821 30.4639H112.755C111.924 31.2003 110.982 31.7445 109.879 31.7445C108.169 31.7445 107.039 30.5111 107.039 28.8349V28.8354ZM112.545 28.7745V26.8219C110.241 27.1282 109.481 27.7688 109.481 28.6325C109.481 29.3796 109.981 29.7229 110.719 29.7229C111.457 29.7229 111.94 29.3654 112.546 28.775L112.545 28.7745Z" fill="#D9117C"/>
<path d="M117.628 21.9566H119.705L119.893 23.2372H119.959C120.791 22.4156 121.76 21.7188 123.067 21.7188C125.132 21.7188 126.024 23.1789 126.024 25.6367V31.741H123.482V25.9694C123.482 24.461 123.072 23.9387 122.145 23.9387C121.368 23.9387 120.874 24.319 120.169 25.023V31.741H117.628V21.9566V21.9566Z" fill="#D9117C"/>
<path d="M128.599 17.7988H131.084V26.1484H131.151L134.44 21.9577H137.208L133.892 25.9664L137.502 31.7426H134.745L132.438 27.7121L131.084 29.2955V31.7426H128.599V17.7988V17.7988Z" fill="#D9117C"/>
</g>
<defs>
<clipPath id="clip0_1566_14138">
<rect width="137.5" height="31.76" fill="white"/>
</clipPath>
</defs>
</svg>
