<svg width="86" height="42" viewBox="0 0 86 42" fill="none" xmlns="http://www.w3.org/2000/svg">
<g clip-path="url(#clip0_1086_7731)">
<path d="M46.2371 28.4465H36.2428L25.6094 2.11475H35.6037L46.2371 28.4465Z" fill="#E50695"/>
<path d="M38.6162 28.4465H48.6105L59.2464 2.11475H49.2497L38.6162 28.4465Z" fill="#E50695"/>
<path d="M48.5691 30.3325H36.2842V42.2362H48.5691V30.3325Z" fill="#E50695"/>
<path d="M0 1.57079H8.28672V4.23941L8.58189 4.38848C10.209 2.46033 12.9704 1.07715 16.5222 1.07715C21.4059 1.07715 25.4505 4.58643 25.4505 11.4535V26.275H17.1638V11.996C17.1638 9.03167 15.1903 7.79756 12.824 7.79756C11.0481 7.79756 9.42105 8.24233 8.28672 9.18074V26.275H0V1.57079Z" fill="#60269E"/>
<path d="M84.9236 13.626V16.5903H67.9575C68.5014 19.061 70.3749 19.9994 74.4195 20.0483C77.0346 20.0483 79.5496 19.5546 81.6695 18.5673L83.0502 24.496C80.3863 26.0282 77.3785 26.7687 74.4195 26.7687C65.0985 26.7687 59.4756 21.9275 59.4756 13.973C59.4756 7.20372 64.0617 1.17734 72.3972 1.07715C79.7447 1.07715 85.0237 5.37577 84.9236 13.626V13.626ZM68.0062 11.5023H76.5881C76.293 8.63578 74.7634 7.79756 72.7412 7.79756C69.9797 7.79756 68.5478 8.9828 68.0062 11.5023Z" fill="#60269E"/>
</g>
<defs>
<clipPath id="clip0_1086_7731">
<rect width="86" height="42" fill="white"/>
</clipPath>
</defs>
</svg>
