<svg width="76" height="20" viewBox="0 0 76 20" fill="none" xmlns="http://www.w3.org/2000/svg">
<g clip-path="url(#clip0_808_15729)">
<path d="M71.6043 1.45206L75.8844 9.77383L66.8867 18.0996L71.6043 1.45206Z" fill="#008C44"/>
<path d="M68.6398 1.45206L72.9136 9.77383L63.9219 18.0996L68.6398 1.45206Z" fill="#F47920"/>
<path d="M0.0175781 15.0723L4.28505 0.0178604H11.1076C13.2399 0.0178604 14.6642 0.348382 15.3889 1.02949C16.1083 1.70512 16.2469 2.80796 15.8133 4.35805C15.551 5.27118 15.1523 6.03765 14.6046 6.64324C14.0614 7.24993 13.345 7.72966 12.4627 8.08243C13.2112 8.25864 13.6873 8.60849 13.9008 9.1331C14.1132 9.6577 14.0886 10.4227 13.8308 11.4256L13.3118 13.5284L13.3103 13.5853C13.1605 14.1741 13.2049 14.4893 13.4489 14.5148L13.2917 15.0723H8.67622C8.69186 14.718 8.72055 14.4014 8.75111 14.1354C8.78464 13.8633 8.82599 13.6524 8.86698 13.5076L9.2973 12.0042C9.51414 11.2224 9.52755 10.677 9.32636 10.3629C9.12331 10.0404 8.66877 9.8817 7.95119 9.8817H6.01156L4.53244 15.0723H0.0175781ZM6.97131 6.48929H9.04879C9.7768 6.48929 10.3141 6.38751 10.6453 6.17701C10.978 5.96469 11.225 5.60608 11.3699 5.08731C11.5201 4.55979 11.4832 4.19206 11.2678 3.98302C11.0529 3.7707 10.5383 3.66746 9.72949 3.66746H7.77123L6.97131 6.48929Z" fill="#1B3281"/>
<path d="M28.4808 3.96204L25.3348 15.071H21.5118L21.9816 13.4435C21.3087 14.0907 20.6202 14.5821 19.9261 14.8962C19.2376 15.2158 18.5111 15.373 17.7462 15.373C17.1139 15.373 16.5711 15.2607 16.134 15.0378C15.6918 14.8156 15.3624 14.4778 15.1407 14.0324C14.944 13.6424 14.8583 13.1608 14.8919 12.5855C14.9273 12.0193 15.1314 11.0642 15.51 9.72682L17.1404 3.96204H21.3221L19.6951 9.69983C19.4574 10.5396 19.4008 11.1299 19.5166 11.4513C19.6373 11.7756 19.9596 11.9431 20.4827 11.9431C21.0095 11.9431 21.4525 11.7563 21.8184 11.3751C22.1895 10.9971 22.476 10.4335 22.6913 9.68341L24.305 3.96204H28.4808Z" fill="#1B3281"/>
<path d="M26.9609 15.0723L31.2239 0.0178604H37.0883C38.3822 0.0178604 39.3837 0.0926476 40.0979 0.256813C40.8107 0.414048 41.3695 0.669417 41.7849 1.02949C42.3054 1.50046 42.6244 2.08344 42.7555 2.78278C42.8788 3.48213 42.8058 4.29676 42.5357 5.2533C42.058 6.93619 41.2209 8.22581 40.0279 9.1269C38.8312 10.0163 37.3506 10.4632 35.5834 10.4632H32.8391L31.5354 15.0723H26.9609ZM33.8782 6.78662H35.3528C36.3062 6.78662 36.9765 6.67133 37.3692 6.4488C37.7492 6.22334 38.0193 5.82278 38.184 5.2533C38.3487 4.67617 38.3062 4.27268 38.0573 4.04723C37.8178 3.82287 37.2056 3.70941 36.2261 3.70941H34.7545L33.8782 6.78662Z" fill="#1B3281"/>
<path d="M47.4587 15.0716L47.5012 14.0166C46.8268 14.5109 46.1439 14.8845 45.4572 15.118C44.7735 15.3558 44.0455 15.4766 43.2657 15.4766C42.0813 15.4766 41.2553 15.1614 40.7777 14.5514C40.306 13.9403 40.2285 13.063 40.5504 11.9437C40.8585 10.8391 41.4066 10.0259 42.1972 9.50602C42.9833 8.97996 44.2963 8.60347 46.1383 8.36269C46.3719 8.32548 46.6848 8.29557 47.0768 8.24924C48.4386 8.09492 49.2031 7.73959 49.3678 7.1599C49.4534 6.84251 49.4013 6.6083 49.2001 6.46457C49.006 6.31536 48.6431 6.24203 48.1193 6.24203C47.6845 6.24203 47.3346 6.33032 47.0477 6.51382C46.7612 6.69914 46.5474 6.96984 46.4024 7.3507H42.3253C42.6934 6.10012 43.4457 5.15525 44.5749 4.52339C45.7001 3.88059 47.1837 3.57123 49.0213 3.57123C49.8853 3.57123 50.6591 3.6504 51.3431 3.82222C52.0283 3.98675 52.5291 4.22133 52.8539 4.50515C53.2537 4.85939 53.4903 5.26324 53.5577 5.70977C53.6356 6.15521 53.5503 6.79363 53.3118 7.62905L51.5581 13.8225C51.5019 14.0253 51.4911 14.2063 51.5216 14.3708C51.5581 14.5277 51.6282 14.6619 51.7519 14.7579L51.6576 15.0716H47.4587ZM48.4751 10.1112C48.031 10.286 47.4538 10.4534 46.7366 10.6373C45.6103 10.9332 44.9766 11.3279 44.8395 11.8164C44.7445 12.1305 44.7828 12.3724 44.9397 12.5562C45.0943 12.731 45.3629 12.8193 45.7415 12.8193C46.4356 12.8193 46.993 12.6474 47.4084 12.3082C47.8249 11.9645 48.1364 11.4249 48.3543 10.6807C48.3924 10.5224 48.4259 10.4086 48.4475 10.3236L48.4751 10.1112Z" fill="#1B3281"/>
<path d="M51.6855 19.4492L52.6136 16.1611H53.8103C54.2101 16.1611 54.5246 16.0838 54.7474 15.943C54.9735 15.7967 55.1274 15.5501 55.2161 15.2181C55.2604 15.0718 55.2876 14.9178 55.3062 14.7431C55.3182 14.5578 55.3182 14.3619 55.3062 14.1349L54.6676 3.96284H58.9005L58.8349 10.7031L62.5301 3.96284H66.4663L59.9336 15.0182C59.1922 16.2538 58.6534 17.1027 58.3114 17.566C57.9739 18.0235 57.6535 18.3792 57.3424 18.62C56.9392 18.953 56.4892 19.1891 56.0033 19.3266C55.5164 19.4671 54.7749 19.5371 53.7783 19.5371C53.4914 19.5371 53.1613 19.5316 52.8044 19.5134C52.4501 19.4999 52.0719 19.4791 51.6855 19.4492Z" fill="#1B3281"/>
</g>
<defs>
<clipPath id="clip0_808_15729">
<rect width="75.9" height="19.55" fill="white"/>
</clipPath>
</defs>
</svg>
