<svg width="80" height="30" viewBox="0 0 80 30" fill="none" xmlns="http://www.w3.org/2000/svg">
<path d="M54.2259 16.6213L54.9908 16.8507C54.9398 17.0674 54.8633 17.2459 54.7486 17.3861C54.6339 17.5264 54.5064 17.6411 54.3407 17.7048C54.1749 17.7813 53.971 17.8196 53.716 17.8196C53.4101 17.8196 53.1679 17.7813 52.9639 17.6921C52.7727 17.6028 52.6069 17.4499 52.4667 17.2204C52.3265 17.0037 52.25 16.7105 52.25 16.3663C52.25 15.9074 52.3775 15.5504 52.6197 15.2955C52.8619 15.0405 53.2188 14.9258 53.665 14.9258C54.022 14.9258 54.2897 15.0023 54.4936 15.1425C54.6976 15.2827 54.8506 15.4994 54.9398 15.8054L54.1749 15.9711C54.1494 15.8819 54.1239 15.8181 54.0857 15.7799C54.0347 15.7162 53.9837 15.6652 53.9072 15.6269C53.8307 15.5887 53.7543 15.5759 53.6778 15.5759C53.4866 15.5759 53.3336 15.6524 53.2316 15.8181C53.1551 15.9329 53.1169 16.1241 53.1169 16.3663C53.1169 16.6723 53.1679 16.889 53.2571 17.0037C53.3463 17.1184 53.4865 17.1822 53.6523 17.1822C53.818 17.1822 53.9455 17.1312 54.022 17.0419C54.1239 16.9272 54.1877 16.7997 54.2259 16.6213Z" fill="#4C1A84"/>
<path d="M55.2969 16.3654C55.2969 15.9065 55.4244 15.5495 55.6793 15.2945C55.9343 15.0396 56.2912 14.9121 56.7501 14.9121C57.2218 14.9121 57.5788 15.0396 57.8337 15.2818C58.0887 15.5368 58.2162 15.881 58.2162 16.3399C58.2162 16.6713 58.1652 16.939 58.0504 17.143C57.9357 17.347 57.7827 17.5127 57.566 17.6274C57.362 17.7422 57.0943 17.8059 56.7884 17.8059C56.4697 17.8059 56.2147 17.7549 55.998 17.6529C55.794 17.5509 55.6283 17.398 55.4881 17.1685C55.3479 16.939 55.2969 16.6968 55.2969 16.3654ZM56.1637 16.3654C56.1637 16.6458 56.2147 16.8498 56.3167 16.9773C56.4187 17.1048 56.5589 17.1685 56.7501 17.1685C56.9414 17.1685 57.0816 17.1048 57.1836 16.99C57.2856 16.8625 57.3365 16.6458 57.3365 16.3399C57.3365 16.0722 57.2856 15.881 57.1708 15.7662C57.0688 15.6387 56.9159 15.5878 56.7374 15.5878C56.5589 15.5878 56.4187 15.6515 56.3167 15.779C56.2147 15.881 56.1637 16.0849 56.1637 16.3654Z" fill="#4C1A84"/>
<path d="M58.6622 14.9629H59.7968L60.2302 16.6711L60.6636 14.9629H61.7982V17.7674H61.0843V15.6258L60.5362 17.7674H59.8988L59.3506 15.6258V17.7674H58.6367V14.9629H58.6622Z" fill="#4C1A84"/>
<path d="M62.3594 14.9629H63.7999C64.1186 14.9629 64.3481 15.0394 64.501 15.1924C64.654 15.3453 64.7305 15.5493 64.7305 15.8297C64.7305 16.1102 64.6413 16.3397 64.4755 16.4926C64.3098 16.6584 64.0421 16.7349 63.6979 16.7349H63.2262V17.7802H62.3594V14.9629ZM63.2262 16.1612H63.4429C63.6087 16.1612 63.7234 16.1357 63.7999 16.072C63.8636 16.0082 63.9019 15.9445 63.9019 15.8552C63.9019 15.766 63.8764 15.6895 63.8126 15.6258C63.7489 15.562 63.6469 15.5365 63.4812 15.5365H63.239V16.1612H63.2262Z" fill="#4C1A84"/>
<path d="M65.1914 14.9629H66.0583V17.079H67.4096V17.7674H65.1914V14.9629Z" fill="#4C1A84"/>
<path d="M67.8438 14.9629H68.7106V17.7674H67.8438V14.9629Z" fill="#4C1A84"/>
<path d="M71.0522 17.2929H70.0706L69.9304 17.7518H69.0508L70.1089 14.9473H71.0522L72.1103 17.7518H71.2052L71.0522 17.2929ZM70.8737 16.6937L70.5678 15.6866L70.2618 16.6937H70.8737Z" fill="#4C1A84"/>
<path d="M72.375 14.9629H73.1781L74.2362 16.5181V14.9629H75.0521V17.7674H74.2362L73.1909 16.2249V17.7674H72.375V14.9629Z" fill="#4C1A84"/>
<path d="M75.4336 14.9629H78.0724V15.6513H77.1928V17.7674H76.3259V15.6513H75.4463V14.9629H75.4336Z" fill="#4C1A84"/>
<path d="M43.8005 19.2366L46.3118 18.4463L45.496 16.6361C44.8968 17.3882 44.2977 18.357 43.8005 19.2366ZM42.9464 10.9632L38.0257 0L2 2.03967L11.9816 29.2693L31.1928 23.214C29.969 21.4548 29.5228 19.3641 30.9378 18.3443C32.5186 17.197 34.9024 18.5227 36.4194 20.3967C37.8854 17.9491 42.003 12.2508 42.9464 10.9632Z" fill="#4C1A84"/>
<path d="M36.9038 7.92556C38.4081 7.92556 39.6319 6.77824 39.6319 5.35047C39.6319 3.9227 38.4081 2.77539 36.9038 2.77539C35.3996 2.77539 34.1758 3.9227 34.1758 5.35047C34.1758 6.76549 35.3996 7.92556 36.9038 7.92556ZM34.673 9.03463H39.1347V20.699H34.673V9.03463Z" fill="white"/>
<path d="M32.4661 12.4378C32.5044 12.4506 32.5299 12.4378 32.5299 12.3996V9.44206C32.5299 9.40382 32.5044 9.36557 32.4661 9.34008C32.4661 9.34008 31.8797 8.95764 30.095 8.85566C30.0058 8.80466 28.4378 8.79192 28.0171 8.85566C21.5156 9.37832 21.2734 14.0823 21.2734 14.2863V15.4336C21.2734 15.5738 21.2734 20.3798 28.0171 20.8005C28.68 20.8515 29.9675 20.8005 30.095 20.8005C31.6503 20.8005 32.7211 20.3288 32.7211 20.3288C32.7593 20.316 32.7848 20.2778 32.7848 20.2396V17.4733C32.7848 17.435 32.7593 17.4223 32.7338 17.4478C32.7338 17.4478 32.2494 17.8302 30.1333 18.0469C29.5341 18.1107 29.2409 18.0852 29.0242 18.0469C26.0157 17.537 25.8754 15.3444 25.8754 15.3444C25.8754 15.3061 25.8627 15.2424 25.8627 15.2169V14.3755C25.8627 14.3373 25.8627 14.2735 25.8754 14.248C25.8754 14.248 26.0794 11.8897 29.0242 11.6347H30.1333C31.4208 11.8004 32.4661 12.4378 32.4661 12.4378Z" fill="white"/>
<path d="M8.87891 20.6633C8.87891 20.7015 8.9044 20.727 8.94265 20.727H13.2897C13.3279 20.727 13.3534 20.7015 13.3534 20.6633V17.2723C13.3534 17.2341 13.3789 17.2086 13.4172 17.2086C13.4172 17.2086 20.3648 17.7058 20.3648 13.0528C20.3648 9.3686 16.005 8.97342 14.5772 9.03716C14.5517 9.03716 8.94265 9.03716 8.94265 9.03716C8.9044 9.03716 8.87891 9.06265 8.87891 9.1009V20.6633ZM13.2769 14.6208V11.574H14.3478C14.3478 11.574 15.8903 11.6377 16.0177 12.6958C16.0432 12.7723 16.0432 13.295 16.0177 13.3205C15.8138 14.557 14.4752 14.6208 14.4752 14.6208H13.2769Z" fill="white"/>
<path d="M37.0312 26.3241C37.3882 26.3241 37.6686 26.3241 38.1275 26.1201C39.7083 25.2915 45.0497 12.2504 50.6843 8.23478C50.7225 8.20928 50.7607 8.17104 50.7862 8.1328C50.8245 8.08181 50.8245 8.03081 50.8245 8.03081C50.8245 8.03081 50.8245 7.76311 49.9959 7.76311C44.9859 7.62288 39.772 18.1399 37.0312 22.2958C36.993 22.3467 36.8145 22.2958 36.8145 22.2958C36.8145 22.2958 34.9788 20.1286 33.3853 19.3C33.3471 19.2872 33.1686 19.2235 32.9774 19.2362C32.8499 19.2362 32.1105 19.3892 31.7663 19.7462C31.3584 20.1796 31.3711 20.4218 31.3711 20.9445C31.3711 20.9827 31.3966 21.1612 31.4476 21.2504C31.8428 21.9388 33.6148 24.3864 35.0808 25.7377C35.2975 25.9034 35.6417 26.3241 37.0312 26.3241Z" fill="#C20A75"/>
<path d="M52.1719 4.29688H56.3405C57.1691 4.29688 57.832 4.41161 58.3291 4.62832C58.839 4.85778 59.2597 5.17648 59.5784 5.58442C59.9099 6.0051 60.1521 6.48952 60.2923 7.03768C60.4453 7.58584 60.5218 8.17225 60.5218 8.79689C60.5218 9.76574 60.407 10.5179 60.1903 11.0533C59.9736 11.5887 59.6677 12.0349 59.2725 12.4046C58.8773 12.7615 58.4566 13.0037 58.0104 13.1312C57.3985 13.2969 56.8376 13.3734 56.3405 13.3734H52.1719V4.29688ZM54.9764 6.34929V11.3082H55.6648C56.2512 11.3082 56.6719 11.2445 56.9141 11.117C57.1563 10.9895 57.3603 10.7601 57.5005 10.4414C57.6407 10.1227 57.7172 9.58727 57.7172 8.86063C57.7172 7.89179 57.5643 7.24165 57.2456 6.8847C56.9269 6.52776 56.4169 6.34929 55.6776 6.34929H54.9764Z" fill="#4C1A84"/>
<path d="M61.3008 10.3774L63.9778 10.2116C64.0416 10.6451 64.1563 10.9765 64.3348 11.206C64.628 11.5757 65.0359 11.7541 65.5713 11.7541C65.9665 11.7541 66.2852 11.6649 66.5019 11.4737C66.7187 11.2825 66.8334 11.0657 66.8334 10.8235C66.8334 10.5941 66.7314 10.3774 66.5274 10.1861C66.3235 9.99491 65.839 9.82919 65.0869 9.66347C63.8504 9.38301 62.9835 9.01332 62.4481 8.55439C61.9127 8.09547 61.6577 7.50906 61.6577 6.79518C61.6577 6.32351 61.798 5.89008 62.0657 5.46939C62.3334 5.04871 62.7413 4.73001 63.2895 4.4878C63.8376 4.24559 64.577 4.13086 65.5203 4.13086C66.6804 4.13086 67.5728 4.34758 68.1719 4.781C68.7838 5.21443 69.1408 5.90282 69.2555 6.84617L66.6039 6.99915C66.5274 6.59121 66.3872 6.29801 66.1577 6.10679C65.9283 5.91557 65.6223 5.82634 65.2271 5.82634C64.8957 5.82634 64.6535 5.89008 64.4878 6.0303C64.322 6.17053 64.2456 6.33625 64.2456 6.54022C64.2456 6.68045 64.3093 6.82068 64.4495 6.93541C64.577 7.05014 64.8957 7.16487 65.3929 7.26685C66.6167 7.53456 67.4963 7.80227 68.0317 8.06997C68.5671 8.33768 68.9495 8.68187 69.1918 9.07706C69.434 9.47225 69.5487 9.93117 69.5487 10.4283C69.5487 11.0147 69.383 11.5502 69.0643 12.0346C68.7456 12.5318 68.2867 12.9014 67.713 13.1564C67.1393 13.4114 66.4 13.5388 65.5203 13.5388C63.9778 13.5388 62.907 13.2456 62.3079 12.6465C61.7215 12.0473 61.39 11.2952 61.3008 10.3774Z" fill="#4C1A84"/>
<path d="M70.25 10.3774L72.9271 10.2116C72.9908 10.6451 73.1055 10.9765 73.284 11.206C73.5772 11.5757 73.9851 11.7541 74.5206 11.7541C74.9157 11.7541 75.2344 11.6649 75.4512 11.4737C75.6679 11.2825 75.7826 11.0657 75.7826 10.8235C75.7826 10.5941 75.6806 10.3774 75.4767 10.1861C75.2727 9.99491 74.7883 9.82919 74.0361 9.66347C72.7996 9.38301 71.9327 9.01332 71.3973 8.55439C70.8746 8.09547 70.6069 7.50906 70.6069 6.79518C70.6069 6.32351 70.7472 5.89008 71.0149 5.46939C71.2826 5.04871 71.6905 4.73001 72.2387 4.4878C72.7868 4.24559 73.5262 4.13086 74.4696 4.13086C75.6296 4.13086 76.522 4.34758 77.1211 4.781C77.733 5.21443 78.09 5.90282 78.2047 6.84617L75.5531 6.99915C75.4767 6.59121 75.3364 6.29801 75.107 6.10679C74.8775 5.91557 74.5715 5.82634 74.1764 5.82634C73.8449 5.82634 73.6027 5.89008 73.437 6.0303C73.2713 6.17053 73.1948 6.33625 73.1948 6.54022C73.1948 6.68045 73.2585 6.82068 73.3987 6.93541C73.5262 7.05014 73.8449 7.16487 74.3421 7.26685C75.5659 7.53456 76.4455 7.80227 76.9809 8.06997C77.5163 8.33768 77.8988 8.68187 78.141 9.07706C78.3832 9.47225 78.4979 9.93117 78.4979 10.4283C78.4979 11.0147 78.3322 11.5502 78.0135 12.0346C77.6948 12.5318 77.2359 12.9014 76.6622 13.1564C76.0886 13.4114 75.3492 13.5388 74.4696 13.5388C72.9271 13.5388 71.8562 13.2456 71.2571 12.6465C70.6579 12.0473 70.3265 11.2952 70.25 10.3774Z" fill="#4C1A84"/>
</svg>
