<svg width="100" height="100" viewBox="0 0 100 100" fill="none" xmlns="http://www.w3.org/2000/svg">
<path d="M85.0793 48.8439H82.8491V44.388C82.7078 35.7499 79.1839 27.5129 73.0409 21.4544C66.8964 15.396 58.6248 12 50.0056 12C41.3863 12 33.1163 15.396 26.9718 21.4544C20.8288 27.5129 17.3049 35.7499 17.1636 44.388V48.8439H14.9239C13.6191 48.847 12.3683 49.3674 11.4445 50.2936C10.5222 51.2166 10.0032 52.4722 10 53.7803V60.313C10.0032 61.6211 10.5222 62.8767 11.4445 63.8013C12.3683 64.7259 13.6191 65.2479 14.9239 65.2495H20.8351V44.3864C20.8351 36.6315 23.9082 29.195 29.3782 23.711C34.8481 18.2271 42.2657 15.1478 50.0008 15.1478C57.7359 15.1478 65.1535 18.2287 70.6234 23.7126C76.0918 29.1966 79.1649 36.6331 79.1649 44.388V65.259H82.4903C81.157 72.9852 74.1251 79.241 64.944 81.1761C65.6852 80.6032 66.3979 79.9937 67.0773 79.3492L67.1488 79.2871L67.371 79.0548C73.0711 73.251 76.3886 65.5121 76.668 57.3721C77.0585 57.4437 77.441 57.5233 77.841 57.5854L78.4458 53.9411C44.9864 48.7356 40.0546 22.9997 39.8593 21.9303L38.0815 22.2517L36.3037 22.5636C36.6862 24.3412 37.2228 26.0822 37.9037 27.7675C28.1781 32.8026 22.0272 43.5939 22.0272 55.7584C22.0272 71.728 32.8179 84.9095 46.6055 86.4945C47.2103 86.5662 47.815 86.6012 48.3833 86.6282C49.0833 87.4923 50.1341 87.9968 51.2453 88H58.001C58.7946 88 59.5676 87.7454 60.2073 87.2743C60.847 86.8033 61.3201 86.1397 61.5566 85.379C74.5076 84.3716 84.8539 75.8434 86.2587 65.0951C87.3238 64.831 88.2714 64.2167 88.9492 63.3526C89.627 62.4868 89.9968 61.419 90 60.3194V53.7788C89.9968 52.469 89.4778 51.215 88.5555 50.2904C87.6317 49.3642 86.3809 48.8439 85.0761 48.8407H85.0793V48.8439ZM13.6826 60.321V53.7803C13.6826 53.0865 14.2445 52.5231 14.935 52.5231H17.1652V61.5782H14.9255C14.2366 61.5734 13.681 61.0116 13.681 60.321H13.6826ZM73.0616 56.6401C72.9489 64.2358 69.8456 71.4782 64.4296 76.7903C63.1376 78.0124 61.7121 79.0866 60.1804 79.9905C59.5565 79.5497 58.8105 79.3126 58.047 79.3126H51.2913C50.3326 79.3126 49.4135 79.685 48.7214 80.3486C48.0293 81.0122 47.6182 81.9177 47.5753 82.8773C35.3624 81.8175 25.6987 70.0619 25.6987 55.7584C25.6987 45.2776 31.1115 35.5908 39.3355 31.1349C43.4864 39.6281 52.8739 51.9789 73.06 56.6401H73.0616ZM58.093 84.2666C58.093 84.2809 58.0867 84.2952 58.0771 84.3048C58.066 84.3143 58.0533 84.3207 58.0391 84.3207L51.231 84.2666L51.2849 82.9919L58.093 83.046V84.2666ZM85.0809 52.5327C85.7729 52.5327 86.3333 53.0961 86.3333 53.7883V60.321C86.3333 61.0148 85.7714 61.5782 85.0809 61.5782H82.8507V52.5327H85.0809Z" fill="#4C1A84"/>
</svg>
