<svg width="76" height="23" viewBox="0 0 76 23" fill="none" xmlns="http://www.w3.org/2000/svg">
<g clip-path="url(#clip0_808_15745)">
<path d="M58.3541 12.862C58.243 13.2607 58.0068 13.5975 57.6525 13.8724C57.2983 14.1474 56.9163 14.278 56.5134 14.278H42.1489C41.746 14.278 41.4473 14.1405 41.2528 13.8724C41.0514 13.5975 41.0097 13.2607 41.1208 12.862L44.316 1.44445C44.4272 1.04577 44.6564 0.702074 45.0107 0.427119C45.3649 0.14529 45.74 0.0078125 46.1429 0.0078125H60.5074C60.9242 0.0078125 61.2298 0.14529 61.4312 0.413371C61.6257 0.688327 61.6674 1.03202 61.5493 1.44445L61.1742 2.79861H46.8097L44.3786 11.4872H58.7431L58.361 12.862H58.3541Z" fill="#3A4683"/>
<path d="M62.8481 14.2769H59.9863L63.9734 0.0273438H66.8352L62.8481 14.2769Z" fill="#3A4683"/>
<path d="M23.464 0H20.5952L17.9835 9.33473L6.45994 0.0206216L2.45898 14.3114H5.32772L7.92556 5.03168L19.4491 14.3458L23.464 0Z" fill="#3A4683"/>
<path d="M42.1697 0.419231C41.9683 0.151149 41.6627 0.0136719 41.2459 0.0136719H25.4783L24.7003 2.80447H39.044L38.2105 5.78773H23.8737L21.4912 14.2838H24.3599L25.9576 8.57852H38.8565C39.2593 8.57852 39.6344 8.44105 39.9956 8.17297C40.3499 7.89801 40.586 7.56807 40.6972 7.16251L42.2948 1.45719C42.4129 1.04475 42.3712 0.70106 42.1767 0.426105L42.1697 0.419231Z" fill="#3A4683"/>
<path d="M72.2676 0.0136719L75.9004 7.16251L68.2666 14.3045L72.2676 0.0136719Z" fill="#22914F"/>
<path d="M69.7247 0.0136719L73.3506 7.16251L65.7168 14.3045L69.7247 0.0136719Z" fill="#F47D35"/>
<path d="M65.252 15.9952C65.384 15.9058 65.5229 15.8646 65.6618 15.8646C65.8008 15.8646 65.9397 15.8989 66.0855 15.9608C66.162 15.9883 66.2314 16.0295 66.3009 16.0777C66.4676 16.1808 66.6134 16.3114 66.7454 16.4626L66.7802 16.5038L66.8635 16.607H65.0089L64.995 16.552V16.5382C64.9811 16.4626 64.9811 16.3939 64.995 16.332C65.0297 16.1876 65.12 16.0777 65.252 15.9952ZM72.469 16.8338L72.2745 17.5555H71.3437L71.5382 16.8338H72.469ZM67.2733 16.607C67.2178 16.5313 67.1552 16.4557 67.0997 16.3732C66.9121 16.1601 66.7315 16.0089 66.5579 15.8921C66.4259 15.8096 66.2939 15.7408 66.1689 15.6996C66.0369 15.6584 65.8911 15.6309 65.7521 15.6309C65.4951 15.6309 65.2659 15.6859 65.0714 15.7958C64.8839 15.9058 64.7588 16.0708 64.6963 16.2839C64.6755 16.3664 64.6685 16.4489 64.6963 16.5245L64.7102 16.6001H64.2309L64.1684 16.8269H64.6408L64.0781 18.8753H64.4115L64.9742 16.8269H67.2108L67.0649 17.3493H65.6966L65.5438 17.3768C65.4882 17.3974 65.4465 17.4387 65.4257 17.5074C65.4187 17.5418 65.4257 17.6037 65.5715 17.7893L65.5924 17.8099C65.7174 17.968 65.8077 18.0367 65.8702 18.0367C65.9675 18.0367 66.0091 17.9955 66.023 17.9611L66.1272 17.5762H66.9955L66.6412 18.8753H66.9746L67.5373 16.8269H68.732L68.5514 17.4799H68.2458L68.1902 17.4937C68.1138 17.5074 68.0721 17.5418 68.0582 17.5899C68.0374 17.6793 68.086 17.7824 68.2249 17.9267C68.3639 18.0642 68.475 18.133 68.5653 18.133C68.6417 18.133 68.6973 18.0986 68.732 18.0298L68.7598 17.9405L69.0585 16.8407H69.8642L69.3016 18.8891H69.642L70.2046 16.8407H71.2048L71.0103 17.5624H70.7881L70.6908 17.583C70.6352 17.5968 70.6005 17.6312 70.5797 17.693C70.5588 17.7618 70.6144 17.8511 70.7464 17.9955C70.8714 18.133 70.9687 18.2017 71.052 18.2017C71.1145 18.2017 71.1631 18.1811 71.1909 18.1398L71.2118 18.078L71.2882 17.7893H72.219L71.9203 18.8822H72.2537L72.8163 16.8338H73.2609L73.3234 16.607H67.2872H67.2733Z" fill="#4D4C4E"/>
<path d="M52.0404 16.8268H52.6655L52.4502 17.6172H51.6375L51.8111 16.9642C51.8459 16.8405 51.8111 16.7443 51.7278 16.6618C51.6444 16.5862 51.5194 16.5449 51.3666 16.5449C51.2138 16.5449 51.0749 16.5793 50.9498 16.648C50.8317 16.7168 50.7484 16.8268 50.7067 16.9574C50.6928 16.9986 50.6928 17.0467 50.7067 17.1223V17.1361L50.7345 17.1979V17.2117H51.054L51.0262 17.1704L51.0123 17.1429V16.9711C51.0262 16.9092 51.061 16.8611 51.1165 16.8199C51.1651 16.7855 51.2277 16.7649 51.2971 16.7649C51.3874 16.7649 51.443 16.7786 51.4708 16.813L51.4916 16.9367L51.3041 17.6172H50.9915L50.8873 17.6516L50.797 17.7479C50.7901 17.7891 50.797 17.8647 50.9984 18.0709C51.1929 18.284 51.2693 18.3046 51.311 18.3046L51.4499 18.2496L51.4777 18.1603L51.5611 17.8647H52.3738L52.1098 18.827C52.0056 18.8477 51.9084 18.8752 51.8111 18.9233C51.7625 18.9508 51.7 18.9851 51.6236 19.0333L51.5958 19.0539L51.8111 19.2532L51.832 19.2395L51.9431 19.157C52.0265 19.102 52.1168 19.0745 52.1932 19.0745C52.2835 19.0745 52.346 19.0951 52.3877 19.1432C52.4293 19.1914 52.4432 19.2464 52.4224 19.3082C52.3946 19.4113 52.3252 19.4938 52.2071 19.5557C52.089 19.6175 51.964 19.6519 51.8181 19.6519C51.5889 19.6519 51.3874 19.5763 51.2138 19.432C51.1513 19.3838 51.0887 19.3151 51.0123 19.2189L50.9915 19.1982L50.7206 19.4113L50.7414 19.432C50.8456 19.5351 50.929 19.6175 51.0123 19.6657C51.2555 19.8169 51.5125 19.8856 51.8042 19.8856C52.0404 19.8856 52.2557 19.8375 52.4224 19.7344C52.596 19.6313 52.7072 19.5007 52.7558 19.3288C52.7905 19.1914 52.7628 19.0676 52.6655 18.9714C52.603 18.9095 52.5266 18.8683 52.4363 18.8477L52.985 16.8474H54.1936L54.0131 17.5004H53.6866L53.6519 17.5073C53.6032 17.5141 53.5407 17.5348 53.5199 17.6035C53.499 17.686 53.5477 17.796 53.6796 17.9403C53.8186 18.0778 53.9297 18.1465 54.02 18.1465C54.0895 18.1465 54.152 18.1122 54.1867 18.0434L54.2145 17.9472L54.5132 16.8474H55.3189L54.7563 18.8958H55.0966L55.6593 16.8474H57.9376L57.8195 17.2873H56.7081C56.5484 17.2873 56.4095 17.3217 56.2914 17.4042C56.1733 17.4798 56.0899 17.5898 56.0552 17.7341C55.9857 17.9816 56.0552 18.2428 56.2705 18.5246C56.3469 18.6208 56.4581 18.7377 56.6039 18.8614L56.6178 18.8752L56.8818 18.6964L56.854 18.6758C56.729 18.5658 56.6317 18.4627 56.5623 18.3802C56.3886 18.1465 56.3261 17.9334 56.3817 17.7272C56.4025 17.6516 56.4442 17.6035 56.5067 17.5623C56.5762 17.521 56.6734 17.5004 56.7984 17.5004H57.7639L57.3819 18.8958H57.7153L58.278 16.8474H59.0837L58.5211 18.8958H58.8545L59.4171 16.8474H61.6538L61.5148 17.3698H60.1465L60.0006 17.3973C59.945 17.4179 59.9033 17.466 59.8825 17.5348C59.8756 17.5691 59.8825 17.6379 60.0492 17.8441C60.1812 18.0022 60.2645 18.0709 60.3271 18.0709C60.4035 18.0709 60.4521 18.0434 60.4868 17.9953L60.591 17.6104H61.4593L61.105 18.9095H61.4384L62.0011 16.8611H62.4456L62.5081 16.6343H52.1029L52.0404 16.8611V16.8268Z" fill="#4D4C4E"/>
<path d="M44.1145 16.8266L43.9964 17.2528H43.2809C43.1142 17.2528 42.9614 17.2872 42.8225 17.3628L42.7322 17.4178C42.6558 17.4659 42.6002 17.5209 42.5585 17.5759L41.8986 16.8266H44.1075H44.1145ZM42.4335 17.8096V17.8302L42.4196 17.8989L42.3363 17.9333C42.2182 17.9814 42.1001 18.0089 41.9751 18.0089C41.8361 18.0089 41.7389 17.9745 41.6694 17.9127C41.6 17.8508 41.5861 17.7752 41.6139 17.6721L41.7806 17.0466L42.4474 17.8096H42.4335ZM44.566 15.988C44.6424 15.9261 44.7327 15.8986 44.8577 15.8986C44.941 15.8986 45.0174 15.9124 45.0869 15.933C45.2258 15.988 45.3231 16.0911 45.3995 16.2561C45.4342 16.3317 45.462 16.4485 45.4828 16.5929H44.4548L44.4201 16.5173V16.5035C44.3854 16.4073 44.3854 16.3111 44.4201 16.2148C44.4479 16.1117 44.4965 16.0292 44.566 15.9742V15.988ZM47.3166 16.9503L47.268 16.8335H48.1224L47.8376 17.8852C47.7542 17.9608 47.6917 18.0089 47.6431 18.0364C47.4625 18.1395 47.2888 18.1945 47.1082 18.2014H47.0943C46.8721 18.2014 46.7192 18.1326 46.6359 17.9952C46.615 17.9608 46.6012 17.8989 46.5873 17.8096C46.7192 17.789 46.8234 17.7546 46.9068 17.7271C47.143 17.6309 47.2958 17.4728 47.3513 17.2665C47.3791 17.1703 47.3652 17.0603 47.3235 16.9572L47.3166 16.9503ZM45.6843 16.1667C45.5731 15.9193 45.3995 15.768 45.1494 15.713C45.08 15.6924 44.9966 15.6855 44.8924 15.6855C44.691 15.6855 44.5243 15.7268 44.3854 15.8162C44.2395 15.9055 44.1422 16.0361 44.1006 16.2217C44.0728 16.3111 44.0797 16.4142 44.1214 16.5242L44.1492 16.6066H37.8838L37.8213 16.8335H39.1827L39.0438 17.349C39.023 17.4246 38.9813 17.4865 38.9049 17.5346C38.8285 17.5827 38.7382 17.6034 38.627 17.6034C38.5576 17.6034 38.502 17.5965 38.4534 17.5759C38.3909 17.5484 38.377 17.5277 38.377 17.514L38.2311 17.1909L37.9255 17.3422L37.9394 17.3696C37.9741 17.4453 38.0019 17.5071 38.0227 17.5621C38.0852 17.7133 38.1755 17.8783 38.2936 18.0777C38.37 18.2014 38.4673 18.3457 38.5784 18.5038C38.6687 18.6276 38.766 18.7513 38.8771 18.8819L38.891 18.9025L39.1827 18.7169L39.1619 18.6963L39.0785 18.6001L39.0091 18.5245L38.884 18.3664C38.8354 18.3045 38.7868 18.2495 38.759 18.2083L38.5298 17.8164C38.6618 17.8439 38.8146 17.8164 38.9743 17.7615C39.0924 17.7202 39.1897 17.6652 39.2452 17.5965C39.3078 17.5277 39.3494 17.459 39.3703 17.3834L39.5231 16.8335H40.3983L39.8357 18.8819H40.1691L40.7317 16.8335H41.4888L41.2666 17.6515C41.2179 17.8233 41.2666 17.9608 41.3985 18.0777C41.5305 18.1876 41.7042 18.2426 41.9195 18.2426C42.0098 18.2426 42.107 18.2289 42.2112 18.2014C42.2737 18.1876 42.3432 18.1601 42.4127 18.1326C42.4335 18.2358 42.4752 18.332 42.5516 18.4214L42.6141 18.4901H42.621C42.7461 18.6138 42.8989 18.6963 43.0725 18.7375L41.9403 19.5074H42.4335L43.274 18.8544L43.7255 19.5074H44.1283L43.5518 18.765C43.7046 18.7513 43.8297 18.7169 43.9408 18.6688C44.1075 18.6001 44.2673 18.5038 44.4201 18.3595L44.4479 18.332L44.1978 18.1945L44.1839 18.2083C43.9616 18.4214 43.7046 18.5245 43.399 18.5245C43.1698 18.5245 42.9892 18.4557 42.8642 18.3251C42.753 18.2151 42.7113 18.0914 42.7252 17.9471L42.7391 17.8714L42.76 17.8096C42.7947 17.734 42.8572 17.6652 42.9475 17.6102C43.0517 17.5415 43.1698 17.5003 43.3018 17.5003H44.2673L44.4479 16.8335H45.4412L44.8855 18.8819H45.2189L45.7815 16.8335H46.8859L46.9762 16.9572C47.0318 17.0672 47.0457 17.1566 47.0249 17.239C46.9901 17.3628 46.9207 17.4521 46.8165 17.514C46.7262 17.5621 46.6151 17.5896 46.4761 17.5896L46.3997 17.5759H46.3511L46.3025 17.5552H46.2816V17.5759C46.2261 17.789 46.2608 17.9814 46.3928 18.1533C46.5247 18.3251 46.747 18.4145 47.0596 18.4145H47.0735C47.261 18.4145 47.4347 18.3801 47.6083 18.3114L47.7473 18.2426L47.5736 18.8819H47.907L48.4697 16.8335H48.9142L48.9767 16.6066H45.8024C45.7815 16.4073 45.7398 16.263 45.6912 16.1667H45.6843Z" fill="#4D4C4E"/>
<path d="M31.7784 15.988C31.8548 15.9261 31.9451 15.8986 32.0632 15.8986C32.1465 15.8986 32.2229 15.9124 32.2924 15.933C32.4313 15.988 32.5355 16.098 32.6119 16.2561C32.6467 16.3248 32.6675 16.4279 32.6953 16.5998H31.6673L31.6325 16.5173C31.6047 16.4211 31.6047 16.3248 31.6325 16.2286C31.6603 16.1255 31.7159 16.043 31.7853 15.988H31.7784ZM34.529 16.9503L34.4804 16.8335H35.3348L35.05 17.8852C34.9667 17.9608 34.8972 18.0089 34.8486 18.0364C34.6749 18.1395 34.4943 18.1945 34.3137 18.2014H34.2998C34.0776 18.2014 33.9247 18.1326 33.8483 17.9952C33.8275 17.9539 33.8136 17.8852 33.7997 17.8027C33.9317 17.7752 34.0428 17.7477 34.1192 17.7202C34.3554 17.624 34.5013 17.4659 34.5568 17.2597C34.5846 17.1703 34.5707 17.0603 34.529 16.9503ZM32.8967 16.1667C32.7856 15.9193 32.605 15.768 32.3619 15.713C32.2924 15.6924 32.2091 15.6855 32.1049 15.6855C31.9034 15.6855 31.7367 15.7268 31.5978 15.8162C31.4519 15.9055 31.3547 16.043 31.3061 16.2217C31.2852 16.3042 31.2922 16.4142 31.3269 16.5242L31.3547 16.6066H25.0893L25.0268 16.8335H25.6519L25.4366 17.624H24.6239L24.8045 16.971C24.8392 16.8541 24.8045 16.751 24.7212 16.6685C24.6378 16.5929 24.5197 16.5517 24.36 16.5517C24.2002 16.5517 24.0682 16.586 23.9432 16.6548C23.8251 16.7235 23.7418 16.8266 23.707 16.9641V17.1222L23.7348 17.1978V17.2115H24.0543L24.0196 17.1703L24.0057 17.1428V16.9778C24.0196 16.916 24.0543 16.861 24.103 16.8266C24.1516 16.7922 24.2141 16.7716 24.2836 16.7716C24.3739 16.7716 24.4364 16.7854 24.4572 16.8197L24.4711 16.9435L24.2836 17.624H23.9779L23.8668 17.6515L23.7834 17.7477C23.7834 17.7477 23.7557 17.8371 23.9849 18.0708C24.1863 18.2839 24.2627 18.3045 24.3044 18.3045L24.4433 18.2495L24.4711 18.1601L24.5545 17.8646H25.3671L25.0893 18.8819H25.4227L25.9854 16.8335H26.7842L26.2285 18.8819H26.5619L27.1245 16.8335H28.8124L28.6735 17.349C28.6527 17.4246 28.611 17.4865 28.5346 17.5346C28.4582 17.5827 28.3679 17.6034 28.2567 17.6034C28.1942 17.6034 28.1317 17.5965 28.0831 17.5759L27.9997 17.514L27.8538 17.1909L27.5552 17.3422V17.3628C27.5899 17.4246 27.6177 17.4934 27.6455 17.5621C27.708 17.7133 27.7983 17.8783 27.9094 18.0708C27.9789 18.1808 28.0692 18.3114 28.2012 18.497C28.3123 18.6413 28.4095 18.765 28.4998 18.875L28.5137 18.8956L28.8124 18.7101L28.7846 18.6826C28.7221 18.6138 28.6735 18.5657 28.6388 18.5245L28.5901 18.4626C28.4998 18.3595 28.4373 18.277 28.3887 18.2083L28.1595 17.8164C28.2915 17.8439 28.4443 17.8164 28.604 17.7615C28.7221 17.7202 28.8194 17.6652 28.8819 17.5965C28.9444 17.5277 28.9861 17.459 29.0069 17.3834L29.1597 16.8335H31.5144L31.3964 17.2734H30.285C30.1252 17.2734 29.9863 17.3147 29.8682 17.3903C29.7501 17.4659 29.6668 17.5759 29.6321 17.7202C29.5626 17.9677 29.6321 18.2289 29.8474 18.5107C29.9238 18.6069 30.0419 18.7238 30.1808 18.8475L30.1947 18.8613L30.4586 18.6826L30.4309 18.6619C30.2989 18.5451 30.2016 18.442 30.1391 18.3664C29.9655 18.1395 29.9029 17.9196 29.9585 17.7133C29.9794 17.6377 30.021 17.5827 30.0766 17.5484C30.153 17.5071 30.2503 17.4865 30.3683 17.4865H31.3338L30.9518 18.8819H31.2852L31.8479 16.8335H32.6467L32.091 18.8819H32.4244L32.987 16.8335H34.0914L34.1817 16.9572C34.2373 17.0603 34.2512 17.1497 34.2304 17.239C34.1956 17.3628 34.1262 17.4521 34.022 17.514C33.9317 17.5621 33.8136 17.5896 33.6816 17.5896L33.6052 17.5759H33.5635L33.5149 17.5552H33.4941V17.5759C33.4385 17.7821 33.4732 17.9745 33.6052 18.1533C33.7372 18.3251 33.9595 18.4145 34.272 18.4145H34.2859C34.4735 18.4145 34.6471 18.3801 34.8277 18.3114L34.9667 18.2495L34.793 18.8888H35.1264L35.689 16.8404H36.1336L36.1961 16.6135H33.0217C33.0009 16.4142 32.9592 16.2698 32.9106 16.1736L32.8967 16.1667Z" fill="#4D4C4E"/>
<path d="M0 22.9039L0.673771 20.498L1.76431 21.9141L1.85461 22.0447L1.93796 22.1959L2.38946 20.5874H2.74371L2.06299 22.9933L0.951615 21.5566L0.868262 21.4329L0.798801 21.2954L0.347305 22.9039H0Z" fill="#4D4C4E"/>
<path d="M3.44557 21.9966H4.0985L4.0082 21.4673L3.99431 21.3504V21.2061L3.91095 21.3435L3.83455 21.4673L3.44557 21.9966ZM4.24437 22.9039L4.14712 22.3059H3.22329L2.78569 22.9039H2.38281L4.1888 20.498L4.64724 22.9039H4.24437Z" fill="#4D4C4E"/>
<path d="M5.80004 20.911L5.24436 22.9044H4.86232L5.42495 20.911H4.7998L4.8901 20.5879H6.50854L6.41825 20.911H5.80004Z" fill="#4D4C4E"/>
<path d="M6.22363 22.9044L6.86962 20.5879H7.25165L6.60567 22.9044H6.22363Z" fill="#4D4C4E"/>
<path d="M9.34233 21.7567C9.37706 21.6398 9.38401 21.5298 9.37012 21.4267C9.35622 21.3236 9.32149 21.2274 9.26592 21.1449C9.21036 21.0624 9.13395 21.0006 9.04365 20.9593C8.95335 20.9181 8.84916 20.8906 8.73107 20.8906C8.61299 20.8906 8.50185 20.9112 8.38377 20.9524C8.26569 20.9937 8.16149 21.0555 8.05036 21.138C7.94617 21.2205 7.85587 21.3099 7.78641 21.4199C7.71694 21.523 7.66138 21.6398 7.62664 21.7567C7.59191 21.8735 7.58497 21.9835 7.59886 22.0866C7.61275 22.1897 7.64748 22.286 7.70305 22.3685C7.75862 22.4509 7.83503 22.5128 7.92533 22.554C8.01563 22.5953 8.11982 22.6159 8.2379 22.6159C8.35599 22.6159 8.46712 22.5953 8.57826 22.554C8.69634 22.5128 8.80054 22.4441 8.91167 22.3685C9.01586 22.286 9.10616 22.1897 9.17562 22.0866C9.24509 21.9835 9.30065 21.8735 9.33538 21.7567H9.34233ZM9.73826 21.7567C9.68964 21.9217 9.62018 22.0798 9.51598 22.2241C9.41179 22.3685 9.28676 22.4991 9.13395 22.6159C8.98113 22.7328 8.82137 22.8153 8.65467 22.8771C8.48796 22.939 8.32125 22.9665 8.15455 22.9665C7.98784 22.9665 7.83503 22.939 7.69611 22.8771C7.56413 22.8153 7.45299 22.7259 7.36269 22.6159C7.27239 22.4991 7.22377 22.3685 7.20293 22.2241C7.18209 22.0798 7.19599 21.9217 7.23766 21.7567C7.28629 21.5917 7.36269 21.4336 7.45994 21.2893C7.56413 21.1449 7.68916 21.0143 7.84197 20.8974C7.99479 20.7806 8.15455 20.6981 8.32125 20.6362C8.48796 20.5744 8.66161 20.5469 8.82832 20.5469C8.99503 20.5469 9.14784 20.5744 9.27982 20.6362C9.41179 20.6981 9.52293 20.7875 9.61323 20.8974C9.70353 21.0143 9.75215 21.1449 9.77299 21.2961C9.79383 21.4405 9.77994 21.5986 9.73826 21.7636V21.7567Z" fill="#4D4C4E"/>
<path d="M9.78711 22.9039L10.4678 20.498L11.5514 21.9141L11.6417 22.0447L11.7251 22.1959L12.1766 20.5874H12.5308L11.857 22.9933L10.7457 21.5566L10.6623 21.4329L10.5929 21.2954L10.1414 22.9039H9.78711Z" fill="#4D4C4E"/>
<path d="M13.2327 21.9966H13.8856L13.7953 21.4673L13.7814 21.3504V21.2061L13.6981 21.3435L13.6217 21.4673L13.2327 21.9966ZM14.0315 22.9039L13.9342 22.3059H13.0104L12.5728 22.9039H12.1699L13.9759 20.498L14.4343 22.9039H14.0315Z" fill="#4D4C4E"/>
<path d="M14.7119 22.9044L15.3648 20.5879H15.7469L15.1912 22.5676H16.0386L15.9483 22.9044H14.7119Z" fill="#4D4C4E"/>
<path d="M18.0667 21.5571H18.1639C18.3723 21.5571 18.5251 21.5365 18.6015 21.4884C18.6849 21.4403 18.7405 21.3646 18.7752 21.2478C18.8099 21.1241 18.796 21.0347 18.7335 20.9866C18.671 20.9385 18.539 20.911 18.3376 20.911H18.2403L18.0597 21.5571H18.0667ZM17.9556 21.8664L17.6638 22.9044H17.3096L17.9625 20.5879H18.539C18.7127 20.5879 18.8308 20.5948 18.9072 20.6154C18.9836 20.636 19.0461 20.6635 19.0947 20.7047C19.1503 20.7597 19.192 20.8285 19.2059 20.9247C19.2197 21.0141 19.2128 21.1172 19.185 21.2272C19.1572 21.3371 19.1017 21.4403 19.0391 21.5296C18.9697 21.619 18.8933 21.6946 18.803 21.7496C18.7335 21.7908 18.6502 21.8183 18.5668 21.8389C18.4835 21.8527 18.3515 21.8664 18.1848 21.8664H17.9695H17.9556Z" fill="#4D4C4E"/>
<path d="M19.421 21.9966H20.074L19.9837 21.4673L19.9698 21.3504V21.2061L19.8864 21.3435L19.81 21.4673L19.421 21.9966ZM20.2198 22.9039L20.1226 22.3059H19.1988L18.7612 22.9039H18.3652L20.1712 20.498L20.6297 22.9039H20.2268H20.2198Z" fill="#4D4C4E"/>
<path d="M20.8381 22.9044L21.1368 21.8458L20.6992 20.5879H21.0951L21.366 21.3784L21.3938 21.454L21.4147 21.564L21.4911 21.4609L21.5675 21.3646L22.2899 20.5879H22.6719L21.5119 21.8458L21.2132 22.9044H20.8381Z" fill="#4D4C4E"/>
<path d="M24.3044 21.7629C24.3044 21.7629 24.3113 21.6942 24.3252 21.6117C24.3322 21.543 24.3461 21.488 24.3461 21.4467L24.2627 21.6048L24.1516 21.7629L23.193 22.9933L22.936 21.7354L22.9152 21.5842V21.4398L22.8527 21.5911L22.7763 21.756L22.2067 22.8971H21.8594L23.0888 20.4844L23.3667 21.9416L23.3806 22.0585C23.3806 22.1135 23.3945 22.1754 23.4014 22.2578C23.4431 22.1891 23.4987 22.1066 23.582 22.0035L23.6306 21.9416L24.7142 20.4844L24.6031 22.8971H24.2488L24.3113 21.756L24.3044 21.7629Z" fill="#4D4C4E"/>
<path d="M24.9639 22.9044L25.6168 20.5879H26.9227L26.8324 20.911H25.9085L25.7418 21.4884H26.6726L26.5754 21.8183H25.6515L25.4431 22.5676H26.367L26.2697 22.9044H24.9639Z" fill="#4D4C4E"/>
<path d="M26.7705 22.9039L27.4512 20.498L28.5348 21.9141L28.6251 22.0447L28.7154 22.1959L29.1669 20.5874H29.5142L28.8404 22.9933L27.7291 21.5566L27.6457 21.4329L27.5763 21.2954L27.1248 22.9039H26.7705Z" fill="#4D4C4E"/>
<path d="M30.7854 20.911L30.2228 22.9044H29.8407L30.4034 20.911H29.7852L29.8755 20.5879H31.4939L31.4036 20.911H30.7854Z" fill="#4D4C4E"/>
<path d="M31.1954 22.4441L31.5358 22.3067C31.5358 22.4098 31.5635 22.4854 31.6261 22.5404C31.6886 22.5954 31.7789 22.6229 31.897 22.6229C32.0081 22.6229 32.1053 22.5885 32.1887 22.5266C32.2721 22.4648 32.3276 22.3823 32.3554 22.2792C32.3901 22.1417 32.3137 22.018 32.1192 21.9149L32.0567 21.8805C31.8344 21.7568 31.6955 21.6399 31.64 21.5437C31.5844 21.4406 31.5705 21.3237 31.6122 21.1725C31.6677 20.9869 31.7719 20.8288 31.9317 20.7119C32.0915 20.5951 32.279 20.5332 32.4874 20.5332C32.661 20.5332 32.793 20.5676 32.8903 20.6294C32.9875 20.6982 33.0431 20.7875 33.05 20.9113L32.7097 21.0625C32.6819 20.9869 32.6471 20.9388 32.5985 20.9044C32.5499 20.87 32.4943 20.8563 32.4179 20.8563C32.3137 20.8563 32.2304 20.8838 32.154 20.9319C32.0776 20.9869 32.0289 21.0556 32.0012 21.145C31.9595 21.2825 32.0567 21.4131 32.2859 21.5368L32.3276 21.5574C32.5291 21.6605 32.661 21.7636 32.7166 21.8667C32.7722 21.9698 32.7791 22.0936 32.7374 22.2448C32.6749 22.4648 32.5568 22.6366 32.3832 22.7672C32.2095 22.8978 32.0012 22.9597 31.765 22.9597C31.5635 22.9597 31.4177 22.9116 31.3135 22.8222C31.2093 22.7328 31.1676 22.6022 31.1746 22.4304L31.1954 22.4441Z" fill="#4D4C4E"/>
<path d="M36.2861 21.1509C36.2028 21.0616 36.1125 20.9928 36.0014 20.9447C35.8972 20.8966 35.7721 20.876 35.6402 20.876C35.3832 20.876 35.1539 20.9584 34.9456 21.1234C34.7372 21.2884 34.5982 21.4946 34.5288 21.7558C34.4593 22.0033 34.4802 22.2095 34.5913 22.3745C34.7024 22.5394 34.8761 22.6151 35.1123 22.6151C35.2512 22.6151 35.3901 22.5876 35.529 22.5394C35.6679 22.4913 35.8069 22.4157 35.9527 22.3195L35.8347 22.7457C35.7096 22.8213 35.5846 22.8694 35.4526 22.9106C35.3206 22.945 35.1887 22.9656 35.0428 22.9656C34.8622 22.9656 34.7094 22.9381 34.5705 22.8763C34.4315 22.8213 34.3273 22.7319 34.244 22.6219C34.1606 22.5119 34.112 22.3813 34.0912 22.2301C34.0703 22.0789 34.0912 21.9208 34.1329 21.7489C34.1815 21.5771 34.2579 21.419 34.3621 21.2678C34.4663 21.1165 34.5913 20.9859 34.7372 20.876C34.883 20.766 35.0428 20.6766 35.2095 20.6148C35.3762 20.5529 35.5499 20.5254 35.7235 20.5254C35.8624 20.5254 35.9875 20.546 36.0986 20.5873C36.2097 20.6285 36.3139 20.6835 36.4112 20.766L36.2861 21.144V21.1509Z" fill="#4D4C4E"/>
<path d="M38.5921 21.7567C38.6269 21.6398 38.6338 21.5298 38.6199 21.4267C38.606 21.3236 38.5713 21.2274 38.5157 21.1449C38.4602 21.0624 38.3838 21.0006 38.2935 20.9593C38.2032 20.9181 38.099 20.8906 37.9809 20.8906C37.8628 20.8906 37.7517 20.9112 37.6336 20.9524C37.5155 20.9937 37.4044 21.0555 37.3002 21.138C37.196 21.2205 37.1057 21.3099 37.0362 21.4199C36.9598 21.523 36.9112 21.6398 36.8764 21.7567C36.8417 21.8735 36.8348 21.9835 36.8487 22.0866C36.8626 22.1897 36.8973 22.286 36.9529 22.3685C37.0084 22.4509 37.0848 22.5128 37.1751 22.554C37.2654 22.5953 37.3696 22.6159 37.4877 22.6159C37.6058 22.6159 37.7169 22.5953 37.8281 22.554C37.9461 22.5128 38.0503 22.4441 38.1615 22.3685C38.2657 22.286 38.356 22.1897 38.4254 22.0866C38.4949 21.9835 38.5505 21.8735 38.5852 21.7567H38.5921ZM38.9881 21.7567C38.9394 21.9217 38.87 22.0798 38.7658 22.2241C38.6616 22.3685 38.5366 22.4991 38.3838 22.6159C38.2309 22.7328 38.0712 22.8153 37.9045 22.8771C37.7378 22.939 37.5711 22.9665 37.4044 22.9665C37.2376 22.9665 37.0848 22.939 36.9459 22.8771C36.807 22.8153 36.7028 22.7259 36.6125 22.6159C36.5222 22.4991 36.4736 22.3685 36.4527 22.2241C36.4319 22.0798 36.4458 21.9217 36.4944 21.7567C36.543 21.5917 36.6125 21.4336 36.7167 21.2893C36.8209 21.1449 36.9459 21.0143 37.0987 20.8974C37.2515 20.7806 37.4113 20.6981 37.578 20.6362C37.7447 20.5744 37.9184 20.5469 38.0851 20.5469C38.2518 20.5469 38.4046 20.5744 38.5366 20.6362C38.6685 20.6981 38.7797 20.7875 38.87 20.8974C38.9533 21.0143 39.0089 21.1449 39.0297 21.2961C39.0506 21.4405 39.0367 21.5986 38.995 21.7636L38.9881 21.7567Z" fill="#4D4C4E"/>
<path d="M39.8566 21.5777H39.9261C40.1275 21.5777 40.2664 21.5571 40.3498 21.509C40.4262 21.4609 40.4818 21.3784 40.5165 21.2615C40.5512 21.1309 40.5443 21.0416 40.4818 20.9934C40.4262 20.9453 40.3012 20.9178 40.1136 20.9178H40.0442L39.8566 21.5846V21.5777ZM39.7524 21.8664L39.4607 22.9044H39.1064L39.7594 20.5879H40.2873C40.4401 20.5879 40.5651 20.6016 40.6415 20.6154C40.7179 20.636 40.7874 20.6704 40.836 20.7185C40.8916 20.7735 40.9263 20.8491 40.9402 20.9385C40.9541 21.0278 40.9402 21.1241 40.9194 21.2272C40.8638 21.4128 40.7805 21.5571 40.6624 21.6602C40.5443 21.7633 40.3915 21.8252 40.2109 21.8458L40.7179 22.8975H40.2873L39.8011 21.8596H39.7594L39.7524 21.8664Z" fill="#4D4C4E"/>
<path d="M41.7601 21.5571H41.8573C42.0657 21.5571 42.2185 21.5365 42.2949 21.4884C42.3783 21.4403 42.4338 21.3646 42.4686 21.2478C42.5033 21.1241 42.4894 21.0347 42.4338 20.9866C42.3713 20.9385 42.2393 20.911 42.0379 20.911H41.9407L41.7601 21.5571ZM41.6489 21.8664L41.3572 22.9044H41.0029L41.6559 20.5879H42.2324C42.406 20.5879 42.5241 20.5948 42.6005 20.6154C42.6769 20.636 42.7395 20.6635 42.7881 20.7047C42.8436 20.7597 42.8853 20.8285 42.8992 20.9247C42.9131 21.0141 42.9062 21.1172 42.8784 21.2272C42.8506 21.3371 42.795 21.4403 42.7325 21.5296C42.663 21.619 42.5866 21.6946 42.4963 21.7496C42.4269 21.7908 42.3505 21.8183 42.2602 21.8389C42.1768 21.8527 42.0448 21.8664 41.8781 21.8664H41.6628H41.6489Z" fill="#4D4C4E"/>
<path d="M45.066 21.7567C45.1007 21.6398 45.1076 21.5298 45.0937 21.4267C45.0799 21.3236 45.0451 21.2274 44.9896 21.1449C44.934 21.0624 44.8576 21.0006 44.7673 20.9593C44.677 20.9181 44.5728 20.8906 44.4547 20.8906C44.3366 20.8906 44.2255 20.9112 44.1074 20.9524C43.9893 20.9937 43.8851 21.0555 43.774 21.138C43.6698 21.2205 43.5795 21.3099 43.51 21.4199C43.4406 21.523 43.385 21.6398 43.3503 21.7567C43.3155 21.8735 43.3086 21.9835 43.3225 22.0866C43.3364 22.1897 43.3711 22.286 43.4267 22.3685C43.4823 22.4509 43.5587 22.5128 43.649 22.554C43.7393 22.5953 43.8435 22.6159 43.9615 22.6159C44.0796 22.6159 44.1908 22.5953 44.3019 22.554C44.413 22.5128 44.5242 22.4441 44.6353 22.3685C44.7395 22.286 44.8298 22.1897 44.8993 22.0866C44.9687 21.9835 45.0243 21.8735 45.059 21.7567H45.066ZM45.4619 21.7567C45.4133 21.9217 45.3438 22.0798 45.2396 22.2241C45.1354 22.3685 45.0104 22.4991 44.8576 22.6159C44.7048 22.7328 44.545 22.8153 44.3783 22.8771C44.2116 22.939 44.0449 22.9665 43.8782 22.9665C43.7115 22.9665 43.5587 22.939 43.4197 22.8771C43.2878 22.8153 43.1766 22.7259 43.0863 22.6159C43.003 22.4991 42.9474 22.3685 42.9266 22.2241C42.9057 22.0798 42.9196 21.9217 42.9613 21.7567C43.0099 21.5917 43.0794 21.4336 43.1836 21.2893C43.2878 21.1449 43.4128 21.0143 43.5656 20.8974C43.7184 20.7806 43.8782 20.6981 44.0449 20.6362C44.2116 20.5744 44.3852 20.5469 44.552 20.5469C44.7187 20.5469 44.8715 20.5744 45.0035 20.6362C45.1354 20.6981 45.2466 20.7875 45.3369 20.8974C45.4202 21.0143 45.4758 21.1449 45.4966 21.2961C45.5175 21.4405 45.5036 21.5986 45.4619 21.7636V21.7567Z" fill="#4D4C4E"/>
<path d="M46.1984 21.5777H46.2679C46.4693 21.5777 46.6082 21.5571 46.6846 21.509C46.7611 21.4609 46.8236 21.3784 46.8514 21.2615C46.8861 21.1309 46.8791 21.0416 46.8166 20.9934C46.7611 20.9453 46.636 20.9178 46.4485 20.9178H46.379L46.1915 21.5846L46.1984 21.5777ZM46.0942 21.8664L45.8025 22.9044H45.4482L46.1012 20.5879H46.6291C46.7819 20.5879 46.9 20.6016 46.9833 20.6154C47.0667 20.636 47.1292 20.6704 47.1778 20.7185C47.2334 20.7735 47.2681 20.8491 47.289 20.9385C47.3029 21.0278 47.289 21.1241 47.2681 21.2272C47.2195 21.4128 47.1292 21.5571 47.0111 21.6602C46.893 21.7633 46.7402 21.8252 46.5596 21.8458L47.0667 22.8975H46.636L46.1498 21.8596H46.1081L46.0942 21.8664Z" fill="#4D4C4E"/>
<path d="M48.1575 21.9966H48.8104L48.7201 21.4673L48.7062 21.3504V21.2061L48.6229 21.3435L48.5465 21.4673L48.1575 21.9966ZM48.9563 22.9039L48.859 22.3059H47.9352L47.4976 22.9039H47.0947L48.9007 20.498L49.3592 22.9039H48.9563Z" fill="#4D4C4E"/>
<path d="M50.5189 20.911L49.9563 22.9044H49.5742L50.1369 20.911H49.5117L49.602 20.5879H51.2274L51.1371 20.911H50.5189Z" fill="#4D4C4E"/>
<path d="M50.9355 22.9044L51.5885 20.5879H51.9705L51.3176 22.9044H50.9355Z" fill="#4D4C4E"/>
<path d="M54.0619 21.7567C54.0966 21.6398 54.1035 21.5298 54.0896 21.4267C54.0758 21.3236 54.041 21.2274 53.9855 21.1449C53.9299 21.0624 53.8535 21.0006 53.7632 20.9593C53.6729 20.9181 53.5687 20.8906 53.4506 20.8906C53.3325 20.8906 53.2214 20.9112 53.1033 20.9524C52.9852 20.9937 52.881 21.0555 52.7768 21.138C52.6726 21.2205 52.5823 21.3099 52.5129 21.4199C52.4434 21.523 52.3879 21.6398 52.3531 21.7567C52.3184 21.8735 52.3114 21.9835 52.3253 22.0866C52.3392 22.1897 52.374 22.286 52.4295 22.3685C52.4851 22.4509 52.5615 22.5128 52.6518 22.554C52.7421 22.5953 52.8463 22.6159 52.9644 22.6159C53.0825 22.6159 53.1936 22.5953 53.3047 22.554C53.4159 22.5128 53.527 22.4441 53.6382 22.3685C53.7423 22.286 53.8326 22.1897 53.9021 22.0866C53.9716 21.9835 54.0271 21.8735 54.0619 21.7567ZM54.4578 21.7567C54.4092 21.9217 54.3397 22.0798 54.2355 22.2241C54.1313 22.3685 54.0063 22.4991 53.8535 22.6159C53.7007 22.7328 53.5409 22.8153 53.3742 22.8771C53.2075 22.939 53.0408 22.9665 52.8741 22.9665C52.7074 22.9665 52.5546 22.939 52.4156 22.8771C52.2767 22.8153 52.1725 22.7259 52.0822 22.6159C51.9919 22.4991 51.9433 22.3685 51.9225 22.2241C51.9016 22.0798 51.9155 21.9217 51.9641 21.7567C52.0128 21.5917 52.0822 21.4336 52.1864 21.2893C52.2906 21.1449 52.4156 21.0143 52.5685 20.8974C52.7213 20.7806 52.881 20.6981 53.0477 20.6362C53.2144 20.5744 53.3881 20.5469 53.5548 20.5469C53.7215 20.5469 53.8743 20.5744 54.0063 20.6362C54.1383 20.6981 54.2494 20.7875 54.3397 20.8974C54.43 21.0143 54.4786 21.1449 54.4995 21.2961C54.5203 21.4405 54.5064 21.5986 54.4647 21.7636L54.4578 21.7567Z" fill="#4D4C4E"/>
<path d="M54.4365 22.9039L55.1103 20.498L56.2008 21.9141L56.2911 22.0447L56.3745 22.1959L56.826 20.5874H57.1802L56.5065 22.9933L55.3881 21.5566L55.3117 21.4329L55.2353 21.2954L54.7838 22.9039H54.4365Z" fill="#4D4C4E"/>
<path d="M60.1185 21.7567C60.1532 21.6398 60.1602 21.5298 60.1463 21.4267C60.1324 21.3236 60.0977 21.2274 60.0421 21.1449C59.9865 21.0624 59.9101 21.0006 59.8198 20.9593C59.7295 20.9181 59.6253 20.8906 59.5072 20.8906C59.3892 20.8906 59.278 20.9112 59.1599 20.9524C59.0419 20.9937 58.9377 21.0555 58.8335 21.138C58.7293 21.2205 58.639 21.3099 58.5695 21.4199C58.5001 21.523 58.4445 21.6398 58.4098 21.7567C58.375 21.8735 58.3681 21.9835 58.382 22.0866C58.3959 22.1897 58.4306 22.286 58.4862 22.3685C58.5417 22.4509 58.6181 22.5128 58.7084 22.554C58.7987 22.5953 58.9029 22.6159 59.021 22.6159C59.1391 22.6159 59.2502 22.5953 59.3614 22.554C59.4795 22.5128 59.5837 22.4441 59.6948 22.3685C59.799 22.286 59.8893 22.1897 59.9587 22.0866C60.0282 21.9835 60.0838 21.8735 60.1185 21.7567ZM60.5144 21.7567C60.4658 21.9217 60.3963 22.0798 60.2922 22.2241C60.188 22.3685 60.0629 22.4991 59.9101 22.6159C59.7573 22.7328 59.5975 22.8153 59.4308 22.8771C59.2641 22.939 59.0974 22.9665 58.9307 22.9665C58.764 22.9665 58.6112 22.939 58.4723 22.8771C58.3403 22.8153 58.2292 22.7259 58.1389 22.6159C58.0555 22.4991 57.9999 22.3685 57.9791 22.2241C57.9583 22.0798 57.9722 21.9217 58.0208 21.7567C58.0694 21.5917 58.1389 21.4336 58.2431 21.2893C58.3472 21.1449 58.4723 21.0143 58.6251 20.8974C58.7779 20.7806 58.9377 20.6981 59.1044 20.6362C59.2711 20.5744 59.4378 20.5469 59.6114 20.5469C59.7851 20.5469 59.931 20.5744 60.0629 20.6362C60.1949 20.6981 60.306 20.7875 60.3963 20.8974C60.4797 21.0143 60.5353 21.1449 60.5561 21.2961C60.5769 21.4405 60.5631 21.5986 60.5144 21.7636V21.7567Z" fill="#4D4C4E"/>
<path d="M60.4932 22.9044L61.1461 20.5879H62.452L62.3617 20.911H61.4378L61.2711 21.4884H62.195L62.1047 21.8183H61.1808L60.8752 22.9044H60.4932Z" fill="#4D4C4E"/>
<path d="M63.21 22.9044L63.8559 20.5879H64.238L63.5851 22.9044H63.21Z" fill="#4D4C4E"/>
<path d="M63.9385 22.9039L64.6122 20.498L65.7028 21.9141L65.7861 22.0447L65.8764 22.1959L66.3279 20.5874H66.6752L66.0015 22.9933L64.8901 21.5566L64.8067 21.4329L64.7373 21.2954L64.2858 22.9039H63.9385Z" fill="#4D4C4E"/>
<path d="M66.9119 22.5676H67.2314C67.4051 22.5676 67.544 22.5538 67.6343 22.5332C67.7315 22.5126 67.8149 22.4713 67.8982 22.4163C68.0094 22.3407 68.0997 22.2514 68.1761 22.1345C68.2525 22.0245 68.3081 21.8939 68.3497 21.7496C68.3914 21.6052 68.4053 21.4746 68.3914 21.3578C68.3775 21.2478 68.3358 21.1515 68.2733 21.0828C68.2247 21.0278 68.1552 20.9866 68.0719 20.966C67.9885 20.9453 67.8427 20.9316 67.6482 20.9316H67.3703L66.9119 22.5676ZM66.4326 22.9044L67.0856 20.5879H67.5996C67.933 20.5879 68.1622 20.6016 68.2872 20.636C68.4123 20.6704 68.5164 20.7254 68.5998 20.801C68.704 20.9041 68.7735 21.0347 68.7943 21.1928C68.8221 21.3509 68.8012 21.5365 68.7457 21.7427C68.6901 21.9489 68.5998 22.1276 68.4887 22.2857C68.3706 22.4438 68.2317 22.5744 68.0719 22.6776C67.9469 22.7532 67.8149 22.8082 67.676 22.8425C67.537 22.8769 67.3287 22.8906 67.0508 22.8906H66.4326V22.9044Z" fill="#4D4C4E"/>
<path d="M68.6689 22.9044L69.3149 20.5879H69.697L69.051 22.9044H68.6689Z" fill="#4D4C4E"/>
<path d="M70.343 21.9966H70.996L70.9057 21.4673L70.8918 21.3504V21.2061L70.8084 21.3435L70.732 21.4673L70.343 21.9966ZM71.1418 22.9039L71.0446 22.3059H70.1138L69.6762 22.9039H69.2803L71.0863 20.498L71.5447 22.9039H71.1418Z" fill="#4D4C4E"/>
</g>
<defs>
<clipPath id="clip0_808_15745">
<rect width="75.9" height="23" fill="white"/>
</clipPath>
</defs>
</svg>
