<svg width="223" height="296" viewBox="0 0 223 296" fill="none" xmlns="http://www.w3.org/2000/svg">
<g clip-path="url(#clip0_959_11126)">
<g clip-path="url(#clip1_959_11126)">
<path d="M124.738 291.938L208.892 226.519C211.777 224.275 212.33 220.076 210.126 217.139L103.411 74.9123C101.207 71.9753 97.0817 71.4127 94.1962 73.6558L10.0424 139.075C7.15689 141.319 6.60421 145.518 8.80795 148.455L115.523 290.682C117.727 293.619 121.852 294.181 124.738 291.938Z" fill="#343B46"/>
<path d="M86.5361 183.917L95.2197 195.49L104.687 188.131L96.0032 176.557L86.5361 183.917Z" fill="white"/>
<path d="M143.771 262.24L93.7703 195.594C93.5471 195.297 93.59 194.878 93.8732 194.668L104.438 186.457C104.713 186.238 105.125 186.308 105.348 186.605L155.349 253.251C155.572 253.548 155.529 253.967 155.246 254.177L144.681 262.388C144.406 262.607 143.994 262.537 143.771 262.24Z" fill="#DDDDDC"/>
<path d="M166.389 186.338L147.53 200.999C145.179 202.826 144.729 206.247 146.524 208.64L168.027 237.299C169.823 239.692 173.183 240.15 175.534 238.323L194.393 223.662C196.744 221.834 197.194 218.414 195.399 216.021L173.895 187.362C172.1 184.969 168.739 184.511 166.389 186.338Z" fill="#DDDDDC"/>
<path d="M97.509 190.317L97.0687 190.659L96.3104 189.649L100.146 186.667L100.517 187.161L97.1218 189.801L97.509 190.317ZM99.1729 186.187C98.4707 186.012 97.9078 185.885 97.4843 185.806C97.0573 185.729 96.6524 185.701 96.2695 185.72C95.8804 185.739 95.5638 185.844 95.3198 186.033C95.0899 186.212 94.9525 186.41 94.9077 186.626C94.8566 186.842 94.9252 187.075 95.1134 187.326C95.2962 187.569 95.5148 187.7 95.769 187.718C96.0171 187.735 96.2707 187.651 96.5299 187.467L96.8848 187.94C96.4779 188.234 96.0805 188.35 95.6927 188.288C95.3049 188.226 94.9752 188.015 94.7036 187.653C94.4267 187.284 94.3083 186.913 94.3486 186.541C94.3862 186.166 94.5819 185.841 94.9356 185.566C95.2291 185.338 95.5829 185.205 95.9967 185.167C96.4043 185.128 96.799 185.139 97.1806 185.199C97.5586 185.263 98.0191 185.362 98.5621 185.496L97.1747 183.647L97.5779 183.333L99.5178 185.919L99.1729 186.187ZM107.937 182.193L107.571 182.478L103.577 182.595L103.138 182.01L105.663 180.046L105.26 179.509L105.679 179.183L106.082 179.721L106.936 179.056L107.299 179.54L106.445 180.204L107.937 182.193ZM103.988 182.08L107.095 181.955L106.01 180.509L103.988 182.08Z" fill="black"/>
<path d="M24.4875 127.831L11.9033 137.613L126.599 290.476L139.183 280.693L24.4875 127.831Z" fill="black"/>
<path opacity="0.23" d="M218.661 219.33L175.011 34.227C174.127 30.4706 170.42 28.1556 166.729 29.0554L113.364 42.0892L111.922 42.4386L96.8943 46.1077L57.175 55.8131C57.175 55.8131 57.175 55.8131 57.1664 55.8131L55.6903 56.1713C52.1372 57.0362 49.9487 60.679 50.7983 64.2956L94.5685 249.896C95.4181 253.513 98.997 255.741 102.55 254.876L115.75 251.652L117.612 251.198L213.58 227.751C217.271 226.851 219.545 223.069 218.661 219.312V219.33Z" fill="black"/>
<path d="M215.458 214.193L105.869 240.974C102.18 241.875 98.4565 239.56 97.5689 235.797L53.9263 50.7625C53.0327 46.9739 55.3284 43.1607 59.0504 42.2512L168.599 15.4808C172.287 14.5795 176.002 16.8968 176.888 20.6514L220.545 205.745C221.43 209.5 219.153 213.281 215.465 214.183L215.458 214.193Z" fill="#343B46"/>
<path d="M199.915 204.058L196.754 203.698L196.595 203.041L200.832 203.622L200.947 204.093L199.915 204.058ZM197.309 205.991L199.953 204.232L200.858 203.728L200.972 204.2L197.47 206.655L197.309 205.991ZM196.633 200.83L200.281 201.343L200.433 201.971L196.177 201.317L196.08 200.915L196.633 200.83ZM199.685 198.885L196.66 201.003L196.143 201.174L196.044 200.768L199.534 198.26L199.685 198.885ZM198.275 199.321L198.78 199.199L199.337 201.498L198.832 201.62L198.275 199.321ZM198.283 195.3L198.788 195.177L199.293 197.263L198.788 197.386L198.283 195.3ZM195.387 198.051L199.257 197.114L199.405 197.729L195.535 198.666L195.387 198.051ZM194.612 194.852L198.482 193.915L198.631 194.529L194.761 195.467L194.612 194.852ZM197.967 191.789L198.18 192.666L197.674 192.785L197.462 191.911C197.393 191.625 197.283 191.401 197.131 191.239C196.978 191.074 196.792 190.969 196.573 190.924C196.351 190.879 196.104 190.89 195.831 190.956L195.612 191.009C195.402 191.06 195.221 191.131 195.07 191.224C194.919 191.317 194.801 191.429 194.715 191.56C194.627 191.691 194.574 191.842 194.554 192.011C194.533 192.177 194.547 192.361 194.596 192.563L194.823 193.5L194.314 193.623L194.088 192.686C194.021 192.411 194.004 192.151 194.035 191.904C194.064 191.655 194.14 191.43 194.262 191.227C194.382 191.024 194.544 190.851 194.748 190.708C194.95 190.565 195.191 190.46 195.47 190.392L195.683 190.341C196.052 190.251 196.394 190.252 196.706 190.343C197.019 190.431 197.284 190.599 197.503 190.846C197.72 191.091 197.875 191.406 197.967 191.789ZM194.228 193.267L198.098 192.33L198.247 192.945L194.377 193.882L194.228 193.267ZM204.761 202.773L208.631 201.836L208.779 202.447L204.909 203.384L204.761 202.773ZM204.44 201.447L204.948 201.324L205.736 204.58L205.228 204.703L204.44 201.447ZM205.341 197.702L205.849 197.579L206.39 199.814L205.882 199.937L205.341 197.702ZM204.145 200.228L208.015 199.291L208.164 199.905L204.294 200.843L204.145 200.228ZM203.51 197.607L207.38 196.67L207.529 197.284L203.659 198.221L203.51 197.607ZM203.287 196.687L202.945 195.272C202.888 195.037 202.864 194.821 202.872 194.624C202.879 194.428 202.917 194.255 202.986 194.105C203.055 193.954 203.155 193.829 203.285 193.73C203.415 193.628 203.576 193.554 203.766 193.508C203.957 193.462 204.135 193.459 204.303 193.501C204.467 193.541 204.618 193.62 204.754 193.74C204.888 193.857 205.006 194.008 205.107 194.192L205.24 194.353L205.557 195.662L205.054 195.791L204.814 194.801C204.769 194.613 204.702 194.464 204.615 194.354C204.525 194.244 204.422 194.171 204.308 194.133C204.19 194.093 204.069 194.089 203.942 194.119C203.803 194.153 203.688 194.212 203.599 194.297C203.509 194.382 203.451 194.496 203.424 194.638C203.395 194.779 203.405 194.949 203.453 195.148L203.646 195.946L207.008 195.132L207.157 195.75L203.287 196.687ZM206.574 193.341L205.092 194.755L204.931 194.108L206.381 192.688L206.414 192.68L206.574 193.341ZM201.832 190.677L201.683 190.059L204.274 189.432C204.566 189.361 204.829 189.371 205.062 189.463C205.292 189.552 205.486 189.701 205.642 189.91C205.797 190.116 205.908 190.359 205.976 190.638C206.046 190.928 206.059 191.2 206.016 191.454C205.971 191.707 205.866 191.923 205.702 192.104C205.534 192.285 205.305 192.411 205.012 192.482L202.421 193.109L202.274 192.501L204.865 191.874C205.056 191.828 205.204 191.752 205.309 191.646C205.413 191.539 205.477 191.41 205.504 191.258C205.528 191.107 205.518 190.941 205.474 190.759C205.43 190.575 205.363 190.423 205.272 190.302C205.179 190.179 205.063 190.094 204.923 190.049C204.78 190.003 204.614 190.004 204.424 190.05L201.832 190.677Z" fill="white"/>
<path d="M195.134 181.998L203.455 179.914L203.719 180.966L196.71 182.721L198.014 184.647L197.065 184.885L195.175 182.163L195.134 181.998ZM200.46 171.616L201.324 171.4L202.68 176.817L201.924 177.006L198.227 175.05C197.772 174.81 197.393 174.631 197.09 174.513C196.782 174.393 196.517 174.323 196.294 174.302C196.067 174.278 195.845 174.294 195.629 174.348C195.356 174.416 195.124 174.535 194.933 174.703C194.737 174.869 194.599 175.077 194.521 175.326C194.442 175.575 194.441 175.853 194.518 176.16C194.61 176.528 194.759 176.816 194.965 177.027C195.166 177.234 195.408 177.367 195.693 177.424C195.977 177.482 196.284 177.47 196.613 177.387L196.877 178.439C196.411 178.555 195.959 178.56 195.521 178.452C195.083 178.344 194.7 178.118 194.372 177.773C194.041 177.429 193.801 176.964 193.654 176.376C193.523 175.853 193.504 175.383 193.597 174.965C193.686 174.548 193.872 174.2 194.157 173.919C194.436 173.636 194.797 173.438 195.241 173.327C195.483 173.267 195.74 173.247 196.011 173.268C196.277 173.285 196.551 173.336 196.834 173.418C197.115 173.496 197.399 173.601 197.685 173.73C197.97 173.856 198.255 173.996 198.539 174.151L201.499 175.765L200.46 171.616ZM191.821 168.572L201.671 169.773L201.898 170.676L192.046 169.47L191.821 168.572ZM197.616 160.26L198.48 160.043L199.837 165.46L199.081 165.649L195.384 163.694C194.929 163.453 194.55 163.274 194.247 163.157C193.939 163.037 193.673 162.966 193.451 162.945C193.223 162.922 193.002 162.937 192.786 162.991C192.513 163.06 192.281 163.178 192.089 163.347C191.893 163.513 191.756 163.72 191.678 163.969C191.599 164.218 191.598 164.497 191.675 164.803C191.767 165.171 191.916 165.46 192.122 165.67C192.322 165.878 192.565 166.01 192.849 166.068C193.134 166.126 193.44 166.113 193.77 166.031L194.033 167.082C193.567 167.199 193.115 167.203 192.678 167.095C192.24 166.988 191.857 166.761 191.529 166.417C191.197 166.073 190.958 165.607 190.811 165.02C190.68 164.497 190.661 164.026 190.754 163.609C190.843 163.192 191.029 162.843 191.313 162.563C191.593 162.279 191.954 162.082 192.397 161.971C192.64 161.91 192.897 161.89 193.168 161.911C193.434 161.929 193.708 161.979 193.99 162.061C194.272 162.14 194.556 162.244 194.842 162.374C195.127 162.5 195.412 162.64 195.696 162.794L198.655 164.409L197.616 160.26ZM188.901 156.957L188.878 156.866L189.771 156.643L189.794 156.734C189.933 157.291 190.141 157.734 190.416 158.064C190.688 158.394 191.004 158.631 191.362 158.775C191.716 158.92 192.093 158.995 192.493 158.999C192.892 159 193.285 158.952 193.671 158.855L194.887 158.551C195.255 158.459 195.57 158.334 195.832 158.175C196.091 158.018 196.298 157.839 196.453 157.639C196.608 157.44 196.712 157.232 196.763 157.018C196.813 156.8 196.812 156.587 196.76 156.379C196.699 156.136 196.599 155.932 196.461 155.765C196.319 155.599 196.148 155.473 195.949 155.386C195.746 155.296 195.52 155.246 195.271 155.235C195.023 155.225 194.761 155.254 194.484 155.324C194.238 155.385 194.009 155.475 193.796 155.593C193.58 155.711 193.399 155.855 193.252 156.025C193.102 156.195 192.999 156.388 192.944 156.603C192.884 156.816 192.887 157.05 192.951 157.308C193.024 157.6 193.165 157.855 193.372 158.073C193.575 158.288 193.813 158.448 194.084 158.553C194.352 158.655 194.623 158.684 194.897 158.639L195.031 159.197C194.593 159.251 194.207 159.243 193.872 159.174C193.531 159.102 193.24 158.982 192.996 158.813C192.748 158.642 192.546 158.432 192.392 158.185C192.233 157.935 192.115 157.658 192.039 157.355C191.936 156.942 191.924 156.567 192.005 156.228C192.085 155.89 192.232 155.592 192.445 155.333C192.654 155.075 192.91 154.86 193.213 154.688C193.512 154.512 193.831 154.382 194.173 154.296C194.563 154.199 194.942 154.162 195.311 154.187C195.679 154.211 196.02 154.301 196.333 154.456C196.644 154.608 196.912 154.825 197.136 155.107C197.359 155.389 197.524 155.74 197.629 156.161C197.741 156.608 197.748 157.021 197.65 157.4C197.547 157.78 197.37 158.119 197.118 158.415C196.867 158.712 196.567 158.962 196.219 159.166C195.872 159.37 195.504 159.52 195.118 159.617L194.623 159.74C194.04 159.887 193.453 159.971 192.863 159.994C192.273 160.017 191.714 159.941 191.187 159.767C190.659 159.589 190.197 159.276 189.798 158.828C189.4 158.38 189.101 157.757 188.901 156.957Z" fill="white"/>
<path d="M117.621 238.086C117.621 238.086 130.031 185.601 117.269 156.782C104.164 127.159 103.941 118.274 105.357 103.554C106.893 87.5592 112.317 66.0429 113.793 28.8721L57.5614 42.6135C54.0083 43.4783 51.8197 47.1212 52.6694 50.7378L96.4396 236.339C97.2892 239.955 100.868 242.183 104.421 241.318L117.621 238.095V238.086Z" fill="url(#paint0_linear_959_11126)"/>
<path d="M108.392 224.899L108.744 226.305L107.857 226.527L107.505 225.121C107.451 224.904 107.371 224.736 107.266 224.617C107.159 224.499 107.033 224.425 106.888 224.394C106.744 224.363 106.59 224.368 106.429 224.408C106.265 224.449 106.12 224.519 105.994 224.618C105.868 224.716 105.78 224.845 105.728 225.002C105.676 225.16 105.678 225.348 105.732 225.565L105.985 226.577L110.612 225.419L110.897 226.555L105.379 227.937L104.841 225.788C104.733 225.356 104.719 224.966 104.798 224.619C104.875 224.27 105.029 223.979 105.26 223.746C105.492 223.514 105.784 223.354 106.135 223.266C106.491 223.177 106.82 223.181 107.121 223.281C107.422 223.38 107.683 223.567 107.902 223.842C108.12 224.115 108.284 224.467 108.392 224.899ZM107.87 218.229L108.756 218.007L109.452 220.784L108.565 221.006L107.87 218.229ZM103.842 221.798L109.36 220.417L109.644 221.553L104.127 222.935L103.842 221.798ZM103.439 216.181L108.388 216.536L108.691 217.745L102.66 217.077L102.468 216.307L103.439 216.181ZM107.7 213.789L103.503 216.439L102.59 216.796L102.396 216.019L107.397 212.577L107.7 213.789ZM105.664 214.372L106.554 214.149L107.284 217.063L106.393 217.286L105.664 214.372ZM101.252 211.449L106.769 210.068L107.052 211.201L101.535 212.582L101.252 211.449ZM100.826 209.752L101.717 209.529L102.844 214.031L101.954 214.254L100.826 209.752ZM100.362 207.895L105.879 206.514L106.163 207.647L100.645 209.028L100.362 207.895ZM98.9708 202.34L104.488 200.959L104.773 202.095L101.629 205.238L105.328 204.312L105.612 205.449L100.095 206.83L99.8104 205.694L102.957 202.546L99.2545 203.473L98.9708 202.34ZM97.9604 198.304L97.6768 197.171L101.322 196.259C101.746 196.152 102.127 196.154 102.463 196.263C102.798 196.37 103.079 196.564 103.305 196.845C103.531 197.125 103.695 197.47 103.798 197.882C103.901 198.294 103.92 198.678 103.854 199.036C103.787 199.391 103.631 199.695 103.386 199.95C103.14 200.202 102.805 200.381 102.381 200.488L98.7355 201.4L98.4509 200.263L102.096 199.351C102.344 199.289 102.536 199.199 102.673 199.082C102.81 198.964 102.897 198.823 102.933 198.658C102.969 198.491 102.962 198.306 102.912 198.104C102.86 197.897 102.779 197.73 102.67 197.605C102.56 197.476 102.417 197.394 102.241 197.357C102.065 197.318 101.853 197.33 101.606 197.392L97.9604 198.304ZM97.3125 195.716L97.0715 194.754L100.767 192.322L96.3619 191.919L96.1209 190.957L102.137 191.569L102.331 192.342L97.3125 195.716ZM97.4424 196.235L97.2024 195.277L101.107 194.114L102.676 193.721L102.96 194.854L97.4424 196.235ZM96.2309 191.397L95.99 190.434L101.507 189.053L101.792 190.19L100.223 190.582L96.2309 191.397Z" fill="white"/>
<path d="M170.727 52.2707L175.615 51.0469L175.792 51.7517L170.115 53.1729L169.954 52.5287L170.727 52.2707ZM171.263 49.201L171.343 49.181C171.641 49.1064 171.926 49.0725 172.199 49.0794C172.469 49.0868 172.715 49.1354 172.936 49.225C173.157 49.3121 173.343 49.4412 173.496 49.6123C173.649 49.7834 173.758 49.9965 173.821 50.2517C173.887 50.5119 173.901 50.7525 173.865 50.9736C173.829 51.1947 173.747 51.3952 173.617 51.5753C173.488 51.7553 173.319 51.9158 173.11 52.0567C172.9 52.1951 172.655 52.3155 172.374 52.418L171.95 52.5242C171.639 52.5698 171.354 52.5809 171.093 52.5577C170.832 52.5344 170.6 52.4757 170.396 52.3817C170.19 52.2858 170.018 52.1503 169.88 51.9754C169.74 51.8012 169.637 51.5852 169.573 51.3275C169.508 51.0698 169.501 50.8286 169.552 50.6037C169.601 50.3795 169.7 50.1761 169.851 49.9935C170.001 49.8109 170.196 49.6532 170.437 49.5205C170.674 49.3859 170.95 49.2794 171.263 49.201ZM171.519 49.8858L171.439 49.9058C171.235 49.957 171.048 50.0265 170.88 50.1144C170.709 50.2029 170.566 50.3097 170.452 50.4348C170.336 50.558 170.256 50.6988 170.212 50.8574C170.166 51.0166 170.167 51.1921 170.215 51.3841C170.259 51.561 170.328 51.7075 170.422 51.8237C170.515 51.9373 170.624 52.0266 170.751 52.0917C170.874 52.1573 171.009 52.2027 171.155 52.2279C171.298 52.2513 171.442 52.2594 171.588 52.2524L172.57 52.0067C172.734 51.9119 172.883 51.7994 173.017 51.6693C173.148 51.5398 173.243 51.3872 173.301 51.2116C173.356 51.0366 173.355 50.8342 173.298 50.6043C173.25 50.4148 173.17 50.2617 173.058 50.1449C172.942 50.0262 172.804 49.94 172.643 49.8864C172.481 49.8302 172.305 49.8031 172.115 49.8051C171.922 49.8077 171.724 49.8346 171.519 49.8858ZM169.492 47.9491L172.948 47.0839L173.123 47.7849L169.023 48.8114L168.852 48.1293L169.492 47.9491ZM168.504 46.8353L169.157 46.6759C169.159 46.7372 169.165 46.7946 169.176 46.8483C169.184 46.9001 169.196 46.9588 169.212 47.0245C169.253 47.1862 169.314 47.3226 169.395 47.4337C169.477 47.5449 169.574 47.632 169.686 47.6951C169.798 47.7582 169.924 47.7993 170.063 47.8182C170.199 47.8352 170.343 47.8326 170.496 47.8104L170.659 47.979C170.412 48.041 170.173 48.0752 169.944 48.0816C169.714 48.0854 169.503 48.0565 169.31 47.9946C169.115 47.9334 168.951 47.835 168.817 47.6992C168.681 47.5616 168.585 47.3816 168.529 47.1593C168.516 47.1088 168.508 47.0491 168.504 46.9802C168.498 46.912 168.498 46.8637 168.504 46.8353ZM172.134 43.5105C172.205 43.796 172.222 44.0669 172.184 44.3234C172.143 44.5779 172.055 44.8107 171.92 45.0217C171.784 45.2302 171.606 45.409 171.386 45.5581C171.166 45.7073 170.911 45.8179 170.623 45.89L170.464 45.9298C170.131 46.0133 169.822 46.0384 169.537 46.005C169.249 45.9723 168.993 45.894 168.769 45.7703C168.545 45.6466 168.359 45.4891 168.212 45.2977C168.065 45.1064 167.962 44.8958 167.905 44.6659C167.831 44.3729 167.819 44.1076 167.867 43.8701C167.914 43.6301 168.011 43.4191 168.159 43.2372C168.304 43.0558 168.491 42.9017 168.72 42.7746C168.946 42.6482 169.203 42.549 169.491 42.4769L169.805 42.3981L170.572 45.4599L170 45.6031L169.409 43.2424L169.356 43.2557C169.176 43.3113 169.009 43.3935 168.854 43.5022C168.698 43.6084 168.582 43.7448 168.505 43.9116C168.429 44.0784 168.421 44.2817 168.481 44.5217C168.521 44.6809 168.591 44.8189 168.693 44.9357C168.792 45.0531 168.92 45.1434 169.075 45.2065C169.23 45.2696 169.41 45.304 169.612 45.3096C169.815 45.3152 170.04 45.287 170.288 45.225L170.447 45.1852C170.641 45.1365 170.818 45.0641 170.976 44.968C171.132 44.8701 171.261 44.7532 171.364 44.6174C171.466 44.479 171.535 44.3261 171.571 44.1588C171.606 43.9888 171.6 43.8079 171.552 43.6159C171.49 43.3683 171.387 43.1713 171.243 43.0248C171.099 42.8783 170.926 42.7619 170.725 42.6754L170.956 42.1666C171.112 42.2215 171.267 42.3019 171.423 42.408C171.578 42.5141 171.719 42.6574 171.844 42.838C171.97 43.016 172.066 43.2402 172.134 43.5105ZM167.966 41.2439L172.854 40.02L173.031 40.7249L167.354 42.146L167.193 41.5018L167.966 41.2439ZM168.502 38.1741L168.582 38.1542C168.88 38.0796 169.165 38.0457 169.438 38.0525C169.709 38.06 169.954 38.1086 170.175 38.1982C170.396 38.2853 170.583 38.4143 170.735 38.5855C170.888 38.7566 170.997 38.9697 171.061 39.2248C171.126 39.485 171.14 39.7257 171.104 39.9468C171.069 40.1678 170.986 40.3684 170.856 40.5484C170.727 40.7285 170.558 40.889 170.349 41.0299C170.139 41.1683 169.894 41.2887 169.614 41.3911L169.189 41.4974C168.879 41.543 168.593 41.5541 168.332 41.5308C168.071 41.5075 167.839 41.4489 167.636 41.3548C167.429 41.2589 167.257 41.1235 167.119 40.9486C166.979 40.7743 166.876 40.5583 166.812 40.3007C166.747 40.043 166.741 39.8017 166.792 39.5769C166.84 39.3526 166.94 39.1492 167.09 38.9666C167.24 38.784 167.436 38.6264 167.676 38.4937C167.914 38.3591 168.189 38.2525 168.502 38.1741ZM168.758 38.859L168.679 38.8789C168.474 38.9301 168.288 38.9997 168.119 39.0875C167.948 39.176 167.805 39.2828 167.692 39.4079C167.575 39.5311 167.495 39.672 167.451 39.8305C167.405 39.9897 167.406 40.1653 167.454 40.3573C167.499 40.5341 167.567 40.6806 167.661 40.7968C167.754 40.9105 167.863 40.9998 167.99 41.0648C168.114 41.1305 168.248 41.1759 168.394 41.2011C168.537 41.2244 168.681 41.2326 168.827 41.2256L169.809 40.9799C169.973 40.8851 170.122 40.7726 170.256 40.6424C170.387 40.5129 170.482 40.3604 170.54 40.1847C170.595 40.0098 170.594 39.8073 170.537 39.5775C170.489 39.388 170.409 39.2349 170.297 39.1181C170.181 38.9994 170.043 38.9132 169.882 38.8596C169.72 38.8034 169.544 38.7763 169.354 38.7783C169.162 38.7809 168.963 38.8078 168.758 38.859ZM169.056 34.516L166.946 35.0444C166.784 35.0849 166.652 35.1528 166.55 35.2483C166.444 35.3418 166.375 35.4612 166.341 35.6064C166.308 35.7517 166.315 35.9191 166.362 36.1086C166.407 36.2854 166.476 36.4332 166.57 36.5519C166.663 36.6681 166.769 36.7517 166.886 36.8028C167.003 36.8514 167.119 36.8615 167.232 36.833L167.408 37.534C167.261 37.5707 167.107 37.5692 166.944 37.5295C166.781 37.4897 166.623 37.4137 166.472 37.3013C166.317 37.187 166.18 37.0387 166.062 36.8562C165.941 36.6718 165.849 36.4558 165.787 36.2082C165.713 35.9101 165.697 35.6348 165.742 35.3821C165.785 35.1269 165.893 34.9093 166.065 34.7292C166.235 34.5473 166.472 34.418 166.778 34.3415L168.687 33.8634C168.824 33.8292 168.966 33.7815 169.115 33.7201C169.262 33.6563 169.386 33.5865 169.485 33.5106L169.546 33.4955L169.729 34.2268C169.657 34.2824 169.556 34.3371 169.428 34.3908C169.296 34.4452 169.172 34.4869 169.056 34.516ZM167.241 34.8416L167.732 34.7107L167.909 35.4193C167.959 35.6188 168.02 35.7928 168.092 35.9412C168.162 36.0903 168.241 36.2099 168.331 36.3002C168.421 36.3905 168.521 36.4514 168.631 36.4829C168.738 36.5151 168.855 36.5154 168.981 36.4838C169.11 36.4515 169.22 36.3931 169.312 36.3084C169.403 36.2237 169.466 36.1154 169.5 35.9834C169.531 35.8495 169.525 35.6966 169.482 35.5248C169.428 35.3101 169.335 35.132 169.203 34.9906C169.071 34.8492 168.927 34.7469 168.772 34.6838C168.616 34.6181 168.475 34.597 168.349 34.6204L168.612 34.2367C168.722 34.2278 168.852 34.2464 169 34.2924C169.149 34.3385 169.299 34.4123 169.45 34.514C169.599 34.6137 169.735 34.7434 169.858 34.9032C169.978 35.0611 170.066 35.2511 170.121 35.4734C170.191 35.7513 170.198 36.0087 170.142 36.2456C170.085 36.4799 169.98 36.678 169.827 36.8397C169.671 36.9996 169.48 37.1079 169.252 37.1649C169.032 37.2199 168.828 37.2253 168.64 37.1812C168.449 37.1377 168.278 37.049 168.127 36.9151C167.973 36.7819 167.838 36.6089 167.723 36.3961C167.608 36.1833 167.515 35.9367 167.445 35.6563L167.241 34.8416ZM165.015 32.8016L169.115 31.7751L169.291 32.4799L165.191 33.5064L165.015 32.8016ZM164.117 33.8318C164.003 33.8602 163.899 33.8502 163.804 33.8016C163.708 33.7504 163.642 33.6567 163.608 33.5203C163.575 33.3864 163.588 33.2742 163.649 33.1839C163.709 33.091 163.796 33.0304 163.909 33.0019C164.018 32.9747 164.121 32.9879 164.217 33.0416C164.311 33.0934 164.374 33.1862 164.408 33.3201C164.442 33.4565 164.43 33.5695 164.372 33.6593C164.311 33.7471 164.226 33.8046 164.117 33.8318ZM167.39 28.2646L162.366 29.5226L162.189 28.8178L168.01 27.3606L168.171 28.0048L167.39 28.2646ZM166.872 31.3259L166.793 31.3458C166.479 31.4242 166.186 31.4575 165.912 31.4456C165.634 31.4318 165.386 31.3772 165.166 31.2819C164.946 31.1841 164.761 31.049 164.614 30.8766C164.462 30.7024 164.356 30.4927 164.295 30.2477C164.23 29.99 164.22 29.7538 164.263 29.539C164.302 29.3224 164.391 29.1256 164.529 28.9487C164.665 28.7699 164.842 28.6113 165.063 28.4729C165.283 28.3345 165.541 28.2122 165.837 28.106L166.185 28.0187C166.493 27.9713 166.777 27.9579 167.037 27.9786C167.297 27.9969 167.528 28.053 167.731 28.147C167.934 28.2386 168.105 28.3702 168.245 28.5419C168.382 28.7143 168.483 28.9306 168.548 29.1908C168.609 29.4308 168.612 29.6635 168.558 29.889C168.504 30.112 168.401 30.3189 168.25 30.5097C168.099 30.698 167.907 30.8629 167.674 31.0044C167.437 31.1441 167.17 31.2513 166.872 31.3259ZM166.616 30.641L166.696 30.6211C166.9 30.5698 167.087 30.5016 167.257 30.4162C167.425 30.3284 167.567 30.2232 167.681 30.1006C167.795 29.978 167.874 29.8387 167.919 29.6827C167.96 29.5273 167.957 29.3549 167.91 29.1654C167.852 28.933 167.755 28.7546 167.619 28.6303C167.482 28.5034 167.322 28.4147 167.137 28.3642C166.953 28.3137 166.76 28.287 166.558 28.2839L165.644 28.5125C165.513 28.5776 165.39 28.6553 165.276 28.7457C165.159 28.8342 165.061 28.9365 164.982 29.0528C164.901 29.1671 164.846 29.2976 164.819 29.4441C164.79 29.5881 164.798 29.7485 164.842 29.9254C164.891 30.1174 164.972 30.2727 165.088 30.3914C165.2 30.5082 165.337 30.5934 165.498 30.6471C165.657 30.7013 165.832 30.7272 166.025 30.7246C166.215 30.7201 166.412 30.6922 166.616 30.641Z" fill="white"/>
<g clip-path="url(#clip2_959_11126)">
<rect x="138.495" y="221.5" width="27.6" height="21.4667" rx="2.00278" transform="rotate(-102.052 138.495 221.5)" fill="url(#paint1_linear_959_11126)"/>
<path d="M135.566 207.785L143.401 206.112" stroke="#2D2304" stroke-width="0.300416" stroke-linecap="round"/>
<path d="M150.257 204.654L157.112 203.191" stroke="#2D2304" stroke-width="0.300416" stroke-linecap="round"/>
<path d="M143.545 201.99L139.771 198.7L138.516 192.824" stroke="#2D2304" stroke-width="0.300416" stroke-linecap="round"/>
<path d="M145.504 201.567L143.413 191.774" stroke="#2D2304" stroke-width="0.300416" stroke-linecap="round"/>
<path d="M148.441 200.939L150.648 196.885L149.288 190.519" stroke="#2D2304" stroke-width="0.300416" stroke-linecap="round"/>
<rect x="145.123" y="208.665" width="6.7093" height="4.70652" transform="rotate(-102.052 145.123 208.665)" stroke="#2D2304" stroke-width="0.300416"/>
<path d="M149.906 207.799L153.086 210.704L154.863 219.028" stroke="#2D2304" stroke-width="0.300416" stroke-linecap="round"/>
<path d="M145.008 208.844L142.488 211.43L144.579 221.223" stroke="#2D2304" stroke-width="0.300416" stroke-linecap="round"/>
<path d="M147.457 208.321L149.966 220.073" stroke="#2D2304" stroke-width="0.300416" stroke-linecap="round"/>
</g>
<g clip-path="url(#clip3_959_11126)">
<path d="M144.789 149.158C144.785 149.446 144.715 149.714 144.526 149.936C144.207 150.309 143.803 150.449 143.327 150.327C142.948 150.231 142.572 150.112 142.194 150.02C140.448 149.604 138.682 149.441 136.892 149.553C136.183 149.597 135.476 149.684 134.777 149.809C134.15 149.922 133.533 150.062 132.925 150.24C131.248 150.736 129.669 151.449 128.201 152.403C127.347 152.955 126.543 153.574 125.796 154.267C125.407 154.625 124.97 154.734 124.471 154.53C124.192 154.415 124.003 154.197 123.867 153.927L123.776 153.526C123.782 153.154 123.907 152.843 124.184 152.588C125.293 151.568 126.497 150.679 127.797 149.926C129.335 149.034 130.961 148.354 132.677 147.897C133.625 147.642 134.583 147.449 135.559 147.34C136.387 147.247 137.216 147.193 138.044 147.195C139.996 147.203 141.904 147.49 143.776 148.039C144.186 148.158 144.511 148.359 144.696 148.752L144.788 149.153L144.789 149.158Z" fill="white"/>
<path d="M133.7 165.232C133.412 165.232 133.148 165.162 132.918 164.975C132.379 164.541 132.324 163.765 132.801 163.26C133.419 162.609 134.129 162.095 134.932 161.702C135.509 161.423 136.11 161.211 136.74 161.094C138.102 160.84 139.433 160.949 140.733 161.433C141.218 161.614 141.499 161.967 141.518 162.49C141.536 162.987 141.301 163.35 140.861 163.581C140.846 163.589 140.831 163.601 140.815 163.609L140.414 163.7C140.212 163.694 140.022 163.642 139.832 163.576C138.835 163.233 137.824 163.189 136.804 163.474C135.956 163.707 135.223 164.14 134.601 164.752C134.447 164.901 134.296 165.04 134.105 165.14L133.7 165.232Z" fill="white"/>
<path d="M134.513 152.367C136.809 151.856 139.11 151.827 141.416 152.312C141.901 152.414 142.376 152.532 142.85 152.681C143.371 152.845 143.699 153.328 143.663 153.859C143.628 154.393 143.24 154.83 142.71 154.93C142.509 154.967 142.313 154.946 142.12 154.886C141.18 154.599 140.219 154.414 139.238 154.333C138.319 154.259 137.404 154.272 136.488 154.381C135.936 154.446 135.387 154.541 134.847 154.673C133.025 155.123 131.356 155.9 129.849 157.024C129.45 157.32 129.077 157.649 128.703 157.978C128.104 158.502 127.207 158.31 126.874 157.594C126.668 157.153 126.768 156.616 127.134 156.272C127.801 155.645 128.519 155.089 129.284 154.588C130.205 153.986 131.174 153.481 132.198 153.082C132.717 152.877 133.247 152.699 133.784 152.551C134.026 152.487 134.268 152.423 134.512 152.363" fill="white"/>
<path d="M135.458 156.844C137.415 156.41 139.36 156.441 141.301 156.952C141.439 156.986 141.575 157.029 141.711 157.067C142.189 157.215 142.516 157.659 142.525 158.153C142.527 158.662 142.223 159.102 141.756 159.269C141.514 159.355 141.271 159.358 141.028 159.287C140.211 159.047 139.377 158.902 138.521 158.871C137.929 158.854 137.339 158.884 136.753 158.97C136.277 159.039 135.807 159.137 135.351 159.276C134.101 159.657 132.96 160.249 131.947 161.077C131.786 161.209 131.635 161.348 131.473 161.481C130.809 162.042 129.808 161.739 129.589 160.896C129.478 160.464 129.588 160.069 129.918 159.763C130.831 158.914 131.851 158.233 132.976 157.702C133.605 157.406 134.251 157.163 134.924 156.983C135.104 156.933 135.282 156.893 135.462 156.843" fill="white"/>
<path d="M137.912 171.298L135.813 177.404C135.727 177.659 135.719 177.909 135.773 178.145C135.89 178.658 136.307 179.073 136.831 179.175L137.738 176.547C138.071 175.582 138.863 174.87 139.86 174.643C140.858 174.415 141.879 174.713 142.598 175.438L144.555 177.412C144.983 177.093 145.179 176.538 145.062 176.025C145.009 175.793 144.892 175.567 144.7 175.376L140.16 170.786C139.453 170.072 138.244 170.347 137.917 171.298" fill="#078141"/>
<path d="M139.231 177.062L137.13 183.163C137.045 183.418 137.036 183.668 137.09 183.904C137.247 184.591 137.943 185.103 138.717 184.926L145.361 183.41C146.135 183.234 146.541 182.475 146.383 181.783C146.33 181.552 146.213 181.326 146.022 181.134L141.482 176.544C140.774 175.83 139.566 176.106 139.238 177.056" fill="#EE7326"/>
</g>
<path d="M173.973 206.968L174.836 206.75L176.344 212.727L175.725 212.883L169.058 210.625L168.842 209.767L170.733 210.269L175.18 211.752L173.973 206.968ZM168.776 209.506L177.048 207.419L177.313 208.47L169.041 210.557L168.776 209.506ZM170.411 201.328L171.672 201.01C172.35 200.839 172.937 200.755 173.433 200.759C173.93 200.762 174.349 200.842 174.69 200.998C175.032 201.153 175.307 201.376 175.517 201.665C175.723 201.952 175.876 202.296 175.977 202.697C176.057 203.015 176.092 203.319 176.08 203.608C176.068 203.897 176.003 204.171 175.883 204.431C175.758 204.688 175.573 204.928 175.327 205.152C175.082 205.375 174.766 205.577 174.381 205.759C173.996 205.941 173.532 206.1 172.991 206.237L171.729 206.555C171.051 206.726 170.468 206.809 169.979 206.803C169.489 206.794 169.077 206.71 168.744 206.553C168.406 206.396 168.136 206.174 167.935 205.887C167.733 205.595 167.581 205.251 167.481 204.853C167.4 204.531 167.365 204.226 167.377 203.937C167.383 203.645 167.445 203.371 167.562 203.116C167.675 202.862 167.854 202.626 168.097 202.407C168.335 202.186 168.645 201.985 169.026 201.804C169.407 201.623 169.869 201.465 170.411 201.328ZM172.109 202.024L170.501 202.429C170.13 202.523 169.81 202.628 169.541 202.744C169.268 202.857 169.041 202.981 168.861 203.115C168.681 203.249 168.545 203.396 168.453 203.556C168.359 203.713 168.305 203.882 168.291 204.063C168.271 204.241 168.287 204.432 168.339 204.637C168.402 204.887 168.505 205.096 168.648 205.266C168.788 205.436 168.975 205.562 169.209 205.644C169.442 205.722 169.73 205.754 170.073 205.74C170.416 205.726 170.821 205.66 171.287 205.543L172.894 205.137C173.266 205.043 173.588 204.94 173.862 204.826C174.134 204.709 174.364 204.581 174.55 204.441C174.732 204.303 174.874 204.154 174.975 203.996C175.076 203.837 175.138 203.668 175.162 203.489C175.18 203.307 175.164 203.116 175.114 202.915C175.049 202.658 174.943 202.445 174.795 202.276C174.648 202.108 174.454 201.986 174.213 201.91C173.968 201.831 173.672 201.8 173.326 201.819C172.977 201.839 172.571 201.907 172.109 202.024ZM168.759 194.783L170.021 194.465C170.699 194.294 171.286 194.21 171.782 194.214C172.279 194.218 172.698 194.297 173.039 194.453C173.38 194.608 173.656 194.831 173.866 195.12C174.071 195.407 174.225 195.751 174.326 196.152C174.406 196.471 174.44 196.774 174.429 197.063C174.417 197.352 174.351 197.627 174.232 197.886C174.107 198.143 173.922 198.384 173.676 198.607C173.43 198.83 173.115 199.032 172.73 199.214C172.344 199.396 171.881 199.555 171.339 199.692L170.078 200.01C169.4 200.181 168.817 200.264 168.328 200.258C167.838 200.249 167.426 200.165 167.092 200.008C166.755 199.851 166.485 199.629 166.284 199.342C166.081 199.05 165.93 198.706 165.829 198.308C165.748 197.986 165.714 197.681 165.725 197.392C165.732 197.1 165.794 196.827 165.911 196.571C166.024 196.317 166.202 196.081 166.445 195.863C166.683 195.641 166.993 195.44 167.375 195.259C167.756 195.079 168.218 194.92 168.759 194.783ZM170.458 195.479L168.85 195.884C168.479 195.978 168.159 196.083 167.89 196.199C167.616 196.312 167.39 196.436 167.21 196.57C167.03 196.704 166.894 196.851 166.802 197.011C166.708 197.168 166.654 197.337 166.639 197.518C166.62 197.696 166.636 197.887 166.687 198.092C166.75 198.342 166.854 198.551 166.997 198.721C167.137 198.891 167.324 199.017 167.558 199.099C167.791 199.177 168.079 199.209 168.422 199.195C168.765 199.181 169.169 199.115 169.635 198.998L171.243 198.592C171.614 198.498 171.937 198.395 172.21 198.282C172.483 198.164 172.712 198.036 172.899 197.896C173.081 197.758 173.223 197.609 173.324 197.451C173.425 197.292 173.487 197.123 173.51 196.944C173.529 196.762 173.513 196.571 173.462 196.37C173.397 196.113 173.291 195.9 173.144 195.732C172.997 195.563 172.803 195.441 172.562 195.365C172.316 195.286 172.021 195.256 171.675 195.274C171.325 195.294 170.92 195.362 170.458 195.479ZM167.108 188.238L168.369 187.92C169.047 187.749 169.634 187.665 170.131 187.669C170.627 187.673 171.046 187.752 171.388 187.908C171.729 188.063 172.005 188.286 172.215 188.575C172.42 188.862 172.573 189.206 172.675 189.608C172.755 189.926 172.789 190.229 172.777 190.518C172.766 190.807 172.7 191.082 172.58 191.342C172.456 191.599 172.271 191.839 172.025 192.062C171.779 192.285 171.463 192.487 171.078 192.669C170.693 192.851 170.23 193.01 169.688 193.147L168.427 193.465C167.749 193.636 167.165 193.719 166.676 193.713C166.187 193.704 165.775 193.621 165.441 193.463C165.103 193.307 164.834 193.084 164.632 192.797C164.43 192.506 164.279 192.161 164.178 191.763C164.097 191.441 164.062 191.136 164.074 190.847C164.081 190.555 164.143 190.282 164.26 190.027C164.373 189.772 164.551 189.536 164.794 189.318C165.032 189.096 165.342 188.895 165.723 188.715C166.105 188.534 166.566 188.375 167.108 188.238ZM168.806 188.934L167.198 189.339C166.827 189.433 166.507 189.538 166.238 189.654C165.965 189.768 165.738 189.891 165.559 190.025C165.379 190.159 165.243 190.306 165.15 190.467C165.057 190.623 165.003 190.792 164.988 190.973C164.968 191.151 164.984 191.342 165.036 191.547C165.099 191.797 165.202 192.006 165.346 192.176C165.485 192.346 165.672 192.472 165.907 192.554C166.14 192.632 166.428 192.664 166.771 192.65C167.114 192.636 167.518 192.57 167.984 192.453L169.592 192.047C169.963 191.954 170.285 191.85 170.559 191.737C170.832 191.62 171.061 191.491 171.247 191.351C171.43 191.213 171.572 191.064 171.673 190.906C171.774 190.747 171.836 190.579 171.859 190.399C171.878 190.218 171.862 190.026 171.811 189.825C171.746 189.568 171.64 189.355 171.493 189.187C171.346 189.018 171.152 188.896 170.911 188.82C170.665 188.741 170.369 188.711 170.024 188.729C169.674 188.749 169.268 188.817 168.806 188.934ZM160.916 178.548L169.234 176.45L169.499 177.501L162.494 179.268L163.801 181.192L162.853 181.432L160.958 178.713L160.916 178.548ZM166.223 168.157L167.087 167.939L168.453 173.354L167.697 173.544L163.997 171.595C163.541 171.356 163.162 171.177 162.859 171.061C162.55 170.941 162.285 170.871 162.062 170.851C161.835 170.827 161.613 170.843 161.397 170.897C161.125 170.966 160.893 171.085 160.702 171.254C160.506 171.421 160.369 171.628 160.291 171.878C160.213 172.127 160.213 172.405 160.29 172.712C160.383 173.079 160.532 173.368 160.738 173.578C160.939 173.785 161.182 173.917 161.466 173.974C161.751 174.031 162.058 174.018 162.387 173.935L162.652 174.986C162.187 175.104 161.735 175.109 161.297 175.002C160.859 174.895 160.476 174.669 160.147 174.325C159.815 173.982 159.574 173.517 159.426 172.93C159.294 172.407 159.275 171.937 159.366 171.519C159.455 171.102 159.64 170.753 159.924 170.472C160.203 170.188 160.564 169.99 161.007 169.878C161.25 169.817 161.506 169.796 161.777 169.817C162.043 169.834 162.318 169.884 162.6 169.965C162.882 170.044 163.166 170.147 163.452 170.276C163.738 170.402 164.023 170.541 164.307 170.695L167.27 172.304L166.223 168.157ZM161.763 166.454L161.574 165.704C161.481 165.337 161.344 165.049 161.162 164.841C160.976 164.63 160.762 164.493 160.521 164.429C160.274 164.362 160.016 164.363 159.748 164.431C159.429 164.511 159.176 164.631 158.987 164.792C158.798 164.952 158.675 165.153 158.618 165.392C158.562 165.632 158.575 165.915 158.657 166.241C158.732 166.536 158.856 166.783 159.031 166.98C159.201 167.175 159.408 167.31 159.653 167.385C159.897 167.457 160.162 167.456 160.45 167.384L160.716 168.435C160.295 168.541 159.886 168.531 159.488 168.406C159.089 168.281 158.74 168.053 158.439 167.722C158.137 167.387 157.922 166.966 157.794 166.459C157.668 165.959 157.646 165.499 157.73 165.079C157.809 164.66 157.997 164.302 158.293 164.006C158.585 163.711 158.989 163.498 159.504 163.368C159.712 163.316 159.948 163.309 160.211 163.347C160.47 163.382 160.727 163.476 160.984 163.629C161.239 163.779 161.473 163.997 161.687 164.286C161.897 164.575 162.059 164.945 162.173 165.396L162.399 166.294L161.763 166.454ZM162.626 166.236L161.996 166.396L161.769 165.498C161.636 164.971 161.589 164.52 161.627 164.144C161.665 163.768 161.763 163.455 161.922 163.205C162.08 162.952 162.274 162.754 162.503 162.611C162.729 162.466 162.964 162.362 163.21 162.3C163.597 162.203 163.956 162.182 164.289 162.24C164.621 162.293 164.921 162.412 165.189 162.599C165.457 162.781 165.684 163.018 165.87 163.309C166.056 163.6 166.197 163.934 166.292 164.309C166.382 164.668 166.417 165.02 166.395 165.364C166.372 165.704 166.294 166.02 166.162 166.311C166.026 166.603 165.834 166.853 165.584 167.061C165.331 167.27 165.02 167.421 164.653 167.514L164.388 166.463C164.675 166.39 164.912 166.264 165.096 166.085C165.279 165.901 165.402 165.677 165.464 165.412C165.521 165.143 165.509 164.848 165.428 164.526C165.347 164.205 165.222 163.942 165.054 163.739C164.881 163.532 164.665 163.395 164.406 163.328C164.147 163.256 163.844 163.264 163.5 163.351C163.155 163.438 162.891 163.581 162.708 163.781C162.521 163.981 162.407 164.227 162.368 164.519C162.324 164.808 162.347 165.13 162.437 165.486L162.626 166.236ZM160.957 155.381L161.821 155.163L163.329 161.14L162.709 161.296L156.042 159.039L155.826 158.181L157.717 158.683L162.164 160.165L160.957 155.381ZM155.76 157.919L164.032 155.832L164.297 156.883L156.025 158.97L155.76 157.919ZM157.043 144.73L157.039 145.625L152.816 146.25L151.745 142.006L152.716 141.761L153.562 145.113L155.875 144.795C155.75 144.666 155.62 144.495 155.486 144.283C155.351 144.067 155.245 143.808 155.169 143.505C155.072 143.122 155.052 142.763 155.108 142.426C155.161 142.091 155.281 141.787 155.47 141.513C155.658 141.236 155.908 140.998 156.22 140.798C156.532 140.599 156.899 140.446 157.319 140.34C157.717 140.239 158.096 140.202 158.457 140.228C158.817 140.25 159.15 140.337 159.454 140.49C159.755 140.644 160.015 140.868 160.234 141.163C160.453 141.455 160.618 141.822 160.73 142.265C160.814 142.598 160.848 142.926 160.833 143.248C160.813 143.567 160.738 143.868 160.607 144.151C160.473 144.431 160.282 144.68 160.035 144.9C159.783 145.116 159.469 145.292 159.092 145.428L158.84 144.428C159.139 144.304 159.378 144.147 159.555 143.957C159.733 143.767 159.849 143.549 159.904 143.301C159.953 143.051 159.941 142.778 159.866 142.483C159.803 142.233 159.704 142.022 159.568 141.851C159.432 141.68 159.266 141.549 159.07 141.457C158.873 141.366 158.651 141.315 158.403 141.305C158.154 141.291 157.885 141.321 157.597 141.394C157.336 141.459 157.103 141.557 156.897 141.685C156.692 141.813 156.524 141.97 156.394 142.156C156.262 142.339 156.177 142.543 156.138 142.771C156.095 142.999 156.107 143.246 156.174 143.511C156.262 143.863 156.377 144.119 156.518 144.276C156.657 144.431 156.832 144.582 157.043 144.73ZM150.363 136.577L150.34 136.487L151.232 136.262L151.255 136.352C151.396 136.909 151.604 137.352 151.881 137.681C152.153 138.011 152.469 138.248 152.827 138.391C153.182 138.535 153.559 138.609 153.959 138.613C154.358 138.613 154.75 138.565 155.137 138.467L156.352 138.16C156.72 138.068 157.035 137.942 157.297 137.783C157.555 137.625 157.762 137.446 157.916 137.246C158.071 137.046 158.174 136.839 158.225 136.624C158.275 136.406 158.273 136.193 158.221 135.985C158.16 135.742 158.06 135.538 157.921 135.372C157.778 135.206 157.608 135.08 157.409 134.993C157.205 134.904 156.979 134.854 156.73 134.844C156.482 134.834 156.22 134.864 155.943 134.934C155.697 134.996 155.468 135.086 155.256 135.204C155.04 135.323 154.859 135.467 154.713 135.637C154.562 135.808 154.46 136.001 154.406 136.216C154.346 136.429 154.349 136.664 154.414 136.921C154.488 137.213 154.629 137.467 154.836 137.685C155.04 137.899 155.277 138.059 155.549 138.164C155.817 138.265 156.088 138.294 156.363 138.248L156.497 138.807C156.06 138.861 155.673 138.853 155.338 138.785C154.997 138.714 154.705 138.594 154.461 138.426C154.213 138.255 154.011 138.046 153.856 137.799C153.696 137.549 153.578 137.273 153.502 136.97C153.398 136.557 153.386 136.182 153.465 135.843C153.545 135.505 153.691 135.206 153.904 134.947C154.113 134.689 154.369 134.473 154.671 134.3C154.969 134.124 155.289 133.993 155.63 133.907C156.02 133.809 156.399 133.771 156.768 133.795C157.136 133.819 157.477 133.908 157.79 134.063C158.102 134.214 158.37 134.43 158.595 134.712C158.819 134.994 158.984 135.345 159.09 135.766C159.203 136.212 159.21 136.626 159.113 137.005C159.011 137.385 158.835 137.723 158.583 138.021C158.332 138.318 158.033 138.568 157.685 138.773C157.338 138.977 156.971 139.128 156.585 139.226L156.091 139.35C155.507 139.498 154.921 139.583 154.33 139.607C153.74 139.631 153.182 139.557 152.654 139.383C152.126 139.206 151.663 138.894 151.264 138.447C150.865 138 150.565 137.377 150.363 136.577ZM148.392 128.717L148.983 128.568L157.529 130.056L157.808 131.164L149.537 129.613L150.666 134.09L149.803 134.308L148.392 128.717ZM152.807 120.781C153.311 120.654 153.769 120.663 154.18 120.809C154.587 120.952 154.931 121.2 155.214 121.551C155.495 121.9 155.698 122.322 155.823 122.818C155.948 123.314 155.97 123.784 155.889 124.227C155.807 124.671 155.621 125.052 155.331 125.371C155.037 125.691 154.639 125.915 154.135 126.042C153.805 126.125 153.488 126.138 153.184 126.082C152.875 126.023 152.589 125.904 152.326 125.724C152.063 125.541 151.836 125.304 151.646 125.014C151.451 124.721 151.305 124.381 151.207 123.995C151.079 123.487 151.063 123.01 151.16 122.562C151.253 122.116 151.441 121.736 151.725 121.423C152.007 121.106 152.368 120.892 152.807 120.781ZM153.051 121.843C152.745 121.921 152.49 122.055 152.289 122.247C152.084 122.44 151.945 122.672 151.873 122.944C151.8 123.216 151.804 123.51 151.883 123.824C151.964 124.146 152.101 124.408 152.293 124.609C152.484 124.807 152.715 124.94 152.986 125.008C153.253 125.078 153.54 125.074 153.847 124.996C154.165 124.916 154.422 124.785 154.618 124.602C154.809 124.417 154.935 124.192 154.997 123.927C155.054 123.658 155.042 123.361 154.96 123.036C154.877 122.71 154.748 122.444 154.571 122.239C154.391 122.035 154.173 121.899 153.918 121.83C153.658 121.759 153.369 121.763 153.051 121.843ZM148.976 121.953C149.377 121.852 149.766 121.866 150.141 121.997C150.517 122.128 150.844 122.354 151.122 122.675C151.4 122.995 151.598 123.388 151.716 123.854C151.835 124.328 151.849 124.773 151.757 125.191C151.664 125.606 151.483 125.957 151.213 126.247C150.944 126.537 150.609 126.732 150.207 126.833C149.726 126.955 149.291 126.954 148.901 126.83C148.511 126.703 148.18 126.479 147.909 126.156C147.638 125.834 147.444 125.438 147.325 124.968C147.206 124.494 147.189 124.052 147.274 123.639C147.359 123.227 147.544 122.874 147.829 122.581C148.112 122.284 148.495 122.074 148.976 121.953ZM149.258 123C148.982 123.069 148.752 123.19 148.57 123.361C148.387 123.532 148.262 123.737 148.193 123.975C148.12 124.215 148.119 124.474 148.189 124.75C148.259 125.026 148.379 125.254 148.548 125.433C148.714 125.609 148.917 125.729 149.159 125.792C149.4 125.853 149.666 125.846 149.958 125.772C150.242 125.701 150.475 125.581 150.659 125.414C150.841 125.243 150.965 125.039 151.03 124.801C151.095 124.563 151.092 124.306 151.022 124.029C150.953 123.753 150.833 123.527 150.664 123.352C150.494 123.173 150.288 123.052 150.047 122.988C149.805 122.924 149.542 122.928 149.258 123ZM151.382 109.405L151.354 109.297C151.201 108.691 150.992 108.22 150.726 107.884C150.46 107.549 150.157 107.315 149.818 107.183C149.478 107.051 149.119 106.993 148.74 107.008C148.357 107.024 147.975 107.08 147.592 107.176L146.325 107.496C145.95 107.591 145.628 107.718 145.358 107.879C145.088 108.036 144.873 108.215 144.714 108.416C144.555 108.614 144.448 108.82 144.393 109.035C144.339 109.25 144.338 109.464 144.392 109.676C144.453 109.918 144.557 110.124 144.704 110.292C144.847 110.458 145.022 110.585 145.229 110.673C145.436 110.758 145.666 110.805 145.918 110.814C146.17 110.823 146.434 110.792 146.71 110.723C146.957 110.66 147.188 110.57 147.403 110.451C147.619 110.332 147.804 110.187 147.958 110.015C148.112 109.843 148.221 109.651 148.284 109.437C148.342 109.221 148.339 108.986 148.275 108.732C148.216 108.498 148.115 108.289 147.972 108.108C147.825 107.923 147.652 107.772 147.453 107.653C147.249 107.531 147.032 107.449 146.804 107.406C146.575 107.359 146.346 107.356 146.119 107.397L145.993 106.897C146.307 106.818 146.634 106.802 146.972 106.849C147.306 106.894 147.625 106.995 147.93 107.152C148.236 107.308 148.502 107.515 148.728 107.772C148.95 108.03 149.105 108.334 149.193 108.682C149.296 109.091 149.306 109.465 149.222 109.805C149.139 110.144 148.989 110.444 148.772 110.704C148.555 110.96 148.295 111.177 147.994 111.354C147.687 111.528 147.365 111.657 147.028 111.742C146.634 111.842 146.251 111.88 145.879 111.857C145.506 111.834 145.162 111.748 144.846 111.598C144.527 111.449 144.253 111.234 144.025 110.953C143.796 110.668 143.629 110.316 143.522 109.895C143.403 109.422 143.396 108.995 143.501 108.614C143.606 108.232 143.792 107.898 144.057 107.609C144.322 107.317 144.641 107.071 145.014 106.872C145.387 106.673 145.783 106.521 146.204 106.415L146.584 106.319C147.012 106.211 147.455 106.129 147.912 106.074C148.365 106.017 148.812 106.015 149.253 106.069C149.692 106.119 150.108 106.25 150.5 106.461C150.888 106.673 151.234 106.991 151.538 107.414C151.837 107.834 152.073 108.386 152.246 109.072L152.274 109.18L151.382 109.405ZM144.769 99.7004L146.031 99.3822C146.709 99.2111 147.296 99.1274 147.792 99.1311C148.289 99.1347 148.708 99.2144 149.049 99.3699C149.39 99.5255 149.666 99.748 149.876 100.037C150.081 100.324 150.235 100.668 150.336 101.07C150.416 101.388 150.451 101.691 150.439 101.98C150.427 102.269 150.361 102.544 150.242 102.804C150.117 103.061 149.932 103.301 149.686 103.524C149.44 103.747 149.125 103.95 148.74 104.131C148.354 104.313 147.891 104.472 147.349 104.609L146.088 104.927C145.41 105.098 144.827 105.181 144.338 105.175C143.848 105.166 143.436 105.083 143.102 104.925C142.765 104.769 142.495 104.547 142.294 104.259C142.091 103.968 141.94 103.623 141.84 103.225C141.758 102.903 141.724 102.598 141.735 102.309C141.742 102.017 141.804 101.744 141.921 101.489C142.034 101.234 142.212 100.998 142.455 100.78C142.694 100.559 143.003 100.357 143.385 100.177C143.766 99.9958 144.228 99.8371 144.769 99.7004ZM146.468 100.396L144.86 100.802C144.489 100.895 144.169 101 143.9 101.116C143.626 101.23 143.4 101.353 143.22 101.487C143.04 101.621 142.904 101.768 142.812 101.929C142.718 102.085 142.664 102.254 142.649 102.435C142.63 102.613 142.646 102.804 142.697 103.009C142.761 103.259 142.864 103.469 143.007 103.638C143.147 103.808 143.334 103.934 143.568 104.016C143.801 104.094 144.089 104.126 144.432 104.112C144.775 104.098 145.18 104.032 145.645 103.915L147.253 103.509C147.624 103.416 147.947 103.312 148.22 103.199C148.493 103.082 148.722 102.953 148.909 102.814C149.091 102.675 149.233 102.526 149.334 102.368C149.435 102.209 149.497 102.041 149.521 101.862C149.539 101.68 149.523 101.488 149.472 101.288C149.407 101.03 149.301 100.817 149.154 100.649C149.007 100.48 148.813 100.358 148.572 100.282C148.327 100.203 148.031 100.173 147.685 100.191C147.336 100.211 146.93 100.279 146.468 100.396ZM140.034 95.7827L148.352 93.6842L148.617 94.7352L141.612 96.5026L142.919 98.4268L141.97 98.6662L140.076 95.9475L140.034 95.7827ZM145.341 85.3914L146.204 85.1735L147.571 90.5878L146.815 90.7785L143.114 88.8296C142.659 88.59 142.28 88.4118 141.976 88.2949C141.668 88.1753 141.403 88.1053 141.18 88.0849C140.953 88.0617 140.731 88.0774 140.515 88.1318C140.242 88.2006 140.011 88.3196 139.819 88.4886C139.624 88.6548 139.487 88.8626 139.409 89.112C139.331 89.3613 139.33 89.6394 139.408 89.9462C139.5 90.3135 139.65 90.6022 139.856 90.8121C140.057 91.0191 140.3 91.1512 140.584 91.2084C140.869 91.2656 141.176 91.2526 141.505 91.1694L141.77 92.2205C141.304 92.338 140.852 92.3433 140.415 92.2362C139.977 92.1292 139.593 91.9036 139.265 91.5594C138.932 91.2162 138.692 90.7511 138.544 90.164C138.412 89.6414 138.392 89.171 138.484 88.753C138.572 88.336 138.758 87.9869 139.042 87.7059C139.321 87.422 139.682 87.2241 140.125 87.1123C140.367 87.0512 140.624 87.0307 140.895 87.051C141.161 87.0684 141.436 87.118 141.718 87.1998C142 87.2778 142.284 87.3814 142.57 87.5106C142.856 87.636 143.141 87.7756 143.425 87.9294L146.387 89.5388L145.341 85.3914Z" fill="white"/>
<g filter="url(#filter0_d_959_11126)">
<path d="M112.403 29.4049C110.112 72.4986 105.031 85.8819 104.327 105.275C103.701 122.424 103.332 128.058 115.948 157.114C128.564 186.16 116.343 238.4 116.343 238.409L119.484 237.64C119.484 237.64 133.121 189.296 118.617 154.519C108.85 131.098 106.911 118.431 108.267 101.755C110.12 78.9282 114.128 74.2021 115.235 28.5313L112.403 29.4224L118.128 27.9023L112.403 29.4224V29.4049Z" fill="url(#paint2_linear_959_11126)"/>
</g>
<path d="M162.077 69.4476C162.103 69.2903 162.112 69.1506 162.146 69.0108C162.215 68.6788 162.404 68.4604 162.712 68.3381C162.824 68.2944 162.927 68.242 163.047 68.2246C163.322 68.1983 163.588 68.1896 163.863 68.1809C164.223 68.1809 164.583 68.1983 164.944 68.1983C165.081 68.1983 165.219 68.1896 165.356 68.1721C165.459 68.1547 165.553 68.1285 165.579 67.9887C165.673 67.9887 165.768 67.9887 165.862 67.9974C165.879 67.9974 165.897 68.0236 165.905 68.0324C165.914 68.0498 165.914 68.076 165.922 68.1023C166.12 68.9496 166.326 69.797 166.523 70.6444C166.523 70.6793 166.54 70.7055 166.549 70.7579C166.394 70.7841 166.24 70.8191 166.094 70.8278C165.871 70.8453 165.656 70.854 165.433 70.854C165.107 70.854 164.781 70.8278 164.446 70.8191C164.352 70.8191 164.249 70.8191 164.146 70.8366C163.785 70.9152 163.648 71.1598 163.674 71.5092C163.682 71.6665 163.717 71.8237 163.751 71.9722C163.828 72.3216 163.914 72.6623 163.991 73.0118C164.008 73.0729 164.026 73.0904 164.086 73.0904C164.274 73.0904 164.463 73.0991 164.652 73.1079C164.961 73.1253 165.27 73.1428 165.579 73.1603C165.836 73.1778 166.103 73.1865 166.36 73.204C166.592 73.2214 166.832 73.2302 167.064 73.2476C167.115 73.2476 167.132 73.2651 167.141 73.3175C167.158 73.4049 167.184 73.4922 167.201 73.5796C167.381 74.3309 167.553 75.0822 167.733 75.8334L167.759 75.9557C167.604 75.947 167.467 75.9295 167.33 75.9208C167.167 75.9121 167.004 75.9121 166.849 75.9033C166.446 75.8859 166.042 75.8596 165.639 75.8422C165.347 75.8247 165.064 75.8072 164.772 75.7985C164.472 75.781 164.172 75.7636 163.871 75.7461C163.579 75.7286 163.296 75.7111 163.004 75.7024C162.704 75.6849 162.404 75.6675 162.103 75.65C161.811 75.6325 161.528 75.615 161.236 75.6063C160.936 75.5888 160.636 75.5714 160.335 75.5539C160.026 75.5364 159.726 75.5189 159.417 75.5015C159.202 75.4927 158.988 75.4753 158.765 75.4665C158.722 75.4665 158.696 75.4491 158.687 75.4054C158.687 75.4054 158.687 75.3966 158.687 75.3879C158.344 73.9116 157.992 72.4439 157.649 70.9676C157.537 70.4784 157.477 69.9892 157.503 69.4825C157.512 69.2117 157.563 68.9409 157.683 68.6963C157.812 68.4342 158.009 68.2508 158.275 68.1372C158.713 67.9537 159.168 67.9275 159.631 67.9625C159.769 67.9712 159.906 67.9887 160.043 68.0236C160.258 68.076 160.472 68.1285 160.67 68.2158C161.202 68.4517 161.623 68.8186 161.957 69.2991C161.992 69.3427 162.017 69.3864 162.06 69.4301L162.077 69.4476ZM161.974 72.9768C161.949 72.8545 161.923 72.741 161.897 72.6361C161.786 72.1906 161.683 71.7451 161.562 71.3083C161.502 71.0899 161.399 70.889 161.219 70.7492C160.902 70.5046 160.541 70.4697 160.164 70.5745C160.043 70.6094 159.94 70.6968 159.923 70.8366C159.906 70.9501 159.889 71.0724 159.915 71.186C160.026 71.7363 160.146 72.2867 160.267 72.8371C160.267 72.8633 160.309 72.8895 160.344 72.8982C160.421 72.9069 160.498 72.9069 160.575 72.9069C160.79 72.9069 160.996 72.9157 161.211 72.9332C161.459 72.9506 161.717 72.9681 161.983 72.9856L161.974 72.9768Z" fill="white"/>
<path d="M163.965 59.8123C163.879 59.8035 163.819 59.7861 163.751 59.7861C163.51 59.7773 163.278 59.7686 163.038 59.7599C162.729 59.7424 162.42 59.7249 162.111 59.7075C161.828 59.69 161.553 59.6812 161.27 59.6638C160.961 59.6463 160.652 59.6288 160.343 59.6114C160.06 59.5939 159.785 59.5764 159.502 59.5677C159.193 59.5502 158.884 59.5327 158.575 59.5153C158.292 59.4978 158 59.4891 157.717 59.4716C157.391 59.4541 157.073 59.4366 156.747 59.4192C156.464 59.4017 156.172 59.393 155.889 59.3755C155.589 59.358 155.288 59.3405 154.979 59.3231C154.919 59.3231 154.893 59.2969 154.885 59.2357C154.576 57.8991 154.25 56.5626 153.949 55.226C153.838 54.7368 153.761 54.2388 153.778 53.7409C153.795 53.3653 153.864 52.9984 154.07 52.6751C154.379 52.1947 154.825 51.9501 155.366 51.8627C155.623 51.8278 155.88 51.8016 156.138 51.8103C156.395 51.8103 156.644 51.854 156.902 51.8976C157.065 51.9239 157.219 51.9675 157.382 52.0199C157.777 52.151 158.155 52.3257 158.498 52.579C158.807 52.8062 159.082 53.077 159.313 53.3915C159.597 53.7758 159.828 54.1952 159.966 54.6669C160.163 55.3832 160.335 56.1083 160.515 56.8246C160.532 56.9033 160.566 56.9382 160.644 56.9382C160.841 56.9382 161.038 56.9469 161.236 56.9557C161.545 56.9731 161.854 56.9906 162.163 57.0081C162.437 57.0256 162.721 57.0343 162.995 57.0518C163.09 57.0518 163.175 57.0605 163.27 57.078C163.296 57.078 163.321 57.1217 163.33 57.1479C163.373 57.3226 163.416 57.4973 163.459 57.672C163.613 58.3447 163.776 59.0086 163.931 59.6812L163.965 59.8123ZM158.335 56.8072C158.335 56.8072 158.335 56.7722 158.335 56.7635C158.326 56.7111 158.309 56.6674 158.301 56.615C158.181 56.117 158.086 55.6104 157.889 55.1386C157.76 54.8154 157.545 54.5795 157.211 54.4834C156.979 54.4136 156.739 54.4048 156.507 54.4572C156.353 54.4922 156.224 54.5621 156.181 54.728C156.155 54.8241 156.147 54.9377 156.155 55.0425C156.189 55.5929 156.352 56.117 156.473 56.6499C156.473 56.6761 156.516 56.7023 156.541 56.7023C156.73 56.7198 156.919 56.7285 157.108 56.7373C157.314 56.746 157.511 56.7548 157.717 56.7635C157.923 56.7722 158.129 56.7897 158.335 56.8072Z" fill="white"/>
<path d="M156.875 49.2155C157.064 50.028 157.253 50.8317 157.45 51.6616C157.33 51.6441 157.21 51.6179 157.099 51.6004C157.073 51.6004 157.056 51.5917 157.03 51.5917C156.764 51.548 156.524 51.4519 156.292 51.3209C155.82 51.0501 155.459 50.6569 155.176 50.1939C154.713 49.4339 154.464 48.5953 154.292 47.7305C154.215 47.3199 154.181 46.9006 154.198 46.4812C154.215 46.1667 154.275 45.861 154.438 45.5902C154.455 45.564 154.472 45.5378 154.489 45.5116C154.713 45.2058 155.03 45.0573 155.399 45.0486C155.811 45.0398 156.215 45.0486 156.627 45.066C156.901 45.066 157.184 45.0922 157.459 45.1097C157.768 45.1272 158.077 45.1447 158.386 45.1621C158.686 45.1796 158.987 45.1971 159.287 45.2145C159.476 45.2233 159.656 45.2495 159.845 45.2407C160.025 45.2407 160.188 45.1796 160.283 45.0049C160.283 45.0049 160.291 45.0049 160.3 45.0049C160.408 45.0224 160.477 45.0893 160.506 45.2058C160.677 45.9396 160.849 46.6822 161.029 47.416C161.055 47.5208 161.055 47.5208 160.943 47.547C160.789 47.5819 160.634 47.6256 160.48 47.6606C160.549 47.7305 160.617 47.8003 160.695 47.879C161.175 48.3507 161.536 48.9098 161.75 49.5562C161.879 49.9581 161.973 50.3599 161.965 50.788C161.965 51.0675 161.888 51.3296 161.742 51.5655C161.69 51.6441 161.63 51.7052 161.561 51.7664C161.304 51.9935 160.995 52.0984 160.652 52.1071C160.386 52.1071 160.111 52.0984 159.845 52.0547C159.545 52.011 159.261 51.8974 159.012 51.7227C158.661 51.4956 158.412 51.1724 158.197 50.8142C157.983 50.4473 157.802 50.0716 157.648 49.6785C157.502 49.3204 157.373 48.9535 157.244 48.5866C157.133 48.2721 156.996 47.9663 156.772 47.7217C156.644 47.5819 156.498 47.4771 156.292 47.4859C156.094 47.4859 155.991 47.5732 155.957 47.7741C155.94 47.879 155.94 47.9925 155.957 48.0974C156 48.3944 156.06 48.6827 156.257 48.9185C156.378 49.067 156.524 49.1631 156.704 49.2155C156.755 49.233 156.815 49.2417 156.867 49.2505L156.875 49.2155ZM158.128 47.5732C158.163 47.6256 158.18 47.6606 158.188 47.6868C158.352 47.9838 158.515 48.2808 158.678 48.5778C158.858 48.9011 159.03 49.233 159.356 49.4514C159.527 49.565 159.708 49.565 159.888 49.4864C160.051 49.4077 160.094 49.2505 160.077 49.0932C160.051 48.9098 160.008 48.7176 159.948 48.5429C159.845 48.2371 159.648 47.9838 159.364 47.8178C159.184 47.713 158.995 47.6431 158.789 47.6169C158.686 47.6082 158.575 47.5907 158.472 47.5819C158.36 47.5819 158.257 47.5732 158.12 47.5645L158.128 47.5732Z" fill="white"/>
<path d="M162.917 44.3761C162.762 44.3761 162.608 44.3587 162.453 44.3499C162.29 44.3499 162.136 44.3412 161.973 44.3325C161.664 44.315 161.355 44.2975 161.046 44.28C160.977 44.28 160.934 44.2538 160.917 44.1752C160.866 43.9393 160.806 43.7122 160.754 43.4764C160.72 43.3191 160.651 43.1706 160.539 43.0483C160.437 42.926 160.291 42.8736 160.145 42.8474C159.861 42.8037 159.587 42.8823 159.312 42.9697C158.909 43.092 158.505 43.223 158.102 43.3453C157.905 43.4065 157.707 43.4676 157.51 43.5288C156.909 43.721 156.308 43.9131 155.708 44.1053C155.098 44.2975 154.497 44.481 153.888 44.6732C153.819 44.6906 153.794 44.6732 153.777 44.612C153.596 43.8258 153.408 43.0483 153.227 42.2621C153.227 42.2359 153.219 42.2097 153.21 42.1747C154.463 41.8864 155.725 41.6069 156.978 41.3186C156.978 41.3099 156.978 41.3011 156.978 41.2924C156.961 41.2924 156.952 41.2749 156.935 41.2749C156.746 41.2225 156.557 41.1614 156.368 41.1089C156.094 41.0303 155.819 40.9517 155.545 40.8731C155.227 40.777 154.901 40.6809 154.583 40.5848C154.257 40.4887 153.931 40.3926 153.605 40.2965C153.322 40.2092 153.038 40.1218 152.755 40.0344C152.73 40.0344 152.695 39.9995 152.695 39.9733C152.515 39.222 152.343 38.4707 152.163 37.7195C152.163 37.7107 152.163 37.6933 152.163 37.6758C152.343 37.7369 152.515 37.7981 152.687 37.8592C152.695 37.8592 152.704 37.8592 152.721 37.868C152.978 37.9553 153.244 38.0339 153.502 38.1213C153.819 38.2261 154.137 38.331 154.455 38.4358C154.575 38.4707 154.686 38.5144 154.798 38.5581C155.133 38.6717 155.476 38.7852 155.811 38.8988C155.948 38.9425 156.077 38.9949 156.214 39.0386C156.54 39.1521 156.875 39.257 157.201 39.3705C157.321 39.4142 157.441 39.4491 157.553 39.4928C157.888 39.6064 158.222 39.72 158.557 39.8248C158.694 39.8685 158.823 39.9121 158.96 39.9646C159.278 40.0694 159.587 40.183 159.896 40.2878C160.016 40.3315 160.145 40.3751 160.265 40.4276C160.557 40.5499 160.848 40.6547 161.123 40.7945C161.415 40.9342 161.681 41.1264 161.896 41.3623C162.11 41.5982 162.265 41.8602 162.376 42.166C162.565 42.6727 162.685 43.2055 162.788 43.7384C162.822 43.9044 162.848 44.0616 162.882 44.2276C162.891 44.2888 162.9 44.3412 162.908 44.4023L162.917 44.3761Z" fill="white"/>
<path d="M158.53 64.7218C158.813 64.7393 159.088 64.7568 159.363 64.7655C159.766 64.783 160.161 64.8092 160.564 64.8267C160.847 64.8441 161.131 64.8616 161.414 64.8703C161.766 64.8878 162.118 64.8966 162.461 64.8966C162.598 64.8966 162.753 64.8791 162.881 64.8267C163.036 64.7655 163.139 64.6432 163.147 64.4598C163.165 64.1016 163.053 63.8046 162.804 63.5512C162.641 63.394 162.452 63.2979 162.246 63.228C161.946 63.1319 161.637 63.1145 161.328 63.097C161.01 63.0882 160.701 63.062 160.384 63.0533C160.092 63.0358 159.809 63.0271 159.517 63.0096C159.217 62.9922 158.908 62.9747 158.607 62.9572C158.47 62.9572 158.333 62.931 158.195 62.931C158.118 62.931 158.092 62.9048 158.075 62.8262C157.895 62.0574 157.715 61.2887 157.535 60.5199L157.509 60.4238C157.638 60.4238 157.758 60.4238 157.878 60.4413C158.024 60.4413 158.17 60.4675 158.316 60.4762C158.753 60.5025 159.191 60.5199 159.629 60.5374C159.92 60.5549 160.212 60.5723 160.504 60.5811C160.804 60.5985 161.096 60.616 161.397 60.6335C161.688 60.651 161.98 60.6684 162.272 60.6772C162.59 60.6946 162.907 60.7121 163.233 60.7296C163.525 60.7471 163.808 60.7645 164.1 60.7733C164.169 60.7733 164.203 60.7995 164.22 60.8694C164.383 61.577 164.555 62.2846 164.718 63.0009C164.718 63.0271 164.718 63.0533 164.727 63.0708C164.409 63.0533 164.1 63.0446 163.765 63.0271C163.911 63.1407 164.049 63.2368 164.177 63.3416C164.727 63.7958 165.147 64.3462 165.37 65.0451C165.482 65.412 165.55 65.7789 165.508 66.1632C165.43 66.7573 165.113 67.1417 164.546 67.3164C164.203 67.4299 163.843 67.4387 163.491 67.4387C163.062 67.4387 162.632 67.4125 162.203 67.395C161.929 67.3863 161.645 67.3688 161.371 67.3513C161.062 67.3338 160.753 67.3164 160.435 67.2989C160.152 67.2814 159.86 67.2727 159.577 67.2552C159.44 67.2552 159.303 67.2378 159.174 67.2203C159.148 67.2203 159.122 67.1853 159.114 67.1591C159.088 67.0543 159.062 66.9495 159.036 66.8446C158.873 66.1632 158.719 65.4906 158.556 64.8092C158.556 64.783 158.547 64.7568 158.539 64.7218H158.53Z" fill="white"/>
<path d="M149.953 34.618L154.013 30.9141L159.917 35.116L149.953 34.618Z" fill="#0D8C45"/>
<path d="M150.386 36.4179L154.437 32.7139L160.341 36.9158L150.386 36.4179Z" fill="#F37A20"/>
<path d="M67.7 65.9116L74.257 66.9075L68.8587 70.8386L69.7083 74.4465L78.1276 68.3227L77.9217 67.4666L77.278 64.7148L77.072 63.8587L66.8418 62.3037L67.7 65.9116Z" fill="#E50695"/>
<path d="M81.9565 62.6742L77.7422 63.7041L78.788 68.1382L83.0024 67.1083L81.9565 62.6742Z" fill="#E50695"/>
<path d="M71.9639 83.68L71.2602 80.6924L72.2042 80.4652L72.23 80.3429C71.4061 79.9236 70.6851 79.0413 70.3848 77.7659C69.9728 76.0012 70.8654 74.2366 73.2942 73.6426L78.538 72.3584L79.2418 75.346L74.1868 76.5778C73.1397 76.8311 72.8651 77.6523 73.071 78.5084C73.2255 79.1461 73.5173 79.6965 73.9465 80.0284L79.997 78.5521L80.7008 81.5397L71.9553 83.68H71.9639Z" fill="white"/>
<path d="M68.9961 51.9867L70.0432 51.7333L71.485 57.8571C72.3175 57.4466 72.4892 56.6865 72.163 55.2277C71.9399 54.2842 71.5537 53.4194 71.0216 52.738L73.0041 51.7246C73.7765 52.5545 74.2915 53.5766 74.5403 54.6424C75.3299 58.0057 74.0941 60.4517 71.279 61.1418C68.8846 61.7271 66.3613 60.5915 65.6147 57.5951C64.9882 54.9394 66.061 52.6681 68.9875 51.9867H68.9961ZM69.6827 58.2765L68.9532 55.1753C67.9662 55.5334 67.7946 56.1537 67.9662 56.8875C68.198 57.8834 68.7387 58.3027 69.6827 58.2765Z" fill="white"/>
</g>
</g>
<defs>
<filter id="filter0_d_959_11126" x="98.084" y="24.9023" width="33.2119" height="222.507" filterUnits="userSpaceOnUse" color-interpolation-filters="sRGB">
<feFlood flood-opacity="0" result="BackgroundImageFix"/>
<feColorMatrix in="SourceAlpha" type="matrix" values="0 0 0 0 0 0 0 0 0 0 0 0 0 0 0 0 0 0 127 0" result="hardAlpha"/>
<feOffset dy="3"/>
<feGaussianBlur stdDeviation="3"/>
<feColorMatrix type="matrix" values="0 0 0 0 0 0 0 0 0 0 0 0 0 0 0 0 0 0 0.5 0"/>
<feBlend mode="normal" in2="BackgroundImageFix" result="effect1_dropShadow_959_11126"/>
<feBlend mode="normal" in="SourceGraphic" in2="effect1_dropShadow_959_11126" result="shape"/>
</filter>
<linearGradient id="paint0_linear_959_11126" x1="144.37" y1="146.177" x2="33.3689" y2="113.871" gradientUnits="userSpaceOnUse">
<stop stop-color="#652D90"/>
<stop offset="0.19" stop-color="#262261"/>
<stop offset="0.58" stop-color="#652D90"/>
<stop offset="0.88" stop-color="#262261"/>
</linearGradient>
<linearGradient id="paint1_linear_959_11126" x1="138.495" y1="212.23" x2="165.73" y2="250.06" gradientUnits="userSpaceOnUse">
<stop stop-color="#B48C0D"/>
<stop offset="0.457004" stop-color="#FDC81B" stop-opacity="0.875698"/>
<stop offset="1" stop-color="#9D7905" stop-opacity="0.67"/>
</linearGradient>
<linearGradient id="paint2_linear_959_11126" x1="140.665" y1="232.44" x2="92.2038" y2="34.1277" gradientUnits="userSpaceOnUse">
<stop stop-color="#F9EC31"/>
<stop offset="0.47" stop-color="#F6921E"/>
<stop offset="0.72" stop-color="#F6EF82"/>
<stop offset="1" stop-color="#9E450C"/>
</linearGradient>
<clipPath id="clip0_959_11126">
<rect width="222.15" height="296" fill="white"/>
</clipPath>
<clipPath id="clip1_959_11126">
<rect width="222.15" height="296" fill="white"/>
</clipPath>
<clipPath id="clip2_959_11126">
<rect x="138.495" y="221.5" width="27.6" height="21.4667" rx="2.00278" transform="rotate(-102.052 138.495 221.5)" fill="white"/>
</clipPath>
<clipPath id="clip3_959_11126">
<rect width="37.4563" height="21.4667" fill="white" transform="translate(131.317 186.619) rotate(-102.854)"/>
</clipPath>
</defs>
</svg>
