<svg width="100" height="100" viewBox="0 0 100 100" fill="none" xmlns="http://www.w3.org/2000/svg">
<path d="M83.4409 42.849C79.3247 37.9655 73.5792 34.5562 67.218 33.2125C65.838 27.0103 62.3412 21.4085 57.3344 17.3952C52.19 13.2711 45.6621 11 38.9563 11C22.99 11 10 23.6653 10 39.2324C10 45.7705 12.3293 52.1353 16.5591 57.151C20.6753 62.0327 26.4208 65.4438 32.782 66.7875C34.162 72.9897 37.6588 78.5915 42.6656 82.6048C47.81 86.7289 54.3379 89 61.0437 89C77.01 89 90 76.3347 90 60.7676C90 54.2295 87.6707 47.8647 83.4409 42.849ZM61.0437 85.1779C49.7196 85.1779 39.9514 77.9143 36.944 67.3951C37.6202 67.4415 38.2947 67.4648 38.9563 67.4648C54.9226 67.4648 67.9126 54.7995 67.9126 39.2324C67.9126 38.5873 67.8888 37.9316 67.8411 37.2704C78.6301 40.2027 86.0799 49.7266 86.0799 60.7676C86.0799 74.1458 74.9867 85.0439 61.2966 85.1761H61.0437V85.1779ZM61.0437 36.3573C61.8959 36.3573 62.8068 36.4145 63.8147 36.5307C63.9338 37.5134 63.9925 38.4015 63.9925 39.2324C63.9925 52.6928 52.7619 63.6427 38.9563 63.6427C38.1041 63.6427 37.1932 63.5855 36.1853 63.4693C36.0662 62.4866 36.0075 61.5985 36.0075 60.7676C36.0075 47.3072 47.2381 36.3573 61.0437 36.3573ZM32.1607 62.7278C21.3717 59.7956 13.9219 50.2734 13.9219 39.2306V38.9912C14.0557 25.6415 25.235 14.8221 38.9563 14.8221C50.2804 14.8221 60.0486 22.0857 63.056 32.6049C62.3798 32.5585 61.7053 32.5352 61.0437 32.5352C45.0774 32.5352 32.0874 45.2005 32.0874 60.7676C32.0874 61.4127 32.1112 62.0685 32.1589 62.7296L32.1607 62.7278Z" fill="#4C1A84"/>
<path d="M53.0685 55.1603C53.3654 55.4498 53.7612 55.6106 54.1828 55.6106C54.6043 55.6106 54.9983 55.4516 55.297 55.1603C55.5939 54.8709 55.7589 54.4849 55.7589 54.0739C55.7589 53.663 55.5939 53.2788 55.297 52.9893L46.9327 44.8341C46.6358 44.5446 46.2399 44.3838 45.8184 44.3838C45.3969 44.3838 45.0029 44.5446 44.706 44.8341C44.4091 45.1235 44.2441 45.5095 44.2441 45.9205C44.2441 46.3315 44.4091 46.7156 44.706 47.0051L53.0704 55.1603H53.0685Z" fill="#4C1A84"/>
<path d="M55.8572 49.7257C56.1541 50.0152 56.5499 50.176 56.9714 50.176C57.3929 50.176 57.787 50.017 58.0857 49.7257C58.3826 49.4363 58.5475 49.0503 58.5475 48.6393C58.5475 48.2283 58.3826 47.8442 58.0857 47.5547L52.5089 42.1173C52.212 41.8278 51.8161 41.667 51.3946 41.667C50.9731 41.667 50.579 41.8278 50.2822 42.1173C49.9853 42.4068 49.8203 42.7927 49.8203 43.2037C49.8203 43.6147 49.9853 43.9988 50.2822 44.2883L55.859 49.7257H55.8572Z" fill="#4C1A84"/>
<path d="M47.4929 57.882C47.7898 58.1715 48.1857 58.3323 48.6072 58.3323C49.0287 58.3323 49.4227 58.1732 49.7214 57.882C50.0183 57.5925 50.1833 57.2065 50.1833 56.7956C50.1833 56.3846 50.0183 56.0004 49.7214 55.7109L44.1446 50.2735C43.8477 49.9841 43.4519 49.8232 43.0303 49.8232C42.6088 49.8232 42.2148 49.9841 41.9179 50.2735C41.621 50.563 41.4561 50.949 41.4561 51.3599C41.4561 51.7709 41.621 52.1551 41.9179 52.4446L47.4947 57.882H47.4929Z" fill="#4C1A84"/>
<path d="M41.2179 59.9206C41.5148 60.2101 41.9107 60.3709 42.3322 60.3709C42.7537 60.3709 43.1478 60.2118 43.4465 59.9206C43.7434 59.6311 43.9083 59.2451 43.9083 58.8342C43.9083 58.4232 43.7434 58.039 43.4465 57.7495L42.0518 56.3897C41.7549 56.1003 41.359 55.9395 40.9375 55.9395C40.516 55.9395 40.122 56.1003 39.8251 56.3897C39.5282 56.6792 39.3633 57.0652 39.3633 57.4762C39.3633 57.8871 39.5282 58.2713 39.8251 58.5608L41.2198 59.9206H41.2179Z" fill="#4C1A84"/>
<path d="M57.9486 43.6092C58.2455 43.8987 58.6413 44.0595 59.0628 44.0595C59.4844 44.0595 59.8783 43.9005 60.1771 43.6092C60.474 43.3197 60.6389 42.9338 60.6389 42.5228C60.6389 42.1118 60.474 41.7277 60.1771 41.4382L58.7843 40.0802C58.4874 39.7907 58.0915 39.6299 57.6718 39.6299C57.2503 39.6299 56.8563 39.7889 56.5575 40.0802C56.2606 40.3696 56.0957 40.7556 56.0957 41.1666C56.0957 41.5776 56.2606 41.9617 56.5575 42.2512L57.9522 43.611L57.9486 43.6092Z" fill="#4C1A84"/>
</svg>
