<svg width="261" height="285" viewBox="0 0 261 285" fill="none" xmlns="http://www.w3.org/2000/svg">
<g clip-path="url(#clip0_959_10498)">
<path d="M163.846 268.155C217.503 268.155 261 257.364 261 244.053C261 230.743 217.503 219.952 163.846 219.952C110.19 219.952 66.6923 230.743 66.6923 244.053C66.6923 257.364 110.19 268.155 163.846 268.155Z" fill="#4C1A84"/>
<path d="M113.218 248.978C166.774 245.694 209.698 235.025 209.092 225.148C208.486 215.271 164.579 209.925 111.023 213.209C57.4671 216.492 14.5427 227.161 15.1489 237.039C15.755 246.916 59.662 252.262 113.218 248.978Z" fill="#4C1A84"/>
<path d="M15.1361 215.978C15.1361 215.978 19.2515 227.599 16.55 231.763C13.8484 235.927 15.4517 236.558 17.2443 236.836C23.1523 237.757 30.9791 232.697 42.9214 237.555C44.8528 230.754 15.1361 215.978 15.1361 215.978V215.978Z" fill="#6F39B5"/>
<path d="M254.372 219.952C253.438 230.93 256.594 235.183 260.053 241.025C261.252 243.057 258.892 245.53 256.531 245.681C250.093 246.085 231.965 248.962 227.584 251.725C225.438 244.281 254.36 219.952 254.36 219.952H254.372Z" fill="#6F39B5"/>
<path d="M70.9213 68.5059C95.033 99.3579 149.632 115.03 151.588 162.475C153.76 215.233 143.168 245.088 65.7581 241.454C25.1343 239.549 8.55902 217.454 8.55902 185.895C8.55902 142.765 55.7978 107.219 59.7365 75.8372" fill="#6F39B5"/>
<path d="M46.7086 59.0297C59.6607 65.3894 63.5994 68.2286 65.6571 69.5409C70.5805 72.6703 76.0214 68.3421 76.8041 64.2538C78.2558 56.6448 90.7661 44.8592 90.7661 44.8592C90.7661 44.8592 83.7977 37.6415 68.4849 41.2377C53.172 44.834 34.1478 52.8593 46.7086 59.0297V59.0297Z" fill="#6F39B5"/>
<path d="M83.3054 28.5307C75.125 23.7988 72.6634 32.2783 68.7121 32.2657C59.2946 32.2405 56.7067 25.9691 51.8212 29.2373C47.8573 31.8872 48.5264 41.8305 43.5147 43.4078C34.9304 46.0955 35.852 48.5561 41.1793 54.1587C47.0746 60.3544 43.6157 47.7612 60.0268 57.5152C74.4686 66.0958 70.9339 47.1429 80.0736 50.4994C89.2134 53.8685 99.0222 37.6412 83.2927 28.5433L83.3054 28.5307Z" fill="#D7CAFF"/>
<path d="M79.5561 66.0078C79.5561 66.0078 73.1179 78.7272 59.787 70.0205" stroke="#4C1A84" stroke-width="9" stroke-miterlimit="10" stroke-linecap="round"/>
<path d="M79.2153 74.2852C79.9474 78.5754 68.0557 87.421 58.3226 75.9886" stroke="#4C1A84" stroke-width="9" stroke-miterlimit="10" stroke-linecap="round"/>
<path d="M66.1057 212.862C85.3006 209.084 98.0044 191.521 94.4806 173.634C90.9567 155.746 72.5396 144.309 53.3447 148.087C34.1499 151.865 21.446 169.428 24.9699 187.316C28.4937 205.203 46.9109 216.641 66.1057 212.862Z" fill="#4C1A84"/>
<path d="M75.6932 45.4263C76.1729 48.2024 69.924 57.7419 69.924 57.7419C69.4696 59.6978 65.5309 60.2025 63.9529 59.3319C60.1026 57.1993 51.6193 52.4043 52.0738 51.1677C52.402 50.2844 56.4164 51.3065 58.31 48.9974C59.8501 47.1172 57.8808 45.9816 60.393 45.3885C63.3596 44.6819 63.0061 47.0036 67.8537 47.1298C70.0376 47.1803 75.2135 42.6503 75.6805 45.4263H75.6932Z" fill="#9D77E8"/>
<path d="M172.708 42.8271C139.545 90.1715 75.6932 118.828 75.6932 189.491C75.6932 215.914 85.4136 241.744 117.074 252.798C133.561 258.552 172.468 259.019 198.802 257.694C237.923 255.738 258.21 233.113 258.21 193.693C258.21 136.721 175.372 87.4207 190.887 51.6853" fill="#8254CC"/>
<path d="M196.126 83.0802C196.126 83.0802 201.958 89.2001 191.164 88.6702C179.815 88.1149 182.946 75.4334 172.468 71.4586C161.422 67.2819 157.648 58.0957 164.376 52.2786L171.244 46.0703L189.119 58.8654C189.119 58.8654 188.147 71.7362 196.126 83.0802Z" fill="#6F39B5"/>
<path d="M214.506 69.8934C214.506 69.8934 196.201 50.726 187.971 55.0667C179.74 59.4075 184.335 46.625 184.335 46.625L212.095 56.8459L214.506 69.906V69.8934Z" fill="#8254CC"/>
<path d="M206.641 59.5092C194.106 57.4776 185.155 54.0707 179.273 51.8498C172.443 49.2757 171.635 43.6731 174.311 39.2188C179.311 30.9411 177.556 9.5402 177.556 9.5402C177.556 9.5402 190.066 8.64429 201.276 24.7833C212.486 40.9222 223.898 62.2979 206.629 59.4966L206.641 59.5092Z" fill="#8254CC"/>
<path d="M198.145 0.618596C209.696 3.05395 204.899 12.9847 208.573 16.2655C217.346 24.1015 224.997 20.4422 226.802 27.559C228.266 33.3382 219.328 42.0197 222.674 47.6601C228.392 57.3259 228.784 69.8433 219.164 70.6004C208.51 71.4333 218.95 51.6223 195.545 46.9787C174.943 42.8904 194.093 28.2277 182.782 23.723C171.471 19.2182 175.927 -4.06284 198.145 0.618596Z" fill="#D7CAFF"/>
<path d="M172.531 36.4043C172.531 36.4043 170.575 54.8146 190.369 56.8335" stroke="#4C1A84" stroke-width="9" stroke-miterlimit="10" stroke-linecap="round"/>
<path d="M168.164 45.7041C165.803 50.4991 170.714 65.9567 189.157 62.5119" stroke="#4C1A84" stroke-width="9" stroke-miterlimit="10" stroke-linecap="round"/>
<path d="M230.109 171.374C234.512 149.021 218.639 127.074 194.656 122.354C170.673 117.633 147.661 131.926 143.257 154.279C138.854 176.631 154.726 198.578 178.71 203.298C202.693 208.019 225.705 193.726 230.109 171.374Z" fill="#4C1A84"/>
<path d="M201.882 144.317L194.371 144.91C195.558 146.551 196.328 148.519 196.694 150.816L203.649 150.273L201.983 156.708L196.782 157.112C196.315 160.961 194.825 163.989 192.313 166.21C189.801 168.431 186.241 169.92 181.633 170.677L197.842 188.267V188.721L187.971 189.504L170.259 170.362L170.183 165.074L178.894 164.393C181.469 164.191 183.502 163.497 184.991 162.298C186.481 161.112 187.478 159.611 187.971 157.819L169.451 159.283L171.155 152.847L187.781 151.535C186.62 148.052 183.565 146.5 178.616 146.891L169.35 147.623L171.143 140.418L203.574 137.856L201.87 144.33L201.882 144.317Z" fill="#D7CAFF"/>
<path d="M191.089 22.6752C188.324 24.8582 186.153 38.9403 186.153 38.9403C184.941 41.136 188.185 44.8962 190.369 45.401C195.722 46.6376 207.613 49.2622 208.219 47.7354C208.648 46.6502 204.066 44.2401 204.23 40.505C204.369 37.4766 207.159 38.0571 205.316 35.4198C203.144 32.2904 201.529 34.7384 196.933 30.8015C194.863 29.0223 193.853 20.4922 191.089 22.6752V22.6752Z" fill="#9D77E8"/>
<path d="M82.8131 222.337C85.9438 234.539 83.1918 239.94 80.3893 247.195C79.4172 249.706 82.5606 252.066 85.2369 251.788C92.5714 251.031 119.561 254.098 126.05 255.069C134.849 256.394 82.8005 222.337 82.8005 222.337H82.8131Z" fill="#8254CC"/>
<path d="M46.6328 174.4C46.3299 174.4 46.0395 174.375 45.7492 174.362C45.4588 174.35 45.1558 174.324 44.8781 174.299C44.6256 174.274 44.3858 174.236 44.1459 174.198C43.9439 174.16 43.7419 174.135 43.54 174.097C43.2622 174.047 42.9971 173.971 42.7194 173.908C42.5805 173.87 42.4291 173.832 42.2902 173.794C41.8988 173.681 41.5075 173.542 41.1288 173.391C41.1288 173.391 41.1288 173.391 41.1162 173.391C40.7374 173.226 40.3714 173.05 40.0053 172.861C39.8664 172.785 39.7275 172.696 39.5887 172.608C39.3741 172.482 39.1468 172.343 38.9448 172.204C38.7176 172.053 38.4904 171.876 38.2758 171.7C38.1369 171.586 37.9854 171.485 37.8466 171.359C37.4805 171.043 37.127 170.703 36.7862 170.324C36.5589 170.072 36.3443 169.807 36.1297 169.529C36.0035 169.365 35.8772 169.201 35.751 169.037C35.6121 168.835 35.4733 168.633 35.347 168.431C35.2334 168.255 35.1324 168.078 35.0188 167.901C34.8926 167.687 34.7916 167.472 34.678 167.245C34.5896 167.056 34.4886 166.879 34.4129 166.69C34.3119 166.463 34.2235 166.223 34.1351 165.983C34.0594 165.794 33.9836 165.592 33.9205 165.39C33.8322 165.125 33.7564 164.848 33.6807 164.57C33.6302 164.394 33.5797 164.23 33.5418 164.053C33.4661 163.737 33.4029 163.397 33.3398 163.069C33.3146 162.93 33.2767 162.791 33.2641 162.64C33.201 162.185 33.1505 161.731 33.1126 161.252C33.1126 161.125 33.1 160.999 33.0873 160.873C33.0621 160.419 33.0368 159.964 33.0368 159.498V151.308C33.0368 150.715 33.0621 150.135 33.0873 149.58C33.1252 148.949 33.201 148.33 33.2893 147.737C33.3272 147.497 33.3777 147.258 33.4156 147.018C33.4661 146.728 33.5166 146.438 33.5797 146.16C33.6554 145.857 33.7312 145.579 33.8195 145.289C33.87 145.113 33.9205 144.923 33.971 144.747C34.1099 144.318 34.2614 143.914 34.4381 143.51C34.4381 143.485 34.4507 143.46 34.4633 143.447C34.6527 143.031 34.8547 142.627 35.0693 142.236C35.1703 142.059 35.2839 141.895 35.3849 141.731C35.5238 141.516 35.65 141.289 35.8015 141.087C36.0918 140.684 36.3948 140.305 36.723 139.939C36.8998 139.75 37.0891 139.573 37.2659 139.396C37.4173 139.245 37.5562 139.094 37.7077 138.955C37.8844 138.791 38.0738 138.652 38.2632 138.513C38.4273 138.387 38.5788 138.248 38.7429 138.135C38.9322 137.996 39.1342 137.882 39.3362 137.756C39.5003 137.655 39.6644 137.542 39.8411 137.441C40.0558 137.327 40.2704 137.226 40.485 137.125C40.6617 137.037 40.8258 136.948 41.0025 136.873C41.2298 136.772 41.4696 136.696 41.7095 136.62C41.8862 136.557 42.063 136.482 42.2397 136.431C42.4922 136.355 42.7699 136.305 43.035 136.242C43.2117 136.204 43.3758 136.154 43.5526 136.116C43.8429 136.065 44.1585 136.027 44.4615 135.989C44.6256 135.964 44.7771 135.939 44.9412 135.926C45.4083 135.889 45.9006 135.863 46.393 135.863H34.274C33.7817 135.863 33.2893 135.889 32.8222 135.926C32.6581 135.939 32.5066 135.977 32.3425 135.989C32.0396 136.027 31.7366 136.053 31.4462 136.116C31.2695 136.154 31.0928 136.204 30.916 136.242C30.6509 136.305 30.3858 136.355 30.1333 136.431C29.9566 136.482 29.7799 136.557 29.6031 136.62C29.3633 136.709 29.1234 136.784 28.8962 136.873C28.7195 136.948 28.5427 137.037 28.3786 137.125C28.164 137.226 27.9368 137.327 27.7348 137.441C27.558 137.542 27.3939 137.655 27.2298 137.756C27.0278 137.882 26.8259 137.996 26.6365 138.135C26.4724 138.248 26.3209 138.387 26.1568 138.513C25.9674 138.665 25.7781 138.803 25.6013 138.955C25.4499 139.094 25.2984 139.258 25.1469 139.396C24.9828 139.548 24.8187 139.699 24.6672 139.863C24.6419 139.889 24.6293 139.914 24.604 139.926C24.2758 140.292 23.9729 140.671 23.6825 141.075C23.6699 141.1 23.6446 141.113 23.632 141.138C23.5058 141.327 23.3922 141.529 23.2659 141.718C23.1649 141.882 23.0513 142.046 22.9503 142.223C22.9503 142.248 22.9251 142.261 22.9124 142.273C22.7105 142.639 22.5211 143.031 22.3444 143.422C22.3444 143.447 22.3317 143.472 22.3191 143.485C22.155 143.863 22.0035 144.242 21.8773 144.633C21.8773 144.658 21.8647 144.696 21.852 144.721C21.7889 144.898 21.751 145.087 21.7005 145.264C21.6248 145.504 21.5491 145.744 21.4859 145.996C21.4859 146.034 21.4733 146.084 21.4607 146.135C21.3976 146.412 21.3471 146.703 21.2966 146.993C21.2587 147.195 21.2082 147.384 21.183 147.598C21.183 147.636 21.183 147.674 21.183 147.712C21.0946 148.305 21.0315 148.923 20.981 149.554C20.981 149.554 20.981 149.58 20.981 149.592C20.9431 150.147 20.9305 150.703 20.9305 151.283V159.472C20.9305 159.737 20.9305 159.99 20.9431 160.242C20.9431 160.444 20.9684 160.646 20.981 160.848C20.981 160.974 20.9936 161.1 21.0062 161.226C21.0441 161.681 21.082 162.122 21.1577 162.551C21.1577 162.577 21.1577 162.589 21.1577 162.614C21.183 162.766 21.2082 162.905 21.2335 163.043C21.2966 163.371 21.3597 163.712 21.4354 164.028C21.4733 164.204 21.5238 164.368 21.5743 164.545C21.6374 164.759 21.6879 164.974 21.751 165.176C21.7763 165.239 21.8015 165.302 21.8142 165.353C21.8773 165.554 21.953 165.744 22.0288 165.946C22.1171 166.185 22.2055 166.425 22.3065 166.652C22.3949 166.842 22.4832 167.031 22.5716 167.207C22.6852 167.422 22.7988 167.649 22.9124 167.864C23.0134 168.04 23.127 168.217 23.2407 168.394C23.3669 168.596 23.5058 168.797 23.6446 168.999C23.7709 169.163 23.8971 169.327 24.0233 169.491C24.0991 169.592 24.1748 169.706 24.2632 169.807C24.4021 169.971 24.5409 170.122 24.6798 170.286C25.0206 170.652 25.3741 170.993 25.7402 171.321C25.7655 171.346 25.7907 171.372 25.8159 171.384C25.9296 171.485 26.0558 171.561 26.1694 171.662C26.384 171.838 26.6113 172.015 26.8385 172.167C26.8764 172.192 26.9142 172.23 26.9521 172.255C27.1288 172.368 27.3056 172.469 27.4823 172.57C27.6212 172.659 27.76 172.747 27.8989 172.823C27.9241 172.835 27.962 172.861 27.9873 172.873C28.3155 173.05 28.6563 173.214 29.0098 173.353H29.0224C29.3633 173.491 29.7041 173.618 30.0576 173.731C30.0955 173.731 30.1333 173.756 30.1838 173.769C30.3227 173.807 30.4742 173.845 30.613 173.883C30.815 173.933 31.0044 173.996 31.2064 174.034C31.2821 174.047 31.3579 174.059 31.421 174.072C31.623 174.11 31.8249 174.148 32.0269 174.173C32.191 174.198 32.3425 174.236 32.5066 174.249C32.5824 174.249 32.6707 174.249 32.7591 174.261C33.0495 174.286 33.3398 174.312 33.6302 174.324C33.7817 174.324 33.9331 174.35 34.0846 174.362C34.2235 174.362 34.3624 174.362 34.5012 174.362H46.6202L46.6328 174.4Z" fill="#4C1A84"/>
<path d="M59.3451 183.813C53.0205 189.946 44.7519 193.012 34.5138 193.012C24.2758 193.012 15.8683 189.933 9.51844 183.763C3.1686 177.592 -0.0126343 169.277 -0.0126343 158.803V150.841C-0.0126343 140.822 3.14335 132.696 9.46795 126.45C15.7799 120.204 24.0486 117.087 34.2992 117.087C44.6761 117.087 53.0205 120.178 59.3451 126.336C65.6571 132.507 68.8131 140.86 68.8131 151.409V159.485C68.8131 169.58 65.6571 177.693 59.3451 183.826V183.813ZM24.6672 170.299C27.1667 173.037 30.4489 174.4 34.5265 174.4C38.604 174.4 41.8105 173.012 44.209 170.248C46.6076 167.472 47.8068 163.788 47.8068 159.144V150.841C47.8068 146.362 46.6076 142.728 44.209 139.964C41.8105 137.201 38.503 135.825 34.2992 135.825C30.0955 135.825 27.0783 137.188 24.6041 139.914C22.1298 142.639 20.9052 146.437 20.9052 151.295V159.485C20.9052 163.964 22.155 167.586 24.6672 170.311" fill="#F5A3D3"/>
<path d="M80.9321 151.396C80.9321 150.828 80.9321 150.261 80.9068 149.693C80.9068 149.655 80.9068 149.63 80.9068 149.592C80.8816 148.81 80.8311 148.04 80.768 147.283C80.7554 147.093 80.7301 146.904 80.7049 146.715C80.6417 146.134 80.5786 145.554 80.5029 144.986C80.4903 144.86 80.4776 144.734 80.4524 144.608C80.4271 144.469 80.4019 144.343 80.3893 144.204C80.3514 143.989 80.3135 143.775 80.2883 143.573C80.2252 143.22 80.162 142.879 80.0863 142.538C80.0484 142.336 80.0105 142.134 79.9601 141.932C79.8843 141.567 79.7959 141.201 79.6949 140.835C79.6571 140.671 79.6192 140.507 79.5687 140.343C79.4298 139.825 79.2784 139.32 79.1269 138.828C79.1143 138.778 79.089 138.74 79.0764 138.69C78.9249 138.223 78.7608 137.768 78.5967 137.314C78.5335 137.15 78.4578 136.986 78.3947 136.809C78.2684 136.481 78.1422 136.153 78.0033 135.838C77.915 135.648 77.8392 135.459 77.7509 135.27C77.6246 134.98 77.4858 134.689 77.3469 134.412C77.2459 134.223 77.1575 134.033 77.0566 133.844C76.9177 133.566 76.7662 133.301 76.6147 133.036C76.5137 132.847 76.4001 132.658 76.2865 132.469C76.135 132.204 75.9709 131.951 75.8068 131.686C75.6932 131.51 75.5795 131.32 75.4533 131.144C75.2766 130.879 75.0998 130.626 74.9231 130.374C74.8095 130.21 74.6832 130.033 74.5696 129.869C74.3676 129.604 74.1657 129.339 73.9637 129.087C73.8501 128.948 73.7364 128.797 73.6228 128.658C73.5976 128.62 73.5723 128.595 73.5471 128.557C73.3451 128.317 73.1305 128.09 72.9285 127.85C72.8149 127.724 72.7013 127.585 72.5877 127.459C72.2342 127.068 71.8555 126.689 71.4768 126.311C71.0349 125.869 70.5678 125.453 70.1008 125.049C70.0629 125.011 70.025 124.973 69.9745 124.935C69.8483 124.822 69.7094 124.734 69.5832 124.62C69.3054 124.393 69.0277 124.166 68.75 123.951C68.5606 123.8 68.3713 123.661 68.1819 123.522C67.9042 123.32 67.6265 123.118 67.3487 122.929C67.2477 122.866 67.1594 122.79 67.071 122.727C66.9448 122.651 66.8185 122.576 66.7049 122.487C66.4903 122.349 66.2883 122.21 66.0737 122.084C65.8339 121.932 65.594 121.793 65.3415 121.655C65.1269 121.528 64.9123 121.402 64.6851 121.289C64.5841 121.238 64.4957 121.175 64.3947 121.125C64.2306 121.036 64.0665 120.961 63.8898 120.872C63.7004 120.771 63.4984 120.67 63.3091 120.582C63.0187 120.443 62.7284 120.317 62.438 120.178C62.2487 120.09 62.0593 120.014 61.8699 119.926C61.8194 119.901 61.7563 119.875 61.7058 119.85C61.4407 119.737 61.163 119.636 60.8853 119.535C60.7212 119.472 60.5571 119.409 60.3929 119.345C59.9132 119.169 59.4209 119.005 58.9159 118.841C58.9033 118.841 58.8907 118.841 58.8781 118.828C58.3605 118.664 57.8303 118.513 57.2875 118.374C57.1107 118.323 56.934 118.286 56.7572 118.248C56.429 118.172 56.1008 118.084 55.76 118.008C55.7221 118.008 55.6968 118.008 55.659 117.995C55.3181 117.92 54.9773 117.856 54.6364 117.793C54.3966 117.743 54.1567 117.692 53.9042 117.655C53.5255 117.591 53.1468 117.541 52.7681 117.491C52.5535 117.465 52.3515 117.427 52.1369 117.402C52.1243 117.402 52.1116 117.402 52.099 117.402C51.4299 117.327 50.7483 117.251 50.0539 117.2C49.852 117.188 49.65 117.175 49.448 117.162C48.9556 117.137 48.4507 117.112 47.9457 117.087C47.8447 117.087 47.7438 117.087 47.6428 117.074C47.2388 117.074 46.8348 117.062 46.4182 117.062H34.2993C34.8168 117.062 35.3092 117.074 35.8141 117.087C36.3191 117.099 36.824 117.125 37.3164 117.162C37.5184 117.175 37.7203 117.188 37.9223 117.2C38.6166 117.251 39.2983 117.314 39.9674 117.402C40.1946 117.427 40.4092 117.465 40.6239 117.491C41.0026 117.541 41.3939 117.591 41.7726 117.655C42.0125 117.692 42.2523 117.743 42.4922 117.793C42.833 117.856 43.1865 117.92 43.5274 117.995C43.8935 118.071 44.2595 118.159 44.6256 118.26C44.8024 118.298 44.9791 118.336 45.1558 118.386C45.6987 118.525 46.2289 118.677 46.7465 118.841C46.7465 118.841 46.7717 118.841 46.7843 118.853C47.2893 119.005 47.769 119.181 48.2613 119.358C48.4254 119.421 48.5896 119.484 48.7537 119.547C49.0819 119.674 49.4101 119.8 49.7383 119.939C49.9277 120.014 50.1171 120.103 50.3064 120.191C50.5968 120.317 50.8871 120.456 51.1775 120.595C51.3668 120.683 51.5688 120.784 51.7582 120.885C52.0233 121.024 52.2884 121.163 52.5535 121.301C52.7681 121.415 52.9953 121.541 53.2099 121.667C53.4498 121.806 53.7023 121.957 53.9421 122.096C54.1567 122.222 54.3713 122.361 54.5733 122.5C54.7879 122.639 55.0151 122.79 55.2298 122.942C55.5075 123.131 55.7852 123.333 56.0629 123.535C56.2523 123.674 56.4417 123.812 56.631 123.964C56.9087 124.178 57.1865 124.405 57.4642 124.633C57.6409 124.771 57.805 124.91 57.9691 125.062C58.4362 125.465 58.8907 125.882 59.3452 126.323C59.7239 126.702 60.09 127.081 60.4561 127.472C60.5697 127.598 60.6833 127.737 60.7969 127.863C61.0368 128.128 61.2766 128.393 61.4912 128.67C61.6048 128.809 61.7185 128.961 61.8321 129.1C62.0341 129.364 62.2487 129.617 62.4506 129.894C62.5769 130.059 62.6905 130.235 62.8167 130.399C62.9935 130.652 63.1702 130.904 63.3469 131.169C63.4606 131.346 63.5742 131.535 63.7004 131.712C63.8645 131.964 64.016 132.229 64.1801 132.494C64.2937 132.683 64.3947 132.872 64.5083 133.062C64.6598 133.327 64.7987 133.604 64.9502 133.869C65.0512 134.059 65.1522 134.248 65.2405 134.437C65.3794 134.727 65.5183 135.005 65.6445 135.295C65.7329 135.484 65.8212 135.674 65.897 135.863C66.0358 136.178 66.1621 136.507 66.2883 136.835C66.3514 136.999 66.4272 137.163 66.4903 137.339C66.6544 137.794 66.8185 138.248 66.97 138.715C66.9826 138.765 67.0079 138.816 67.0205 138.854C67.1846 139.358 67.3235 139.863 67.4623 140.38C67.5002 140.544 67.5507 140.708 67.5886 140.873C67.677 141.226 67.7653 141.592 67.8537 141.958C67.9042 142.16 67.9421 142.361 67.9799 142.563C68.0557 142.904 68.1188 143.245 68.1819 143.598C68.2198 143.813 68.2577 144.015 68.2829 144.229C68.3208 144.481 68.3587 144.746 68.3965 145.011C68.4723 145.579 68.548 146.16 68.5985 146.74C68.6111 146.929 68.6364 147.119 68.6616 147.308C68.7247 148.065 68.7752 148.835 68.8005 149.617C68.8257 150.21 68.8384 150.816 68.8384 151.422V159.497C68.8384 160.381 68.8005 161.251 68.75 162.109C68.7374 162.336 68.7247 162.576 68.7121 162.803C68.6869 163.119 68.6616 163.422 68.6364 163.725C68.6111 164.015 68.5733 164.305 68.548 164.595C68.5101 164.898 68.4723 165.201 68.4344 165.504C68.3965 165.794 68.346 166.097 68.3082 166.387C68.2703 166.627 68.2324 166.854 68.1819 167.081C68.1188 167.396 68.0683 167.699 67.9926 168.002C67.9421 168.229 67.8916 168.456 67.8411 168.684C67.7653 168.999 67.6896 169.314 67.6012 169.63C67.5507 169.819 67.5002 170.008 67.4497 170.198C67.3487 170.551 67.2477 170.892 67.1341 171.245C67.0836 171.397 67.0458 171.535 66.9953 171.687C66.8312 172.166 66.667 172.646 66.4777 173.113C66.4398 173.201 66.4146 173.277 66.3767 173.365C66.2252 173.744 66.0611 174.135 65.897 174.501C65.8212 174.665 65.7455 174.841 65.6571 175.005C65.5183 175.296 65.3794 175.586 65.2405 175.876C65.1522 176.053 65.0512 176.229 64.9628 176.406C64.8239 176.671 64.6851 176.923 64.5336 177.176C64.4074 177.39 64.2811 177.605 64.1549 177.819C64.016 178.059 63.8645 178.286 63.713 178.526C63.5742 178.74 63.4353 178.942 63.2964 179.144C63.1576 179.346 63.0187 179.548 62.8799 179.737C62.6526 180.065 62.4128 180.381 62.1603 180.696C62.0341 180.86 61.8952 181.037 61.769 181.201C61.4786 181.554 61.1756 181.895 60.8727 182.248C60.7717 182.362 60.6707 182.475 60.5697 182.589C60.1783 183.018 59.7744 183.435 59.3578 183.838C57.7798 185.378 56.0756 186.715 54.2577 187.864C53.3488 188.444 52.402 188.961 51.4299 189.441C48.0215 191.119 44.2469 192.204 40.081 192.709C38.301 192.924 36.4453 193.037 34.5265 193.037H46.6455C56.8835 193.037 65.1522 189.971 71.4768 183.838C71.8934 183.435 72.2973 183.018 72.6887 182.589C72.7139 182.564 72.7265 182.551 72.7518 182.526C72.8402 182.438 72.9033 182.337 72.9916 182.248C73.2946 181.908 73.5976 181.554 73.8879 181.201C74.0268 181.037 74.153 180.873 74.2793 180.696C74.5191 180.381 74.759 180.065 74.9988 179.737C75.062 179.636 75.1503 179.548 75.2135 179.447C75.2892 179.346 75.3523 179.233 75.4154 179.132C75.5543 178.93 75.6932 178.715 75.832 178.513C75.9835 178.286 76.1224 178.046 76.2739 177.807C76.4001 177.592 76.5263 177.378 76.6526 177.163C76.7157 177.05 76.7914 176.936 76.8546 176.822C76.9303 176.684 77.0061 176.532 77.0818 176.393C77.1702 176.217 77.2712 176.04 77.3595 175.863C77.4984 175.573 77.6373 175.283 77.7761 174.993C77.8519 174.829 77.9402 174.652 78.016 174.488C78.0412 174.438 78.0665 174.374 78.0917 174.324C78.2306 174.009 78.3568 173.68 78.4957 173.352C78.5336 173.264 78.5714 173.188 78.5967 173.1C78.7608 172.658 78.9249 172.217 79.0764 171.775C79.0764 171.737 79.1016 171.712 79.1142 171.674C79.1647 171.535 79.2026 171.384 79.2531 171.245C79.3667 170.892 79.4677 170.551 79.5687 170.198C79.6192 170.008 79.6697 169.832 79.7202 169.643C79.7707 169.453 79.8212 169.264 79.8717 169.062C79.8969 168.936 79.9222 168.81 79.9601 168.684C80.0105 168.456 80.061 168.229 80.1115 168.002C80.1747 167.699 80.2378 167.384 80.3009 167.068C80.3388 166.841 80.3893 166.602 80.4271 166.374C80.4524 166.248 80.4776 166.135 80.4903 166.008C80.5155 165.832 80.5281 165.655 80.5534 165.491C80.5912 165.188 80.6418 164.898 80.667 164.595C80.7049 164.305 80.7301 164.015 80.7554 163.725C80.7806 163.422 80.8059 163.106 80.8311 162.803C80.8311 162.677 80.8564 162.551 80.869 162.425C80.869 162.324 80.869 162.21 80.869 162.109C80.9195 161.251 80.9573 160.381 80.9573 159.497V151.422L80.9321 151.396Z" fill="#4C1A84"/>
<path d="M122.528 266.375C122.225 266.375 121.922 266.35 121.619 266.337C121.379 266.325 121.139 266.312 120.912 266.287C120.622 266.262 120.344 266.211 120.066 266.161C119.915 266.136 119.776 266.123 119.624 266.085C119.208 265.997 118.804 265.896 118.413 265.77C118.349 265.757 118.299 265.732 118.248 265.706C117.908 265.593 117.579 265.467 117.264 265.328C117.125 265.265 116.999 265.202 116.86 265.139C116.62 265.025 116.38 264.899 116.153 264.773C115.989 264.684 115.825 264.583 115.661 264.483C115.471 264.369 115.282 264.243 115.092 264.104C114.853 263.94 114.625 263.751 114.386 263.574C114.209 263.423 114.019 263.284 113.843 263.132C113.767 263.069 113.691 262.994 113.615 262.918C113.313 262.628 113.01 262.325 112.719 262.009C112.505 261.757 112.303 261.505 112.101 261.252C111.937 261.05 111.785 260.848 111.634 260.646C111.495 260.457 111.368 260.268 111.242 260.079C111.103 259.864 110.977 259.662 110.851 259.435C110.737 259.233 110.624 259.031 110.523 258.829C110.409 258.615 110.295 258.388 110.194 258.161C110.106 257.959 110.018 257.744 109.929 257.53C109.841 257.303 109.753 257.063 109.664 256.836C109.588 256.596 109.513 256.369 109.437 256.116C109.386 255.94 109.336 255.763 109.298 255.587C109.235 255.322 109.172 255.044 109.121 254.766C109.083 254.59 109.046 254.426 109.02 254.249C108.957 253.845 108.894 253.429 108.869 253C108.869 252.937 108.869 252.861 108.869 252.798C108.831 252.356 108.818 251.902 108.818 251.435V243.031C108.818 242.463 108.844 241.908 108.869 241.378C108.907 240.772 108.97 240.179 109.058 239.599C109.096 239.359 109.147 239.132 109.184 238.892C109.235 238.615 109.285 238.324 109.349 238.059C109.424 237.731 109.525 237.416 109.614 237.1C109.652 236.962 109.689 236.81 109.74 236.659C109.891 236.217 110.056 235.788 110.232 235.372C110.283 235.271 110.333 235.17 110.384 235.069C110.523 234.766 110.674 234.463 110.838 234.173C110.952 233.984 111.065 233.794 111.192 233.618C111.318 233.416 111.444 233.214 111.57 233.025C111.861 232.621 112.164 232.23 112.492 231.864C112.669 231.675 112.845 231.498 113.035 231.321C113.186 231.17 113.338 231.018 113.489 230.88C113.666 230.716 113.855 230.577 114.045 230.438C114.209 230.312 114.36 230.173 114.524 230.059C114.714 229.921 114.928 229.807 115.118 229.681C115.294 229.58 115.459 229.454 115.635 229.365C115.85 229.252 116.065 229.151 116.279 229.05C116.456 228.962 116.633 228.873 116.809 228.798C117.037 228.697 117.289 228.621 117.529 228.545C117.706 228.482 117.882 228.406 118.072 228.356C118.324 228.28 118.602 228.23 118.867 228.167C119.044 228.129 119.221 228.078 119.41 228.04C119.713 227.99 120.041 227.952 120.357 227.914C120.508 227.902 120.66 227.864 120.824 227.851C121.303 227.813 121.796 227.788 122.301 227.788H110.182C109.677 227.788 109.184 227.813 108.705 227.851C108.541 227.864 108.402 227.889 108.238 227.914C107.922 227.952 107.606 227.99 107.291 228.04C107.102 228.078 106.937 228.129 106.748 228.167C106.483 228.23 106.218 228.28 105.953 228.356C105.763 228.406 105.587 228.482 105.41 228.545C105.17 228.634 104.93 228.697 104.69 228.798C104.501 228.873 104.337 228.974 104.16 229.05C103.946 229.151 103.718 229.252 103.516 229.365C103.34 229.466 103.175 229.58 102.999 229.681C102.797 229.807 102.595 229.921 102.405 230.059C102.241 230.173 102.09 230.312 101.926 230.438C101.736 230.589 101.547 230.728 101.37 230.88C101.219 231.018 101.067 231.182 100.916 231.321C100.752 231.473 100.588 231.624 100.436 231.788L100.373 231.851C100.045 232.217 99.7291 232.608 99.4514 233.012C99.4388 233.037 99.4136 233.063 99.3883 233.088C99.2747 233.252 99.1737 233.441 99.0601 233.605C98.9465 233.794 98.8202 233.971 98.7066 234.16C98.694 234.186 98.6687 234.211 98.6561 234.236C98.5046 234.501 98.3784 234.779 98.2522 235.056C98.2017 235.157 98.1512 235.258 98.1007 235.359C98.1007 235.359 98.1007 235.384 98.088 235.384C97.9113 235.776 97.7598 236.179 97.621 236.596C97.621 236.608 97.621 236.621 97.621 236.634C97.5705 236.772 97.5326 236.924 97.4947 237.063C97.4063 237.353 97.318 237.63 97.2422 237.921C97.2422 237.946 97.2422 237.984 97.2296 238.009C97.1665 238.274 97.116 238.564 97.0655 238.842C97.0276 239.056 96.9771 239.258 96.9393 239.473C96.9393 239.498 96.9393 239.523 96.9393 239.548C96.8509 240.129 96.7878 240.709 96.7499 241.328C96.7499 241.34 96.7499 241.366 96.7499 241.378C96.712 241.895 96.6994 242.438 96.6994 242.981V251.385C96.6994 251.599 96.6994 251.814 96.6994 252.015C96.6994 252.268 96.7247 252.508 96.7499 252.747C96.7499 252.81 96.7499 252.874 96.7499 252.949C96.7751 253.303 96.8256 253.656 96.8761 254.009C96.8761 254.072 96.9014 254.135 96.914 254.198C96.9393 254.375 96.9771 254.539 97.015 254.716C97.0655 254.993 97.1286 255.271 97.1917 255.536C97.2422 255.713 97.2801 255.889 97.3306 256.066C97.3685 256.205 97.3937 256.331 97.4442 256.47C97.4821 256.571 97.52 256.672 97.5578 256.785C97.6336 257.025 97.7219 257.252 97.8229 257.479C97.9113 257.694 97.9997 257.896 98.088 258.11C98.189 258.337 98.3026 258.552 98.4163 258.779C98.5173 258.981 98.6309 259.183 98.7445 259.385C98.8707 259.599 98.997 259.814 99.1358 260.028C99.2621 260.217 99.3883 260.407 99.5272 260.596C99.6786 260.798 99.8301 261 99.9943 261.202C100.083 261.315 100.158 261.441 100.259 261.542C100.373 261.681 100.499 261.82 100.613 261.959C100.903 262.287 101.206 262.577 101.509 262.867C101.585 262.943 101.661 263.006 101.736 263.082C101.812 263.145 101.888 263.221 101.964 263.296C102.065 263.385 102.166 263.448 102.279 263.536C102.506 263.725 102.746 263.902 102.986 264.066C103.062 264.117 103.138 264.18 103.213 264.23C103.327 264.306 103.441 264.369 103.554 264.432C103.718 264.533 103.882 264.634 104.047 264.722C104.122 264.773 104.198 264.823 104.286 264.861C104.438 264.949 104.602 265.012 104.766 265.088C104.905 265.151 105.031 265.214 105.17 265.277C105.221 265.303 105.271 265.328 105.322 265.353C105.599 265.467 105.877 265.568 106.155 265.656C106.218 265.681 106.268 265.694 106.319 265.719C106.319 265.719 106.331 265.719 106.344 265.719C106.698 265.833 107.064 265.921 107.43 266.009C107.455 266.009 107.493 266.009 107.531 266.022C107.67 266.047 107.821 266.072 107.973 266.098C108.2 266.136 108.414 266.186 108.642 266.211C108.705 266.211 108.755 266.211 108.818 266.224C109.046 266.249 109.285 266.262 109.525 266.274C109.702 266.274 109.879 266.312 110.056 266.312C110.182 266.312 110.295 266.312 110.422 266.312H122.541L122.528 266.375Z" fill="#4C1A84"/>
<path d="M118.147 142.866H130.254L52.8438 270.527H40.7249L118.147 142.866Z" fill="#4C1A84"/>
<path d="M102.797 134.336L118.147 142.866L40.7249 270.527L25.3741 262.009L102.797 134.336Z" fill="#F5A3D3"/>
<path d="M102.797 134.336H114.903L130.254 142.866H118.147L102.797 134.336Z" fill="#4C1A84"/>
<path d="M135.19 218.198C141.552 224.293 144.721 232.697 144.721 243.385V251.461C144.721 261.48 141.59 269.581 135.354 275.751C129.105 281.921 120.798 285 110.422 285C99.969 285 91.574 281.896 85.2621 275.688C78.9501 269.48 75.7815 261.252 75.7815 251.019V242.716C75.7815 232.621 78.9754 224.495 85.3631 218.325C91.7508 212.154 100.032 209.075 110.194 209.075C120.357 209.075 128.827 212.129 135.177 218.211L135.19 218.198ZM123.702 251.233V242.703C123.702 238.224 122.465 234.602 120.003 231.877C117.541 229.138 114.272 227.776 110.207 227.776C106.142 227.776 102.872 229.138 100.398 231.877C97.9365 234.602 96.6994 238.325 96.6994 243.031V251.435C96.6994 255.549 97.9996 259.069 100.613 261.984C103.226 264.899 106.496 266.35 110.422 266.35C119.284 266.35 123.702 261.303 123.702 251.208" fill="#F5A3D3"/>
<path d="M156.84 243.384C156.84 242.804 156.84 242.224 156.815 241.643C156.815 241.605 156.815 241.58 156.815 241.542C156.789 240.747 156.739 239.965 156.676 239.208C156.663 239.006 156.638 238.817 156.613 238.615C156.549 238.022 156.486 237.441 156.411 236.873C156.398 236.747 156.385 236.608 156.36 236.495C156.335 236.356 156.31 236.23 156.297 236.091C156.259 235.877 156.234 235.675 156.196 235.46C156.133 235.107 156.07 234.753 155.994 234.413C155.956 234.211 155.918 234.009 155.868 233.807C155.779 233.441 155.691 233.063 155.603 232.709C155.565 232.545 155.527 232.381 155.476 232.217C155.338 231.7 155.186 231.195 155.035 230.69C155.035 230.69 155.035 230.69 155.035 230.678C155.022 230.627 154.997 230.564 154.971 230.514C154.82 230.059 154.669 229.605 154.504 229.164C154.441 228.999 154.366 228.835 154.302 228.659C154.176 228.331 154.05 228.015 153.911 227.7C153.835 227.51 153.747 227.321 153.659 227.145C153.52 226.854 153.393 226.564 153.255 226.274C153.166 226.085 153.065 225.895 152.964 225.706C152.825 225.428 152.674 225.151 152.522 224.886C152.421 224.709 152.32 224.52 152.207 224.343C152.043 224.066 151.879 223.801 151.715 223.536C151.601 223.372 151.5 223.195 151.386 223.031C151.197 222.753 150.995 222.476 150.806 222.198C150.705 222.059 150.604 221.921 150.503 221.782C150.225 221.403 149.935 221.037 149.632 220.684C149.606 220.646 149.581 220.608 149.543 220.583C149.316 220.318 149.076 220.053 148.836 219.788C148.71 219.649 148.596 219.51 148.47 219.372C148.104 218.968 147.713 218.589 147.321 218.211C146.905 217.807 146.488 217.428 146.046 217.062C146.034 217.05 146.008 217.037 145.996 217.012C145.895 216.924 145.781 216.835 145.668 216.747C145.339 216.469 145.011 216.204 144.683 215.952C144.506 215.813 144.33 215.7 144.153 215.561C143.862 215.346 143.559 215.132 143.256 214.93C143.181 214.879 143.118 214.829 143.042 214.779C142.89 214.678 142.739 214.589 142.587 214.488C142.373 214.349 142.158 214.211 141.944 214.084C141.704 213.933 141.464 213.794 141.211 213.655C140.997 213.529 140.77 213.403 140.555 213.277C140.479 213.239 140.403 213.189 140.34 213.151C140.151 213.05 139.949 212.949 139.747 212.848C139.558 212.747 139.368 212.659 139.179 212.558C138.876 212.419 138.586 212.28 138.283 212.154C138.106 212.078 137.929 211.99 137.752 211.914C137.715 211.901 137.689 211.889 137.651 211.864C137.311 211.725 136.97 211.599 136.616 211.46C136.503 211.422 136.389 211.372 136.275 211.321C135.796 211.144 135.303 210.98 134.811 210.816C134.798 210.816 134.786 210.816 134.773 210.804C134.596 210.753 134.407 210.703 134.23 210.652C133.877 210.551 133.536 210.45 133.183 210.349C132.968 210.299 132.753 210.248 132.526 210.198C132.248 210.135 131.958 210.059 131.68 209.996C131.642 209.996 131.592 209.983 131.554 209.971C131.213 209.895 130.872 209.845 130.532 209.769C130.279 209.719 130.039 209.668 129.787 209.63C129.421 209.567 129.055 209.517 128.676 209.466C128.461 209.441 128.259 209.403 128.045 209.378C128.032 209.378 128.007 209.378 127.994 209.378C127.325 209.302 126.643 209.226 125.962 209.176C125.772 209.163 125.57 209.151 125.381 209.138C124.876 209.113 124.371 209.075 123.853 209.062C123.752 209.062 123.664 209.062 123.563 209.05C123.159 209.05 122.755 209.037 122.339 209.037H110.22C110.725 209.037 111.23 209.05 111.734 209.062C112.252 209.075 112.757 209.1 113.262 209.138C113.451 209.138 113.653 209.163 113.843 209.176C114.537 209.226 115.206 209.289 115.875 209.378C116.102 209.403 116.33 209.441 116.557 209.479C116.936 209.529 117.302 209.58 117.668 209.643C117.92 209.681 118.16 209.731 118.4 209.782C118.741 209.845 119.082 209.908 119.422 209.983C119.751 210.059 120.066 210.135 120.395 210.211C120.609 210.261 120.836 210.312 121.051 210.362C121.404 210.45 121.758 210.564 122.099 210.665C122.275 210.715 122.465 210.766 122.642 210.816C123.159 210.98 123.664 211.144 124.156 211.334C124.27 211.372 124.384 211.422 124.497 211.472C124.876 211.611 125.255 211.763 125.633 211.914C125.81 211.99 125.987 212.078 126.164 212.154C126.467 212.293 126.77 212.419 127.06 212.558C127.249 212.646 127.439 212.747 127.628 212.848C127.906 212.987 128.171 213.125 128.436 213.264C128.663 213.39 128.878 213.517 129.092 213.643C129.332 213.782 129.585 213.92 129.812 214.072C130.027 214.198 130.241 214.337 130.456 214.476C130.683 214.614 130.91 214.766 131.125 214.917C131.428 215.119 131.718 215.334 132.021 215.561C132.198 215.687 132.375 215.813 132.539 215.939C132.88 216.204 133.208 216.469 133.536 216.747C133.662 216.848 133.789 216.949 133.902 217.05C134.331 217.416 134.761 217.807 135.177 218.198C135.568 218.577 135.96 218.968 136.326 219.359C136.465 219.51 136.604 219.674 136.743 219.826C136.97 220.078 137.197 220.318 137.412 220.583C137.437 220.621 137.475 220.659 137.5 220.697C137.79 221.05 138.081 221.416 138.358 221.794C138.459 221.933 138.56 222.072 138.661 222.211C138.863 222.488 139.053 222.766 139.242 223.044C139.356 223.208 139.457 223.384 139.57 223.548C139.734 223.813 139.911 224.078 140.063 224.356C140.164 224.533 140.277 224.722 140.378 224.898C140.53 225.163 140.681 225.441 140.82 225.719C140.921 225.908 141.009 226.097 141.11 226.287C141.249 226.577 141.388 226.854 141.514 227.157C141.603 227.346 141.691 227.523 141.767 227.712C141.906 228.028 142.032 228.356 142.158 228.671C142.221 228.835 142.297 228.999 142.36 229.176C142.524 229.618 142.676 230.072 142.827 230.526C142.84 230.577 142.865 230.64 142.89 230.69C143.054 231.195 143.206 231.712 143.345 232.23C143.383 232.394 143.421 232.558 143.471 232.722C143.559 233.088 143.648 233.454 143.736 233.82C143.774 234.022 143.825 234.224 143.862 234.425C143.938 234.779 144.001 235.119 144.064 235.473C144.102 235.687 144.14 235.889 144.165 236.104C144.203 236.356 144.241 236.621 144.279 236.886C144.355 237.454 144.43 238.047 144.481 238.627C144.506 238.829 144.519 239.019 144.544 239.22C144.607 239.99 144.658 240.772 144.683 241.555C144.708 242.16 144.721 242.766 144.721 243.384V251.46C144.721 252.344 144.683 253.214 144.645 254.06C144.632 254.287 144.62 254.514 144.607 254.741C144.582 255.057 144.557 255.359 144.531 255.662C144.506 255.952 144.481 256.243 144.443 256.533C144.405 256.836 144.367 257.139 144.33 257.441C144.292 257.732 144.241 258.022 144.203 258.312C144.165 258.552 144.128 258.779 144.077 259.006C144.014 259.322 143.963 259.624 143.9 259.927C143.85 260.154 143.799 260.382 143.749 260.609C143.673 260.924 143.597 261.24 143.522 261.542C143.471 261.732 143.421 261.934 143.37 262.123C143.282 262.451 143.181 262.779 143.08 263.107C143.029 263.271 142.979 263.435 142.928 263.599C142.777 264.066 142.613 264.52 142.436 264.975C142.436 265 142.423 265.012 142.411 265.038C142.234 265.505 142.032 265.971 141.83 266.426C141.754 266.59 141.678 266.741 141.603 266.905C141.464 267.208 141.325 267.511 141.174 267.801C141.085 267.978 140.984 268.154 140.896 268.331C140.757 268.596 140.618 268.861 140.467 269.113C140.34 269.341 140.214 269.555 140.075 269.77C139.936 269.997 139.798 270.237 139.646 270.464C139.507 270.678 139.368 270.893 139.217 271.107C139.078 271.309 138.926 271.524 138.788 271.725C138.535 272.079 138.27 272.42 138.005 272.76C137.891 272.899 137.79 273.05 137.677 273.189C137.298 273.669 136.894 274.123 136.477 274.577C136.124 274.968 135.758 275.347 135.379 275.726C132.261 278.804 128.613 281.126 124.459 282.666C121.859 283.625 119.069 284.293 116.064 284.659C115.459 284.735 114.853 284.786 114.234 284.836C112.997 284.937 111.734 284.975 110.434 284.975H122.553C132.93 284.975 141.237 281.883 147.485 275.726C147.852 275.36 148.218 274.981 148.571 274.602C148.571 274.602 148.584 274.59 148.596 274.577C149.013 274.123 149.404 273.656 149.796 273.189C149.909 273.05 150.01 272.912 150.124 272.773C150.389 272.432 150.654 272.079 150.907 271.725C150.957 271.65 151.02 271.574 151.083 271.498C151.172 271.372 151.26 271.233 151.336 271.107C151.475 270.893 151.626 270.678 151.765 270.464C151.916 270.237 152.055 269.997 152.194 269.77C152.32 269.555 152.459 269.328 152.586 269.113C152.636 269.025 152.699 268.937 152.75 268.836C152.838 268.672 152.926 268.495 153.015 268.319C153.103 268.142 153.204 267.965 153.293 267.789C153.444 267.498 153.583 267.195 153.722 266.893C153.797 266.729 153.873 266.577 153.949 266.413C153.962 266.375 153.987 266.337 153.999 266.3C154.189 265.883 154.353 265.454 154.53 265.025C154.53 265 154.542 264.987 154.555 264.962C154.706 264.558 154.858 264.142 154.997 263.725C155.009 263.675 155.022 263.637 155.035 263.587C155.085 263.423 155.136 263.259 155.186 263.094C155.287 262.766 155.388 262.438 155.476 262.11C155.527 261.921 155.577 261.719 155.628 261.53C155.678 261.353 155.729 261.176 155.767 261C155.805 260.861 155.83 260.735 155.855 260.596C155.906 260.369 155.956 260.142 156.007 259.915C156.07 259.612 156.133 259.296 156.183 258.993C156.221 258.766 156.272 258.527 156.31 258.299C156.335 258.186 156.347 258.072 156.373 257.959C156.398 257.782 156.423 257.605 156.436 257.429C156.474 257.126 156.524 256.836 156.549 256.52C156.587 256.23 156.613 255.94 156.638 255.65C156.663 255.347 156.701 255.031 156.714 254.728C156.714 254.602 156.739 254.489 156.751 254.363C156.751 254.262 156.751 254.148 156.751 254.047C156.802 253.189 156.827 252.331 156.827 251.448V243.372L156.84 243.384Z" fill="#4C1A84"/>
</g>
<defs>
<clipPath id="clip0_959_10498">
<rect width="261" height="285" fill="white"/>
</clipPath>
</defs>
</svg>
