<svg width="45" height="36" viewBox="0 0 45 36" fill="none" xmlns="http://www.w3.org/2000/svg">
<path d="M7.43485 9.92924C8.01924 9.08325 8.67416 8.26354 9.3996 7.46484C10.0293 6.8448 10.6137 6.24578 11.2938 5.79389C11.9236 6.21951 12.6289 6.57157 13.2384 6.96566C12.4878 7.9325 11.7069 8.9046 11.1477 9.95026C11.319 10.0291 11.6364 10.0028 11.8782 9.95026C12.4828 9.03071 13.1427 8.1059 13.9185 7.28619C14.9614 7.68554 15.984 8.1059 17.0521 8.40541L17.1478 8.50525L16.5432 9.95026C16.8102 10.0028 16.9815 9.97653 17.2485 9.95026C17.4652 9.52989 17.6365 9.05698 17.8783 8.63136C19.2889 8.95714 20.77 9.13054 22.2763 9.17783C22.4728 9.35649 22.3267 9.72956 22.3972 9.95026H23.0521C23.1226 9.70329 23.0269 9.4248 23.1226 9.20936C24.5332 9.13054 26.0144 8.98341 27.3796 8.63136L27.5005 8.65763L28.1554 9.95026C28.3771 9.95026 28.6643 10.0028 28.8355 9.89771L28.226 8.45796L28.2763 8.40541C29.3897 8.1059 30.4376 7.65926 31.5056 7.21262C32.2613 8.03234 32.9615 9.00443 33.5963 9.95026C33.8633 9.95026 34.1303 9.97653 34.3217 9.89771C34.0295 9.35123 33.6618 8.80476 33.2789 8.32659C32.9615 7.85368 32.624 7.43332 32.2109 6.98668V6.86057L33.9137 5.84118L34.1605 5.74134C35.6417 6.91311 36.9515 8.32659 37.9994 9.89771C38.2915 9.89771 38.5334 10.0028 38.7752 9.87669C35.5207 4.80078 30.1504 1.53769 24.3468 1.07003L24.3216 1.11732L24.2713 1.07003C23.6164 0.996469 22.8103 0.970196 22.11 1.04376C21.843 1.02274 21.5307 1.04376 21.2133 1.07003C15.3845 1.53769 10.0142 4.65365 6.66406 9.95551C6.90588 9.92924 7.19807 10.0343 7.43989 9.92924H7.43485ZM17.5155 7.74334L17.4198 7.76435C16.4223 7.49112 15.45 7.16533 14.5281 6.74497L14.5735 6.59259C15.9085 5.27369 17.3191 4.17548 18.8758 3.3295C19.2435 3.48188 19.6062 3.60274 19.969 3.78139L19.8984 3.97581C18.9765 5.17385 18.246 6.46648 17.5206 7.73808L17.5155 7.74334ZM22.3468 8.41592C21.6667 8.51576 21.0622 8.3949 20.377 8.3371C19.7221 8.23727 18.8959 8.1637 18.241 7.93776C18.9463 6.57682 19.7725 5.25267 20.77 4.03361L22.3267 4.2543C22.3972 5.54693 22.3519 7.04448 22.3519 8.41067L22.3468 8.41592ZM23.0975 8.44219C23.0471 7.11804 23.0723 5.65202 23.0975 4.28057C23.5861 4.20701 24.1151 4.12819 24.6038 4.05988C25.5509 5.29996 26.4778 6.57682 27.1076 7.93776C25.7927 8.26354 24.4577 8.44219 23.0975 8.44219ZM30.8507 6.69768C29.9036 7.11804 28.9262 7.51739 27.8834 7.74334C27.1328 6.42444 26.3066 5.10554 25.3796 3.82868C25.7222 3.63426 26.1353 3.48713 26.498 3.28746C28.0799 4.10717 29.6114 5.27894 30.896 6.61886L30.8507 6.69768ZM27.7373 2.44148C29.7776 2.99321 31.697 3.93377 33.4452 5.23165L33.3948 5.33149L31.7172 6.30358H31.5963C30.3116 4.96367 28.8053 3.7919 27.2738 2.8671C27.3242 2.69369 27.566 2.56759 27.7373 2.44148ZM26.765 2.19451V2.24706C24.6491 3.83919 21.2234 3.98632 18.9916 2.52029C18.8657 2.42046 18.6239 2.37317 18.5987 2.19977C21.173 1.57973 24.2108 1.52718 26.765 2.19977V2.19451ZM11.9437 5.2842C13.4752 4.11243 15.178 3.24542 16.9715 2.6464C17.047 2.56759 17.0924 2.49402 17.1881 2.49402V2.54657C17.3846 2.59386 17.5307 2.36791 17.6969 2.52029C17.843 2.6464 18.0143 2.74624 18.1352 2.87235C16.6289 3.83919 15.1478 4.98994 13.7876 6.3824C13.1326 6.13544 12.5231 5.76236 11.9387 5.33674V5.28945L11.9437 5.2842Z" fill="#4C1A84"/>
<rect width="42.5" height="11" transform="translate(1 12.998)" fill="#C20A75"/>
<path d="M5.568 15.7694V21.4094H4V15.7694H5.568Z" fill="white"/>
<path d="M8.58894 21.4654C7.93294 21.4654 7.39427 21.3107 6.97294 21.0014C6.5516 20.6867 6.32494 20.2387 6.29294 19.6574H7.96494C7.98094 19.8547 8.0396 19.9987 8.14094 20.0894C8.24227 20.1801 8.37294 20.2254 8.53294 20.2254C8.67694 20.2254 8.79427 20.1907 8.88494 20.1214C8.98094 20.0467 9.02894 19.9454 9.02894 19.8174C9.02894 19.6521 8.9516 19.5241 8.79694 19.4334C8.64227 19.3427 8.3916 19.2414 8.04494 19.1294C7.67694 19.0067 7.37827 18.8894 7.14894 18.7774C6.92494 18.6601 6.7276 18.4921 6.55694 18.2734C6.3916 18.0494 6.30894 17.7587 6.30894 17.4014C6.30894 17.0387 6.3996 16.7294 6.58094 16.4734C6.76227 16.2121 7.01294 16.0147 7.33294 15.8814C7.65294 15.7481 8.0156 15.6814 8.42094 15.6814C9.07694 15.6814 9.5996 15.8361 9.98894 16.1454C10.3836 16.4494 10.5943 16.8787 10.6209 17.4334H8.91694C8.9116 17.2627 8.85827 17.1347 8.75694 17.0494C8.66094 16.9641 8.5356 16.9214 8.38094 16.9214C8.2636 16.9214 8.1676 16.9561 8.09294 17.0254C8.01827 17.0947 7.98094 17.1934 7.98094 17.3214C7.98094 17.4281 8.02094 17.5214 8.10094 17.6014C8.18627 17.6761 8.29027 17.7427 8.41294 17.8014C8.5356 17.8547 8.71694 17.9241 8.95694 18.0094C9.31427 18.1321 9.6076 18.2547 9.83694 18.3774C10.0716 18.4947 10.2716 18.6627 10.4369 18.8814C10.6076 19.0947 10.6929 19.3667 10.6929 19.6974C10.6929 20.0334 10.6076 20.3347 10.4369 20.6014C10.2716 20.8681 10.0289 21.0787 9.70894 21.2334C9.39427 21.3881 9.02094 21.4654 8.58894 21.4654Z" fill="white"/>
<path d="M14.1259 21.4654C13.5979 21.4654 13.1125 21.3427 12.6699 21.0974C12.2272 20.8467 11.8752 20.5027 11.6139 20.0654C11.3579 19.6227 11.2299 19.1241 11.2299 18.5694C11.2299 18.0147 11.3579 17.5187 11.6139 17.0814C11.8752 16.6387 12.2272 16.2947 12.6699 16.0494C13.1125 15.8041 13.5979 15.6814 14.1259 15.6814C14.6592 15.6814 15.1445 15.8041 15.5819 16.0494C16.0245 16.2947 16.3739 16.6387 16.6299 17.0814C16.8859 17.5187 17.0139 18.0147 17.0139 18.5694C17.0139 19.1241 16.8859 19.6227 16.6299 20.0654C16.3739 20.5027 16.0245 20.8467 15.5819 21.0974C15.1392 21.3427 14.6539 21.4654 14.1259 21.4654ZM14.1259 20.0094C14.5259 20.0094 14.8405 19.8787 15.0699 19.6174C15.3045 19.3561 15.4219 19.0067 15.4219 18.5694C15.4219 18.1214 15.3045 17.7694 15.0699 17.5134C14.8405 17.2521 14.5259 17.1214 14.1259 17.1214C13.7205 17.1214 13.4032 17.2521 13.1739 17.5134C12.9445 17.7694 12.8299 18.1214 12.8299 18.5694C12.8299 19.0121 12.9445 19.3641 13.1739 19.6254C13.4032 19.8814 13.7205 20.0094 14.1259 20.0094Z" fill="white"/>
<path d="M19.066 20.1534C19.5833 19.7481 20.0073 19.3987 20.338 19.1054C20.6687 18.8121 20.946 18.5107 21.17 18.2014C21.394 17.8867 21.506 17.5881 21.506 17.3054C21.506 17.1347 21.466 17.0014 21.386 16.9054C21.3113 16.8094 21.1993 16.7614 21.05 16.7614C20.8953 16.7614 20.7753 16.8281 20.69 16.9614C20.6047 17.0894 20.5647 17.2787 20.57 17.5294H19.05C19.066 17.0547 19.17 16.6627 19.362 16.3534C19.554 16.0387 19.8047 15.8094 20.114 15.6654C20.4233 15.5161 20.7673 15.4414 21.146 15.4414C21.802 15.4414 22.29 15.6041 22.61 15.9294C22.93 16.2547 23.09 16.6761 23.09 17.1934C23.09 17.7481 22.9033 18.2681 22.53 18.7534C22.162 19.2387 21.7007 19.6734 21.146 20.0574H23.146V21.3294H19.066V20.1534Z" fill="white"/>
<path d="M27.4127 16.7294L25.4927 21.4094H23.8847L25.8207 16.9134H23.5407V15.5694H27.4127V16.7294Z" fill="white"/>
<path d="M27.8562 18.4014C27.8562 17.4841 28.0429 16.7614 28.4162 16.2334C28.7895 15.7054 29.3762 15.4414 30.1762 15.4414C30.9762 15.4414 31.5629 15.7054 31.9362 16.2334C32.3149 16.7614 32.5042 17.4841 32.5042 18.4014C32.5042 19.3294 32.3175 20.0574 31.9442 20.5854C31.5709 21.1134 30.9815 21.3774 30.1762 21.3774C29.3709 21.3774 28.7815 21.1134 28.4082 20.5854C28.0402 20.0574 27.8562 19.3294 27.8562 18.4014ZM30.9522 18.4014C30.9522 17.9214 30.9015 17.5561 30.8002 17.3054C30.6989 17.0494 30.4909 16.9214 30.1762 16.9214C29.8615 16.9214 29.6535 17.0494 29.5522 17.3054C29.4509 17.5561 29.4002 17.9214 29.4002 18.4014C29.4002 18.8921 29.4482 19.2654 29.5442 19.5214C29.6455 19.7721 29.8562 19.8974 30.1762 19.8974C30.4962 19.8974 30.7042 19.7721 30.8002 19.5214C30.9015 19.2654 30.9522 18.8921 30.9522 18.4014Z" fill="white"/>
<path d="M33.114 18.4014C33.114 17.4841 33.3007 16.7614 33.674 16.2334C34.0473 15.7054 34.634 15.4414 35.434 15.4414C36.234 15.4414 36.8207 15.7054 37.194 16.2334C37.5727 16.7614 37.762 17.4841 37.762 18.4014C37.762 19.3294 37.5753 20.0574 37.202 20.5854C36.8287 21.1134 36.2393 21.3774 35.434 21.3774C34.6287 21.3774 34.0393 21.1134 33.666 20.5854C33.298 20.0574 33.114 19.3294 33.114 18.4014ZM36.21 18.4014C36.21 17.9214 36.1593 17.5561 36.058 17.3054C35.9567 17.0494 35.7487 16.9214 35.434 16.9214C35.1193 16.9214 34.9113 17.0494 34.81 17.3054C34.7087 17.5561 34.658 17.9214 34.658 18.4014C34.658 18.8921 34.706 19.2654 34.802 19.5214C34.9033 19.7721 35.114 19.8974 35.434 19.8974C35.754 19.8974 35.962 19.7721 36.058 19.5214C36.1593 19.2654 36.21 18.8921 36.21 18.4014Z" fill="white"/>
<path d="M38.2038 17.0334V15.5614H40.6678V21.4094H39.0278V17.0334H38.2038Z" fill="white"/>
<path d="M37.9775 26.0569C36.9324 27.5655 35.6079 29.0271 34.1644 30.1598C34.1127 30.2381 33.9627 30.2068 33.9161 30.1337C33.2901 29.737 32.6175 29.4186 32.0173 29.0218C32.8141 28.0561 33.5901 27.0957 34.1903 26.0255H33.4142C32.7934 26.9443 32.1415 27.91 31.3188 28.7243C30.222 28.2806 29.2234 27.8839 28.1007 27.5863L27.9765 27.4924C28.1524 26.9913 28.4732 26.5215 28.5715 26.0308H27.8989L27.2263 27.3671C25.757 27.0435 24.1324 26.8712 22.6371 26.772C22.5595 26.5528 22.663 26.2291 22.5595 26.0308H21.9128C21.8611 26.3283 21.9853 26.5528 21.8352 26.7981C20.2882 26.8712 18.793 27.0435 17.3443 27.3462L16.6666 26.0308C16.4182 26.0308 16.144 25.9838 15.9681 26.0569L16.5941 27.5185L16.5217 27.5916C15.399 27.9152 14.3021 28.3119 13.2311 28.7556L13.1328 28.7034C12.4344 27.9361 11.7618 27.1009 11.2082 26.2552C11.084 25.8324 10.5821 26.0778 10.3131 26.0308C10.9081 27.1218 11.71 28.0822 12.5068 29.074C11.8342 29.4708 11.1616 29.9145 10.458 30.2381C8.96274 29.1001 7.5658 27.6124 6.51552 26.0569C6.21544 26.0099 6.01883 26.0308 5.71875 26.0569C7.51407 28.8757 10.3131 31.35 13.2311 32.8116C13.2311 32.8116 13.2311 32.7907 13.257 32.7907C13.2777 32.7907 13.3294 32.8377 13.2777 32.8638C15.2489 33.8295 17.3443 34.5185 19.5639 34.8213C27.2212 35.834 34.5318 32.5454 38.7743 26.0621C38.5518 26.036 38.2259 26.036 37.9775 26.0621V26.0569ZM27.573 28.2858L27.6454 28.2336C28.7216 28.479 29.7408 28.8287 30.6928 29.2985C29.896 30.212 28.8716 31.0055 27.9248 31.6736C27.3505 32.0181 26.7762 32.394 26.176 32.6863L25.1051 32.2165L25.1775 32.0442C26.0777 30.8332 26.8745 29.596 27.573 28.2858ZM22.6578 27.5446C24.0806 27.5707 25.5035 27.7221 26.8228 28.0405L26.8486 28.1136C26.1502 29.4499 25.2758 30.7392 24.329 31.9451C23.9047 31.9973 23.5064 31.825 23.0821 31.7989L22.6578 31.7467C22.6061 30.2851 22.5802 29.001 22.6578 27.5394V27.5446ZM17.8462 27.9883C19.1448 27.7429 20.49 27.5446 21.8869 27.5446L21.9128 31.731C21.3851 31.8511 20.816 31.8511 20.3141 31.9764C19.2897 30.7601 18.4464 29.4499 17.722 28.0875L17.8462 27.9883ZM13.8261 29.3246C14.804 28.8548 15.8232 28.5051 16.8683 28.2336L16.9718 28.2597C17.691 29.6221 18.5912 30.9063 19.4915 32.1904C19.1448 32.3888 18.7206 32.5088 18.3687 32.7124C16.7235 31.8981 15.1506 30.7549 13.8261 29.3977V29.3246ZM17.0442 33.5528C14.9489 33.0047 13.0035 32.0651 11.203 30.781V30.7027C11.8032 30.3321 12.4033 29.9406 13.0501 29.6639C14.4729 31.0785 15.9422 32.1382 17.5409 33.1509C17.4168 33.3023 17.215 33.4484 17.0391 33.5476L17.0442 33.5528ZM26.3002 33.8712C23.6564 34.4454 20.7125 34.4663 18.0687 33.8243C18.0169 33.699 18.1928 33.6729 18.2704 33.605C20.5883 32.0964 24.2048 32.0964 26.4813 33.7251C26.5537 33.8765 26.3571 33.8243 26.3054 33.8765L26.3002 33.8712ZM28.6957 33.1822L27.5212 33.5528C27.3195 33.4536 27.1487 33.3075 26.9728 33.1561L27.0246 33.083C28.6233 32.1434 30.0668 31.0055 31.443 29.643C32.1156 29.9145 32.7675 30.2851 33.3677 30.7079C31.9707 31.825 30.3461 32.5662 28.7009 33.1822H28.6957Z" fill="#4C1A84"/>
</svg>
