<svg width="100" height="100" viewBox="0 0 100 100" fill="none" xmlns="http://www.w3.org/2000/svg">
<path d="M78.2834 78.2853C74.8799 81.6888 70.3843 83.5853 65.6252 83.6257L65.4962 83.6257C60.7832 83.6327 56.3649 81.8129 53.0525 78.5005C49.7401 75.1881 47.8869 70.6891 47.9263 65.9289L47.9877 58.6869C47.9978 57.6223 48.8758 56.7464 49.9457 56.7352C51.0103 56.7273 51.8714 57.5884 51.8666 58.6561L51.8124 64.921C51.8091 65.0531 51.8057 65.4581 51.8035 65.7138L51.802 65.895C51.7355 73.5984 57.9514 79.8143 65.6549 79.7479C69.3878 79.7172 72.9082 78.2339 75.5712 75.5709C78.2343 72.9079 79.7197 69.3853 79.7471 65.6556C79.8135 57.9522 73.5977 51.7363 65.8942 51.8027L34.0723 52.0728C29.3005 52.1091 24.8342 50.2908 21.4954 46.952C18.1566 43.6132 16.3351 39.1416 16.3756 34.374C16.4149 29.6159 18.3125 25.1192 21.716 21.7157C25.1195 18.3122 29.6162 16.4146 34.3753 16.3742C39.1398 16.3327 43.6071 18.152 46.9512 21.4961C50.2953 24.8402 52.1125 29.3055 52.0721 34.0731L52.0595 35.4339L54.7214 32.7719C55.4823 32.0111 56.712 32.0006 57.4612 32.7498C58.2103 33.4989 58.1998 34.7286 57.439 35.4895L51.4401 41.4883C50.6782 42.2503 49.4485 42.2607 48.6993 41.5116L42.8025 35.6148C42.0534 34.8657 42.0638 33.6359 42.8258 32.874C43.5877 32.112 44.8175 32.1016 45.5666 32.8507L48.1838 35.4679L48.1873 34.8029C48.1868 34.738 48.1882 34.5696 48.1906 34.4151L48.1932 34.1082C48.2259 30.3752 46.8022 26.8795 44.185 24.2624C41.5678 21.6452 38.069 20.2183 34.3382 20.2532C30.6096 20.2795 27.0892 21.7628 24.4229 24.429C21.7566 27.0953 20.2776 30.6114 20.247 34.3443C20.2132 38.0762 21.6369 41.5719 24.2552 44.1901C26.8734 46.8083 30.3638 48.2268 34.101 48.1983L65.9228 47.9281C70.683 47.8888 75.1471 49.7092 78.4933 53.0554C81.8395 56.4017 83.66 60.8658 83.6206 65.626C83.5802 70.3851 81.6827 74.8818 78.2803 78.2842L78.2834 78.2853Z" fill="#4C1A84"/>
</svg>
