<svg width="215" height="292" viewBox="0 0 215 292" fill="none" xmlns="http://www.w3.org/2000/svg">
<g clip-path="url(#clip0_959_9943)">
<rect x="181" y="267" width="16" height="13" fill="#4C1A84"/>
<path d="M4.26787 253.289L148.389 247L206.719 277.42C208.864 278.539 208.161 281.78 205.754 281.906L58.6468 289.965C53.4587 290.25 48.3273 288.8 44.0474 285.855L3.03043 257.638C1.15725 256.349 1.99735 253.392 4.26787 253.301V253.289Z" fill="#4C1A84"/>
<path d="M47.7716 275.037C47.7716 275.037 54.5504 280.108 61.2298 279.735C74.5556 279 44.7355 263.974 44.7355 263.974L47.7716 275.037Z" fill="#6F39B5"/>
<path d="M198.318 63.7156L63.3606 70.7402C54.6167 71.2122 47.7716 78.4015 47.7716 87.1055V275.037L6.98855 248.003C2.62761 245.116 0 240.243 0 235.029V72.2549C0 67.173 3.97453 62.9582 9.08622 62.6399L138.601 54.847C140.08 54.7591 141.56 54.825 143.028 55.0555L198.318 63.7046V63.7156Z" fill="#6F39B5"/>
<path d="M196.728 272.337L61.2299 279.746C53.9101 280.119 47.7717 274.324 47.7717 267.036V83.6703C47.7717 76.8981 53.1152 71.3113 59.916 70.9601L195.414 63.5512C202.734 63.1781 208.873 68.9734 208.873 76.2615V259.627C208.873 266.399 203.529 271.986 196.728 272.337Z" fill="#8254CC"/>
<path d="M193.46 265.148L63.8793 272.326C59.9599 272.534 56.6699 269.384 56.6699 265.422V87.0725C56.6699 83.3955 59.5294 80.3552 63.1727 80.1686L192.753 72.9903C196.673 72.7817 199.963 75.9318 199.963 79.8942V258.244C199.963 261.921 197.103 264.961 193.46 265.148Z" stroke="#4C1A84" stroke-miterlimit="10"/>
<path d="M191.864 250.526C194.85 248.393 196.682 245.85 195.956 244.846C195.23 243.842 192.221 244.757 189.235 246.89C186.25 249.023 184.418 251.566 185.143 252.57C185.869 253.575 188.878 252.659 191.864 250.526Z" fill="#F5A3D3"/>
<path d="M183.885 192.603C188.239 159.41 168.379 129.47 139.526 125.729C110.674 121.988 83.7543 145.864 79.4003 179.057C75.0462 212.249 94.9063 242.19 123.759 245.93C152.611 249.671 179.531 225.796 183.885 192.603Z" fill="#4C1A84"/>
<path d="M177.225 191.115C180.625 165.196 165.113 141.816 142.579 138.894C120.045 135.973 99.0209 154.616 95.621 180.536C92.221 206.455 107.732 229.835 130.267 232.757C152.801 235.678 173.825 217.035 177.225 191.115Z" fill="#F5A3D3"/>
<path d="M176.118 112.021L163.639 108.266L147.068 162.694L159.547 166.449L176.118 112.021Z" fill="#F5A3D3"/>
<path d="M176.126 112.048C176.433 111.038 173.886 109.378 170.437 108.341C166.988 107.303 163.943 107.28 163.636 108.289C163.328 109.299 165.875 110.959 169.324 111.996C172.773 113.034 175.818 113.057 176.126 112.048Z" fill="#F5A3D3"/>
<path d="M117.162 262.751L130.096 266.643L148.649 205.701L135.715 201.809L117.162 262.751Z" fill="#F5A3D3"/>
<path d="M117.145 262.747L120.072 263.628L138.626 202.686L135.699 201.806L117.145 262.747Z" fill="#4C1A84"/>
<path d="M130.025 266.83C130.376 265.675 127.766 263.868 124.194 262.793C120.622 261.718 117.442 261.783 117.091 262.938C116.739 264.092 119.349 265.9 122.921 266.974C126.493 268.049 129.673 267.984 130.025 266.83Z" fill="#4C1A84"/>
<path d="M184.999 252.324L195.812 244.6L163.154 199.417L152.342 207.142L184.999 252.324Z" fill="#F5A3D3"/>
<path d="M152.39 207.282L154.233 205.965L186.891 251.142L187.984 252.602C187.233 252.975 185.511 253.272 185.058 252.448L152.401 207.26L152.39 207.282Z" fill="#4C1A84"/>
<path d="M107.414 121.729L95.4452 130.279L129.391 177.244L141.36 168.694L107.414 121.729Z" fill="#F5A3D3"/>
<path d="M97.0649 129.108L95.4062 130.293L129.352 177.258L131.01 176.073L97.0649 129.108Z" fill="#4C1A84"/>
<path d="M103.14 128.357C106.447 125.994 108.353 123.005 107.396 121.681C106.439 120.356 102.981 121.198 99.6736 123.561C96.3659 125.924 94.4604 128.913 95.4175 130.238C96.3747 131.562 99.832 130.72 103.14 128.357Z" fill="#4C1A84"/>
<path d="M160.725 191.642L157.236 177.911L211.5 164.278C214.028 168.317 215.154 172.905 214.989 178.009L160.725 191.642Z" fill="#F5A3D3"/>
<path d="M157.556 179.151L157.247 177.921L211.51 164.289C211.72 164.651 211.93 165.035 212.129 165.442L157.567 179.151H157.556Z" fill="#4C1A84"/>
<path d="M76.5861 197.719L79.9668 211.021L134.225 197.392L130.845 184.09L76.5861 197.719Z" fill="#F5A3D3"/>
<path d="M77.0525 199.593L77.3176 200.636L131.576 187.006L131.311 185.963L77.0525 199.593Z" fill="#F5A3D3"/>
<path d="M79.8933 211.036C81.72 210.577 82.444 207.227 81.5105 203.554C80.5769 199.881 78.3393 197.275 76.5126 197.734C74.6859 198.192 73.9619 201.542 74.8954 205.215C75.829 208.889 78.0666 211.494 79.8933 211.036Z" fill="#4C1A84"/>
<path d="M150.115 163.576L147.068 162.654L163.64 108.224C163.872 107.664 165.13 107.258 167.129 107.62L166.687 109.135L150.115 163.565V163.576Z" fill="#4C1A84"/>
<path d="M76.1579 197.833L76.4229 198.876L130.681 185.247L130.416 184.204L76.1579 197.833Z" fill="#4C1A84"/>
<path d="M165.112 192.327C167.036 177.66 158.307 164.436 145.616 162.791C132.925 161.145 121.077 171.701 119.153 186.368C117.23 201.035 125.958 214.259 138.649 215.904C151.34 217.549 163.188 206.993 165.112 192.327Z" fill="#4C1A84"/>
<path d="M173.075 192.338C174.999 177.672 166.27 164.448 153.579 162.802C140.888 161.157 129.04 171.713 127.116 186.38C125.192 201.047 133.921 214.27 146.612 215.916C159.303 217.561 171.151 207.005 173.075 192.338Z" fill="#F5A3D3"/>
<path d="M161.557 190.631C162.384 184.325 158.633 178.64 153.18 177.933C147.726 177.226 142.634 181.765 141.807 188.07C140.98 194.376 144.731 200.06 150.184 200.768C155.638 201.475 160.73 196.936 161.557 190.631Z" fill="#4C1A84"/>
<path d="M158.354 190.152C158.869 186.227 156.531 182.688 153.133 182.247C149.735 181.807 146.563 184.632 146.048 188.557C145.534 192.482 147.871 196.021 151.269 196.462C154.667 196.902 157.839 194.077 158.354 190.152Z" fill="#4C1A84"/>
<path d="M58.1272 127.432H47.7713C42.1076 125.621 38.2324 124.973 38.2324 117.619C38.2324 113.448 41.7543 110.671 45.4197 112.175L47.7713 113.13H58.1272C62.1017 113.13 65.3144 116.335 65.3144 120.275C65.3144 124.227 62.0906 127.421 58.1272 127.421V127.432Z" fill="#4C1A84"/>
<path d="M58.1272 241.857H47.7713C42.1076 240.046 38.2324 239.398 38.2324 232.044C38.2324 227.873 41.7543 225.096 45.4197 226.6L47.7713 227.555H58.1272C62.1017 227.555 65.3144 230.76 65.3144 234.7C65.3144 238.652 62.0906 241.846 58.1272 241.846V241.857Z" fill="#4C1A84"/>
<path d="M28.175 109.958L28.2964 84.8449C28.3185 82.7155 28.2964 77.5019 28.3627 75.3835C28.4069 69.3248 34.7109 64.3307 40.5954 66.1637V66.4491C36.7754 66.8991 33.088 69.1821 31.9508 72.892C31.3105 74.3299 31.5534 77.008 31.5202 78.5556C31.73 117.224 31.9839 171.545 31.8846 210.389C31.7962 227.127 31.7631 247.575 31.5865 264.314L28.2744 262.119C28.2744 262.119 27.9321 156.54 28.175 109.947V109.958Z" fill="#4C1A84"/>
<path d="M146.607 104.442C147.792 95.4078 142.386 87.2584 134.532 86.2401C126.678 85.2218 119.35 91.7203 118.165 100.755C116.98 109.789 122.386 117.939 130.241 118.957C138.095 119.975 145.422 113.477 146.607 104.442Z" fill="#4C1A84"/>
<path d="M150.573 104.588C151.719 95.8541 146.491 87.9757 138.897 86.9911C131.303 86.0065 124.218 92.2887 123.072 101.023C121.927 109.757 127.154 117.635 134.748 118.62C142.342 119.604 149.427 113.322 150.573 104.588Z" fill="#9D77E8"/>
<path d="M143.988 102.834L127.317 91.6059C127.925 90.9363 127.582 91.0681 128.322 90.4863L144.474 101.396L143.988 102.823V102.834Z" fill="#4C1A84"/>
<path d="M149.423 104.883C150.11 99.6417 146.987 94.9154 142.446 94.3267C137.905 93.738 133.667 97.5099 132.979 102.751C132.292 107.993 135.415 112.719 139.956 113.308C144.497 113.897 148.735 110.125 149.423 104.883Z" fill="#ECE4FF" stroke="#4C1A84" stroke-width="1.5" stroke-miterlimit="10"/>
<path d="M108.703 203.737L124.833 199.928C124.833 199.928 127.527 198.831 126.423 193.112C125.319 187.383 121.521 187.383 121.521 187.383L118.165 188.272L108.703 203.737V203.737Z" fill="#F5A3D3"/>
<path d="M121.742 200.664L95.9297 207.008L96.8129 208.281L123.42 202.717L121.742 200.664Z" fill="#4C1A84"/>
<path d="M156.509 140.745L153.638 140.273L146.539 163.126L149.487 162.686L156.509 140.745Z" fill="#4C1A84"/>
<path d="M131.877 213.78L125.308 233.241L128.587 233.888L135.675 213.78H131.877Z" fill="#4C1A84"/>
<path d="M119.898 186.22L92.9267 193.189L93.2579 194.627L120.649 187.658L119.898 186.22Z" fill="#4C1A84"/>
<path d="M160.041 213.056C160.041 213.056 158.253 214.153 156.994 214.45C158.749 217.249 162.724 223.834 162.724 223.834L165.572 221.475L160.041 213.045V213.056Z" fill="#4C1A84"/>
<path d="M177.937 187.328L171.854 189.051V190.072L178.247 188.327L177.937 187.328Z" fill="#4C1A84"/>
<path d="M139.219 62.4641L66.0545 66.3057C65.922 66.3057 65.7785 66.3057 65.646 66.2728L64.3763 66.0093C62.5657 65.6252 62.7755 63.0019 64.6192 62.9031L137.784 59.0615C137.916 59.0615 138.06 59.0615 138.192 59.0945L139.462 59.3579C141.272 59.742 141.063 62.3653 139.219 62.4641V62.4641Z" fill="#4C1A84"/>
<path d="M132.54 36.4624C132.871 45.792 130.056 54.4741 125.121 61.2902L71.5859 63.5293C66.1762 57.1412 62.7426 48.7336 62.4114 39.393C61.6496 18.4617 76.7418 0.845198 96.1066 0.0329716C115.482 -0.779255 131.789 15.5311 132.54 36.4734V36.4624Z" fill="#4C1A84"/>
<path d="M139.716 36.4624C140.047 45.792 137.231 54.4741 132.296 61.2902L78.7617 63.5293C73.3519 57.1412 69.9184 48.7336 69.5872 39.393C68.8254 18.4617 83.9176 0.845198 103.293 0.0329716C122.669 -0.779255 138.976 15.5311 139.727 36.4734L139.716 36.4624Z" fill="#8254CC"/>
<path d="M86.4459 63.7381C85.4413 63.0357 82.9793 61.06 81.8752 59.6111C77.4481 53.739 74.1139 46.6155 73.8158 38.4164C73.1533 20.0316 86.4128 4.55538 103.415 3.84194C120.428 3.1285 134.748 17.4522 135.41 35.8371C135.708 44.0362 133.379 51.1925 128.896 57.6355C127.903 59.0623 124.988 62.3442 124.988 62.3442" stroke="#4C1A84" stroke-miterlimit="10"/>
<path d="M114.157 23.1484L107.964 25.7168C109.476 26.8474 110.746 28.395 111.762 30.3377L117.503 27.9559L118.066 34.1354L113.782 35.9136C114.566 39.4588 114.235 42.565 112.788 45.2212C111.342 47.8774 108.781 50.1714 105.093 52.1032L121.621 61.7841L108.074 62.3548L95.3335 54.924L93.6333 50.2373L100.821 47.2518C102.94 46.3737 104.453 45.1993 105.358 43.7285C106.263 42.2577 106.639 40.6662 106.506 38.932L91.2265 45.2761L90.6855 39.0856L104.409 33.3891C102.355 30.6012 99.2749 30.0524 95.19 31.7537L87.55 34.9257L86.8545 28.0218L113.616 16.9141L114.168 23.1375L114.157 23.1484Z" fill="white"/>
<path d="M47.7606 232.9V264.336L0 234.02V169.975C28.2744 177.987 47.7606 203.671 47.7606 232.9Z" fill="#4C1A84"/>
<path d="M0 234.02C0.894269 242.965 1.03779 243.942 11.7249 251.142C25.3818 260.34 46.9547 274.499 46.9547 274.499C46.9547 274.499 52.9385 278.758 56.6702 279.252C56.6702 279.252 47.7606 277.013 47.7606 264.335L0 234.02Z" fill="#4C1A84"/>
<rect x="11" y="247" width="16" height="13" fill="#4C1A84"/>
</g>
<defs>
<clipPath id="clip0_959_9943">
<rect width="215" height="292" fill="white"/>
</clipPath>
</defs>
</svg>
