<svg width="251" height="307" viewBox="0 0 251 307" fill="none" xmlns="http://www.w3.org/2000/svg">
<g clip-path="url(#clip0_959_10534)">
<path d="M176.15 27.8747L93.2062 27.4842C87.6176 27.4579 83.0658 31.963 83.0395 37.5466L82.2586 203.101C82.2323 208.685 86.7414 213.233 92.33 213.259L175.274 213.649C180.862 213.676 185.414 209.171 185.441 203.587L186.221 38.0324C186.248 32.4488 181.739 27.901 176.15 27.8747Z" fill="#8254CC"/>
<path d="M195.172 40.0896C195.179 38.5718 193.954 37.3355 192.435 37.3284C190.915 37.3212 189.678 38.5459 189.671 40.0637L188.867 210.481C188.86 211.998 190.086 213.235 191.605 213.242C193.124 213.249 194.361 212.024 194.368 210.506L195.172 40.0896Z" fill="#9D77E8"/>
<path d="M189.614 41.6423L186.141 41.626L185.332 213.199L188.804 213.216L189.614 41.6423Z" fill="#6821A5"/>
<path d="M174.191 34.2839L95.0429 33.9112C92.0527 33.8972 89.6172 36.3076 89.6031 39.2952L89.5227 56.3568C89.5086 59.3444 91.9212 61.7777 94.9114 61.7918L174.059 62.1644C177.049 62.1785 179.485 59.768 179.499 56.7804L179.579 39.7188C179.593 36.7313 177.181 34.298 174.191 34.2839Z" fill="#6821A5"/>
<path d="M174.185 77.7214L95.0372 77.3487C92.047 77.3347 89.6115 79.7451 89.5974 82.7327L89.4748 108.735C89.4607 111.723 91.8733 114.156 94.8635 114.17L174.011 114.543C177.001 114.557 179.437 112.147 179.451 109.159L179.574 83.1563C179.588 80.1688 177.175 77.7355 174.185 77.7214Z" fill="#6821A5"/>
<path d="M173.455 79.4215L95.7511 79.0556C93.6957 79.0459 92.0217 80.7028 92.012 82.7563L91.8906 108.498C91.8809 110.551 93.5392 112.224 95.5946 112.234L173.298 112.6C175.354 112.609 177.028 110.952 177.037 108.899L177.159 83.1572C177.169 81.1037 175.51 79.4311 173.455 79.4215Z" fill="#ECE4FF"/>
<path d="M110.202 121.392L99.9585 121.344C96.6245 121.328 93.9091 124.016 93.8934 127.347L93.8722 131.848C93.8565 135.179 96.5464 137.892 99.8803 137.908L110.124 137.956C113.458 137.972 116.173 135.284 116.189 131.953L116.21 127.452C116.226 124.121 113.536 121.408 110.202 121.392Z" fill="#6821A5"/>
<path d="M139.65 121.394L129.407 121.346C126.073 121.33 123.358 124.018 123.342 127.349L123.321 131.85C123.305 135.181 125.995 137.894 129.329 137.91L139.572 137.958C142.906 137.974 145.622 135.286 145.637 131.955L145.659 127.454C145.674 124.123 142.984 121.41 139.65 121.394Z" fill="#6821A5"/>
<path d="M168.526 121.393L158.283 121.345C154.949 121.329 152.234 124.017 152.218 127.348L152.197 131.849C152.181 135.18 154.871 137.893 158.205 137.909L168.448 137.957C171.782 137.973 174.498 135.285 174.513 131.954L174.535 127.453C174.55 124.122 171.86 121.409 168.526 121.393Z" fill="#6821A5"/>
<path d="M110.204 142.123L99.9603 142.074C96.6264 142.059 93.911 144.746 93.8953 148.077L93.874 152.579C93.8583 155.91 96.5482 158.623 99.8822 158.638L110.126 158.687C113.46 158.702 116.175 156.015 116.191 152.684L116.212 148.182C116.228 144.851 113.538 142.138 110.204 142.123Z" fill="#6821A5"/>
<path d="M173.467 0.368233L96.0865 0.00390625L95.8286 54.683L173.209 55.0474L173.467 0.368233Z" fill="#ECE4FF"/>
<path d="M76.5596 261.609L5.46415 261.274C2.42715 261.261 -0.0123993 258.799 4.74162e-05 255.777L0.647275 107.233C0.659722 104.211 3.12417 101.761 6.16116 101.773L77.2567 102.109C80.2812 102.122 82.7332 104.584 82.7208 107.618L82.0735 256.163C82.0611 259.185 79.5966 261.634 76.5596 261.622V261.609Z" fill="#4C1A84"/>
<path d="M72.7883 254.484L9.29777 254.186C7.53034 254.186 6.12387 251.288 6.13631 247.732L6.70886 114.682C6.72131 111.126 8.16512 108.253 9.93255 108.253L73.4231 108.551C75.1906 108.551 76.597 111.449 76.5846 115.006L76.012 248.055C75.9996 251.612 74.5558 254.484 72.7883 254.484V254.484Z" fill="#723EAC"/>
<path d="M18.11 164.673C17.4005 164.673 16.828 164.089 16.8404 163.392L16.8902 152.536C16.8902 151.429 17.7988 150.534 18.9066 150.546L29.7725 150.596C30.482 150.596 31.0545 151.18 31.0421 151.877C31.0296 152.573 30.4571 153.158 29.7601 153.145L19.4542 153.095L19.4044 163.392C19.4044 164.101 18.8194 164.673 18.1224 164.661L18.11 164.673Z" fill="#ECE4FF"/>
<path d="M35.445 164.229L30.454 164.205L30.4305 169.192L35.4215 169.215L35.445 164.229Z" fill="#ECE4FF"/>
<path d="M53.5668 164.314L48.5757 164.29L48.5522 169.277L53.5432 169.3L53.5668 164.314Z" fill="#ECE4FF"/>
<path d="M35.4109 174.136L25.217 174.086L25.2793 160.83C25.2793 159.81 26.1256 158.977 27.1463 158.989L40.6883 159.052L40.6385 169.062H38.2736L38.311 161.414L27.6566 161.365L27.6068 171.736L35.4358 171.773V174.136H35.4109Z" fill="#ECE4FF"/>
<path d="M30.5103 182.27L30.4868 187.257L35.4779 187.28L35.5014 182.294L30.5103 182.27Z" fill="#ECE4FF"/>
<path d="M38.2031 182.284L38.1886 185.368L40.5534 185.379L40.568 182.295L38.2031 182.284Z" fill="#ECE4FF"/>
<path d="M38.1616 190.103H40.5265V192.491L27.1214 192.429C26.1008 192.429 25.2793 191.583 25.2793 190.563L25.3415 177.033L35.3611 177.083V179.446L27.7064 179.408L27.6566 190.053L38.1741 190.103H38.1616Z" fill="#ECE4FF"/>
<path d="M56.7819 192.429L50.8075 192.404V190.041L56.2716 190.066V186.994L53.4586 186.982V184.619L58.6738 184.644L58.6489 190.601C58.6489 191.62 57.8025 192.454 56.7819 192.441V192.429Z" fill="#ECE4FF"/>
<path d="M45.6172 192.516L43.2399 192.504L43.3145 177.258L50.8821 177.295L50.8697 179.658L45.6794 179.633L45.6172 192.516Z" fill="#ECE4FF"/>
<path d="M48.4924 182.344L50.8572 182.356L50.8199 190.041L43.2523 190.004L43.2648 187.629L48.4675 187.654L48.4924 182.344Z" fill="#ECE4FF"/>
<path d="M58.7236 174.248L53.5209 174.223V171.86L56.3587 171.873L56.4085 161.501L45.7541 161.451L45.6919 174.198H43.327L43.4017 159.076L56.9437 159.138C57.9643 159.138 58.7983 159.984 58.7858 161.004L58.7236 174.26V174.248Z" fill="#ECE4FF"/>
<path d="M40.5995 171.788L38.2346 171.777L38.2235 174.14L40.5883 174.151L40.5995 171.788Z" fill="#ECE4FF"/>
<path d="M40.5869 177.111L38.222 177.1L38.1928 183.305L40.5576 183.316L40.5869 177.111Z" fill="#ECE4FF"/>
<path d="M50.8926 171.837L48.5277 171.826L48.5166 174.189L50.8814 174.2L50.8926 171.837Z" fill="#ECE4FF"/>
<path d="M55.9586 179.683L53.5938 179.672L53.5826 182.035L55.9474 182.046L55.9586 179.683Z" fill="#ECE4FF"/>
<path d="M58.3346 177.331L55.9697 177.32L55.9586 179.683L58.3234 179.694L58.3346 177.331Z" fill="#ECE4FF"/>
<path d="M65.0216 200.886L54.1556 200.836C53.4462 200.836 52.8736 200.252 52.8861 199.556C52.8985 198.859 53.4711 198.275 54.1681 198.287L64.4739 198.337L64.5237 188.04C64.5237 187.331 65.1087 186.759 65.8057 186.772C66.5027 186.784 67.0877 187.356 67.0753 188.053L67.0255 198.909C67.0255 200.016 66.1169 200.911 65.0091 200.899L65.0216 200.886Z" fill="#ECE4FF"/>
<path d="M65.8181 164.797C65.1086 164.797 64.5361 164.213 64.5485 163.516L64.5983 153.219L54.2925 153.17C53.583 153.17 53.0105 152.585 53.0229 151.889C53.0354 151.192 53.6079 150.608 54.3049 150.62L65.1709 150.67C66.2786 150.67 67.1748 151.578 67.1623 152.685L67.1126 163.541C67.1126 164.25 66.5276 164.822 65.8306 164.809L65.8181 164.797Z" fill="#ECE4FF"/>
<path d="M29.6232 200.811L18.7572 200.762C17.6495 200.762 16.7533 199.854 16.7658 198.747L16.8155 187.891C16.8155 187.182 17.4005 186.61 18.0975 186.622C18.7946 186.635 19.3796 187.207 19.3671 187.903L19.3173 198.2L29.6232 198.25C30.3326 198.25 30.9052 198.834 30.8927 199.531C30.8803 200.227 30.3078 200.811 29.6107 200.799L29.6232 200.811Z" fill="#ECE4FF"/>
<path d="M207.349 119.259C207.399 119.047 207.449 118.848 207.524 118.662C207.524 118.625 207.549 118.6 207.561 118.562C207.648 118.326 207.76 118.102 207.885 117.891C207.897 117.866 207.922 117.841 207.934 117.804C208.046 117.617 208.183 117.431 208.32 117.269C208.333 117.257 208.345 117.232 208.37 117.219C208.532 117.033 208.706 116.871 208.893 116.722C208.918 116.697 208.943 116.685 208.98 116.66C209.092 116.585 209.192 116.498 209.304 116.436C209.341 116.411 209.366 116.399 209.403 116.374C209.54 116.299 209.677 116.224 209.826 116.162C209.839 116.162 209.864 116.15 209.876 116.137C210.075 116.05 210.287 115.988 210.498 115.951H210.523C210.747 115.914 210.971 115.889 211.183 115.889L193.758 110.79C193.534 110.79 193.31 110.815 193.098 110.852H193.073C192.862 110.89 192.65 110.964 192.451 111.051C192.451 111.051 192.426 111.051 192.413 111.051C192.413 111.051 192.413 111.051 192.401 111.051C192.252 111.113 192.115 111.188 191.978 111.263C191.94 111.287 191.916 111.3 191.878 111.325C191.766 111.399 191.654 111.474 191.555 111.549C191.53 111.561 191.517 111.573 191.492 111.586C191.492 111.586 191.48 111.598 191.468 111.611C191.281 111.76 191.107 111.934 190.945 112.108C190.945 112.108 190.92 112.121 190.92 112.133C190.92 112.133 190.92 112.146 190.907 112.158C190.77 112.32 190.634 112.506 190.522 112.693C190.522 112.705 190.497 112.718 190.484 112.742C190.484 112.742 190.484 112.767 190.472 112.78C190.347 112.991 190.248 113.215 190.148 113.439C190.148 113.451 190.136 113.476 190.123 113.489C190.123 113.501 190.123 113.513 190.123 113.526C190.049 113.712 189.999 113.911 189.949 114.123C189.949 114.16 189.937 114.21 189.924 114.247C189.887 114.471 189.849 114.682 189.849 114.919L189.19 130.501L141.668 131.856C140.785 131.881 139.901 131.931 139.03 132.005C138.743 132.03 138.469 132.068 138.183 132.092C137.586 132.155 136.988 132.217 136.403 132.291C136.08 132.341 135.756 132.391 135.432 132.441C134.885 132.528 134.325 132.615 133.777 132.727C133.453 132.789 133.13 132.851 132.806 132.913C132.246 133.025 131.674 133.162 131.113 133.299C130.827 133.373 130.529 133.435 130.242 133.51C129.545 133.697 128.861 133.896 128.176 134.107C128.027 134.157 127.877 134.194 127.728 134.244C126.894 134.505 126.073 134.791 125.251 135.102C125.015 135.189 124.791 135.288 124.554 135.375C124.106 135.55 123.645 135.724 123.197 135.91C123.048 135.972 122.911 136.035 122.762 136.097C122.538 136.196 122.314 136.296 122.102 136.383C121.505 136.644 120.907 136.93 120.31 137.216C120.111 137.315 119.924 137.402 119.725 137.502C118.966 137.875 118.219 138.273 117.472 138.683C117.335 138.758 117.198 138.845 117.049 138.92C116.426 139.268 115.817 139.628 115.219 140.001C115.007 140.138 114.783 140.263 114.572 140.399C113.962 140.785 113.352 141.183 112.742 141.593C112.618 141.68 112.493 141.755 112.369 141.842C111.659 142.327 110.95 142.837 110.253 143.359C110.066 143.496 109.892 143.633 109.718 143.77C109.419 143.993 109.133 144.217 108.834 144.441C108.672 144.565 108.523 144.715 108.361 144.839C107.876 145.224 107.403 145.635 106.917 146.033C106.594 146.319 106.257 146.592 105.934 146.878C105.448 147.314 104.963 147.761 104.49 148.209C104.191 148.483 103.893 148.756 103.594 149.042C103.059 149.552 102.548 150.087 102.026 150.622C101.789 150.858 101.565 151.094 101.329 151.33C100.594 152.114 99.8599 152.91 99.1504 153.731C99.1504 153.731 99.1504 153.743 99.1379 153.755C99.0508 153.855 98.9637 153.967 98.889 154.066C98.2791 154.775 97.6817 155.496 97.0967 156.243C96.8602 156.541 96.6362 156.839 96.4121 157.138C95.9765 157.697 95.5408 158.27 95.1177 158.854C94.8563 159.202 94.6073 159.563 94.3584 159.923C93.9726 160.471 93.5992 161.018 93.2258 161.565C92.9644 161.95 92.7155 162.336 92.4665 162.734C92.118 163.281 91.7695 163.828 91.4334 164.388C91.3214 164.574 91.197 164.749 91.0974 164.935C90.9854 165.134 90.8733 165.333 90.7613 165.532C90.3257 166.266 89.9025 167.012 89.4918 167.758C89.3051 168.106 89.1059 168.442 88.9192 168.79C88.3965 169.773 87.8861 170.78 87.4007 171.787C87.3509 171.899 87.2887 171.999 87.2389 172.098C86.7037 173.217 86.1934 174.361 85.708 175.505C85.5586 175.854 85.4217 176.202 85.2848 176.55C84.9487 177.383 84.6127 178.216 84.289 179.062C84.2144 179.261 84.1272 179.46 84.0526 179.659C83.9156 180.044 83.7787 180.43 83.6418 180.815C83.5671 181.027 83.4924 181.238 83.4178 181.462C83.1066 182.382 82.7954 183.315 82.5092 184.248C82.4469 184.434 82.3971 184.621 82.3349 184.82C82.0984 185.603 81.8744 186.399 81.6503 187.195C81.5881 187.444 81.5134 187.68 81.4512 187.929C81.2023 188.886 80.9533 189.856 80.7293 190.826C80.7044 190.951 80.6795 191.087 80.6422 191.212C80.443 192.07 80.2688 192.94 80.0945 193.823C80.0447 194.084 79.9949 194.345 79.9451 194.619C79.7584 195.614 79.5842 196.621 79.4348 197.628C78.937 200.24 78.576 202.901 78.3644 205.6L34.8757 253.241C34.8757 253.241 34.8259 253.303 34.801 253.328C34.7014 253.44 34.6267 253.564 34.5396 253.676C34.4774 253.751 34.4151 253.825 34.3654 253.912C34.3654 253.912 34.3529 253.925 34.3405 253.937C34.2907 254.012 34.2658 254.099 34.2284 254.174C34.1413 254.335 34.0542 254.497 33.992 254.659C33.992 254.683 33.9671 254.696 33.9671 254.708C33.8924 254.907 33.8426 255.106 33.7928 255.305C33.7928 255.355 33.7804 255.405 33.7679 255.442C33.7306 255.629 33.7057 255.815 33.6932 256.002C33.6932 256.076 33.6932 256.138 33.6932 256.213C33.6932 256.412 33.6932 256.599 33.7181 256.785C33.7181 256.822 33.7181 256.86 33.7181 256.909C33.7555 257.133 33.8053 257.357 33.8675 257.569C33.8799 257.631 33.9048 257.68 33.9297 257.73C33.992 257.892 34.0542 258.054 34.1413 258.203C34.1662 258.265 34.2036 258.315 34.2284 258.377C34.3405 258.576 34.4649 258.762 34.6267 258.936L71.1329 300.72C71.581 301.23 72.1037 301.554 72.6638 301.715L90.0892 306.814C89.5415 306.652 89.0063 306.329 88.5583 305.819L52.0521 264.035C51.9027 263.861 51.7783 263.674 51.6538 263.475C51.6165 263.426 51.5916 263.364 51.5667 263.301C51.492 263.152 51.4173 262.991 51.3551 262.829C51.3302 262.779 51.3178 262.717 51.2929 262.667C51.2306 262.456 51.1808 262.232 51.1435 262.008C51.1435 261.971 51.1435 261.933 51.1435 261.884C51.1186 261.697 51.1186 261.498 51.1186 261.312C51.1186 261.237 51.1186 261.175 51.1186 261.1C51.1186 260.914 51.1559 260.727 51.1933 260.541C51.1933 260.491 51.2057 260.441 51.2182 260.404C51.268 260.18 51.3302 259.956 51.4173 259.745C51.4796 259.583 51.5667 259.421 51.6538 259.26C51.7036 259.173 51.7409 259.086 51.7907 258.999C51.8405 258.912 51.9027 258.837 51.965 258.762C52.077 258.613 52.1766 258.464 52.301 258.315L80.2688 227.661C80.3061 227.798 80.331 227.934 80.3683 228.059L97.7937 233.157C96.1134 226.89 95.3417 220.137 95.6404 213.074C95.6778 212.265 95.7275 211.469 95.7773 210.661C95.9889 207.963 96.3374 205.289 96.8477 202.69C97.022 201.745 97.2336 200.812 97.4452 199.879C97.5199 199.568 97.607 199.258 97.6817 198.959C97.831 198.35 97.9804 197.728 98.1547 197.119C98.2542 196.758 98.3663 196.397 98.4783 196.024C98.6401 195.477 98.7894 194.942 98.9637 194.395C99.0882 194.01 99.2251 193.624 99.3495 193.251C99.5238 192.741 99.6856 192.231 99.8723 191.734C99.9843 191.436 100.096 191.137 100.221 190.839C100.47 190.167 100.744 189.496 101.017 188.836C101.154 188.501 101.304 188.153 101.453 187.817C101.714 187.207 102.001 186.586 102.275 185.989C102.424 185.653 102.586 185.33 102.747 184.994C103.059 184.347 103.395 183.701 103.731 183.066C103.868 182.805 104.005 182.544 104.142 182.283C104.627 181.4 105.112 180.529 105.635 179.671C105.747 179.485 105.872 179.298 105.984 179.112C106.357 178.502 106.743 177.881 107.129 177.284C107.315 176.998 107.515 176.712 107.714 176.426C108.05 175.928 108.386 175.443 108.722 174.958C108.946 174.647 109.17 174.349 109.394 174.038C109.73 173.59 110.054 173.143 110.402 172.707C110.639 172.396 110.888 172.098 111.137 171.787C111.473 171.364 111.821 170.954 112.17 170.544C112.419 170.245 112.668 169.959 112.929 169.673C113.327 169.225 113.725 168.778 114.136 168.342C114.385 168.069 114.634 167.808 114.883 167.547C115.319 167.086 115.767 166.639 116.227 166.203C116.451 165.98 116.675 165.756 116.912 165.532C117.534 164.947 118.156 164.363 118.791 163.803C118.866 163.741 118.928 163.679 119.003 163.617C119.712 162.995 120.434 162.398 121.169 161.814C121.766 161.341 122.376 160.869 122.986 160.421C123.098 160.334 123.21 160.259 123.322 160.185C123.845 159.812 124.367 159.438 124.903 159.078C125.114 158.929 125.326 158.792 125.537 158.655C125.985 158.357 126.446 158.071 126.894 157.785C127.118 157.648 127.342 157.511 127.554 157.374C128.064 157.063 128.587 156.765 129.11 156.466C129.259 156.379 129.408 156.292 129.57 156.205C130.242 155.832 130.927 155.471 131.611 155.136C131.786 155.049 131.96 154.974 132.122 154.887C132.644 154.626 133.18 154.377 133.702 154.141C133.939 154.029 134.175 153.929 134.412 153.83C134.86 153.643 135.308 153.457 135.756 153.27C136.105 153.134 136.453 152.997 136.802 152.86C137.225 152.698 137.648 152.549 138.071 152.4C138.42 152.276 138.768 152.151 139.129 152.039C139.565 151.902 139.988 151.766 140.424 151.641C140.772 151.542 141.121 151.43 141.482 151.33C141.93 151.206 142.365 151.094 142.813 150.995C143.162 150.908 143.51 150.821 143.871 150.733C144.332 150.634 144.792 150.535 145.253 150.447C145.601 150.385 145.938 150.311 146.286 150.249C146.771 150.161 147.257 150.099 147.755 150.025C148.078 149.975 148.402 149.925 148.738 149.875C149.286 149.801 149.821 149.751 150.369 149.701C150.642 149.676 150.929 149.639 151.202 149.614C152.024 149.552 152.858 149.502 153.692 149.477C154.327 149.465 154.961 149.453 155.584 149.465C156.144 149.465 156.716 149.49 157.276 149.515C157.463 149.515 157.65 149.54 157.824 149.552C158.198 149.577 158.571 149.589 158.944 149.614C159.168 149.627 159.38 149.652 159.604 149.676C159.94 149.701 160.276 149.739 160.6 149.776C160.836 149.801 161.06 149.838 161.297 149.863C161.608 149.9 161.919 149.938 162.23 149.987C162.554 150.037 162.865 150.087 163.189 150.149C163.425 150.186 163.662 150.224 163.886 150.261C164.222 150.323 164.545 150.385 164.881 150.46C165.093 150.51 165.317 150.547 165.529 150.597C165.89 150.671 166.251 150.758 166.599 150.845C166.786 150.895 166.96 150.932 167.147 150.97C167.682 151.107 168.217 151.256 168.74 151.405L151.314 146.306C150.779 146.157 150.257 146.008 149.721 145.871C149.535 145.821 149.348 145.784 149.161 145.734C148.813 145.647 148.452 145.56 148.091 145.486C147.879 145.436 147.655 145.399 147.431 145.349C147.107 145.287 146.771 145.212 146.448 145.15C146.211 145.113 145.975 145.075 145.751 145.038C145.427 144.988 145.116 144.926 144.792 144.876C144.768 144.876 144.743 144.876 144.705 144.864C144.431 144.827 144.145 144.789 143.859 144.752C143.622 144.727 143.386 144.69 143.149 144.665C142.826 144.628 142.49 144.603 142.166 144.565C141.942 144.541 141.718 144.516 141.506 144.503C141.133 144.478 140.76 144.453 140.386 144.441C140.2 144.441 140.013 144.416 139.826 144.404C139.266 144.379 138.706 144.366 138.133 144.354C137.511 144.354 136.876 144.354 136.242 144.366C135.408 144.391 134.574 144.441 133.752 144.503C133.665 144.503 133.578 144.516 133.478 144.528C133.802 144.342 134.113 144.143 134.437 143.968C134.574 143.894 134.723 143.807 134.86 143.732C135.607 143.322 136.354 142.924 137.113 142.551C137.3 142.451 137.499 142.364 137.698 142.265C138.295 141.979 138.893 141.705 139.49 141.432C139.714 141.332 139.938 141.233 140.15 141.146C140.747 140.897 141.345 140.661 141.942 140.424C142.179 140.337 142.403 140.238 142.639 140.151C143.461 139.852 144.282 139.566 145.116 139.293C145.265 139.243 145.415 139.206 145.564 139.156C146.249 138.944 146.946 138.745 147.63 138.559C147.917 138.484 148.215 138.422 148.502 138.348C149.062 138.211 149.622 138.086 150.194 137.962C150.518 137.9 150.841 137.838 151.165 137.776C151.713 137.676 152.26 137.577 152.821 137.489C153.144 137.44 153.468 137.39 153.791 137.34C154.389 137.266 154.974 137.191 155.571 137.141C155.858 137.116 156.131 137.079 156.418 137.054C157.289 136.98 158.173 136.93 159.056 136.905L188.928 136.059L186.887 184.72L204.312 189.819L207.25 119.968C207.25 119.731 207.287 119.507 207.325 119.296C207.325 119.259 207.337 119.209 207.349 119.172V119.259Z" fill="#4C1A84"/>
<path d="M180.838 261.361L163.413 256.263C166.562 253.776 169.499 250.953 172.175 247.844L189.6 252.942C186.924 256.039 183.987 258.862 180.838 261.361Z" fill="#300C4F"/>
<path d="M189.6 252.942L172.175 247.844C174.714 244.909 177.017 241.725 179.046 238.343L196.471 243.441C194.43 246.836 192.127 250.02 189.6 252.942Z" fill="#2E0C4D"/>
<path d="M196.471 243.442L179.046 238.343C181.286 234.612 183.19 230.633 184.734 226.467L202.159 231.565C200.616 235.744 198.711 239.723 196.471 243.442Z" fill="#2D0B4A"/>
<path d="M202.159 231.553L184.734 226.454C185.978 223.072 186.987 219.565 187.709 215.946L205.134 221.045C204.4 224.651 203.404 228.171 202.159 231.553Z" fill="#2B0B47"/>
<path d="M206.341 212.154L188.916 207.055C188.966 206.334 189.015 205.613 189.04 204.891C189.339 197.828 188.567 191.075 186.887 184.808L204.312 189.906C205.993 196.174 206.764 202.926 206.466 209.99C206.441 210.711 206.391 211.432 206.341 212.154Z" fill="#2B0B47"/>
<path d="M211.183 115.889L193.758 110.79C193.895 110.79 194.032 110.79 194.181 110.827L211.606 115.926C211.469 115.901 211.332 115.901 211.183 115.889Z" fill="#330D55"/>
<path d="M211.606 115.926L194.181 110.827C194.318 110.852 194.467 110.877 194.604 110.914L212.029 116.013C211.893 115.976 211.756 115.938 211.606 115.926Z" fill="#320D52"/>
<path d="M211.183 115.889C212.029 115.889 212.876 116.249 213.548 117.008L250.054 158.792C251.398 160.334 251.299 162.896 249.818 164.512L206.341 212.153C206.391 211.432 206.441 210.711 206.466 209.99C206.765 202.926 205.993 196.174 204.312 189.906L207.25 120.055C207.349 117.555 209.291 115.876 211.183 115.889V115.889Z" fill="#F5A3D3"/>
<path d="M158.845 251.389L141.419 246.29C141.955 246.278 142.465 246.166 142.938 245.967L160.363 251.065C159.89 251.264 159.38 251.364 158.845 251.389Z" fill="#401466"/>
<path d="M160.376 251.078L142.95 245.979C143.299 245.83 143.622 245.644 143.921 245.407L161.346 250.506C161.048 250.742 160.712 250.941 160.376 251.078Z" fill="#3E1463"/>
<path d="M161.347 250.493L143.921 245.395C144.083 245.27 144.232 245.121 144.382 244.972C144.444 244.91 144.494 244.847 144.543 244.785L161.969 249.884C161.919 249.946 161.857 250.008 161.807 250.07C161.658 250.22 161.508 250.369 161.347 250.493Z" fill="#3C1360"/>
<path d="M161.969 249.883L144.543 244.785C144.73 244.573 144.892 244.337 145.041 244.101L162.467 249.199C162.317 249.436 162.156 249.672 161.969 249.883Z" fill="#3A125C"/>
<path d="M162.467 249.2L145.041 244.101C145.203 243.828 145.34 243.542 145.452 243.243L162.877 248.342C162.765 248.64 162.628 248.926 162.467 249.2Z" fill="#381259"/>
<path d="M162.877 248.342L145.452 243.243C146.037 241.676 145.825 239.86 144.792 238.604L162.218 243.703C163.263 244.959 163.462 246.762 162.877 248.342Z" fill="#361156"/>
<path d="M158.845 251.388L141.419 246.289C141.955 246.277 142.465 246.165 142.938 245.966L160.363 251.064C159.89 251.263 159.38 251.363 158.845 251.388Z" fill="#401466"/>
<path d="M158.372 251.351L140.946 246.252C141.108 246.277 141.258 246.289 141.419 246.289L158.845 251.388C158.683 251.388 158.534 251.375 158.372 251.351Z" fill="#401466"/>
<path d="M157.899 251.251L140.473 246.152C140.635 246.202 140.785 246.227 140.946 246.252L158.372 251.35C158.21 251.326 158.048 251.288 157.899 251.251Z" fill="#3E1463"/>
<path d="M158.372 251.351L140.946 246.252C141.108 246.277 141.258 246.289 141.419 246.289L158.845 251.388C158.683 251.388 158.534 251.375 158.372 251.351Z" fill="#401466"/>
<path d="M172.15 203.337L154.725 198.238C155.198 198.225 155.646 198.126 156.082 197.939L173.507 203.038C173.084 203.212 172.623 203.312 172.15 203.337Z" fill="#401466"/>
<path d="M173.494 203.051L156.069 197.952C156.43 197.803 156.766 197.604 157.065 197.355L174.49 202.454C174.179 202.703 173.843 202.902 173.494 203.051Z" fill="#3E1463"/>
<path d="M174.503 202.454L157.077 197.355C157.301 197.169 157.513 196.97 157.712 196.746L175.137 201.845C174.938 202.069 174.727 202.28 174.503 202.454Z" fill="#3C1360"/>
<path d="M175.137 201.844L157.712 196.745C157.899 196.534 158.061 196.298 158.21 196.062L175.635 201.16C175.486 201.409 175.324 201.633 175.137 201.844Z" fill="#3A125C"/>
<path d="M175.635 201.148L158.21 196.049C158.372 195.776 158.509 195.49 158.621 195.191L176.046 200.29C175.934 200.588 175.797 200.887 175.635 201.148" fill="#381259"/>
<path d="M176.046 200.29L158.621 195.191C158.807 194.706 158.907 194.172 158.932 193.624C159.019 191.56 157.861 189.869 156.194 189.384L173.619 194.482C175.287 194.967 176.444 196.671 176.357 198.723C176.332 199.27 176.22 199.805 176.046 200.29Z" fill="#361156"/>
<path d="M172.661 194.346L155.235 189.247C155.397 189.247 155.546 189.26 155.708 189.284L173.134 194.383C172.984 194.358 172.822 194.346 172.661 194.346Z" fill="#9E9E9E"/>
<path d="M173.121 194.37L155.696 189.271C155.858 189.296 156.032 189.334 156.181 189.383L173.607 194.482C173.445 194.432 173.283 194.395 173.121 194.37" fill="#999999"/>
<path d="M172.524 194.346L155.098 189.247C155.098 189.247 155.185 189.247 155.235 189.247L172.661 194.346C172.661 194.346 172.573 194.346 172.524 194.346Z" fill="#9E9E9E"/>
<path d="M157.886 251.239L140.461 246.141C139.776 245.942 139.191 245.556 138.706 244.972L156.131 250.07C156.604 250.642 157.202 251.04 157.886 251.239Z" fill="#858585"/>
<path d="M172.785 188.028L155.36 182.929C155.833 182.917 156.281 182.817 156.704 182.631L174.129 187.73C173.706 187.904 173.246 188.016 172.785 188.028" fill="#401466"/>
<path d="M174.129 187.73L156.704 182.631C157.065 182.482 157.401 182.283 157.712 182.034L175.137 187.133C174.826 187.382 174.49 187.581 174.129 187.73Z" fill="#3E1463"/>
<path d="M175.137 187.145L157.712 182.047C157.936 181.86 158.16 181.661 158.347 181.438L175.772 186.536C175.573 186.76 175.361 186.971 175.137 187.145" fill="#3C1360"/>
<path d="M175.772 186.524L158.347 181.425C158.534 181.214 158.695 180.977 158.845 180.741L176.27 185.84C176.121 186.089 175.959 186.312 175.772 186.524Z" fill="#3A125C"/>
<path d="M176.27 185.84L158.845 180.741C159.007 180.467 159.143 180.181 159.255 179.883L176.681 184.981C176.569 185.28 176.432 185.578 176.27 185.84" fill="#381259"/>
<path d="M176.693 184.982L159.268 179.883C159.442 179.398 159.554 178.876 159.579 178.328C159.666 176.277 158.496 174.573 156.841 174.088L174.266 179.187C175.934 179.672 177.092 181.375 177.004 183.427C176.98 183.974 176.868 184.497 176.693 184.982" fill="#361156"/>
<path d="M173.308 179.037L155.882 173.938C156.044 173.938 156.194 173.951 156.343 173.976L173.768 179.074C173.619 179.05 173.457 179.037 173.308 179.037Z" fill="#9E9E9E"/>
<path d="M173.768 179.062L156.343 173.963C156.505 173.988 156.667 174.025 156.828 174.062L174.254 179.161C174.092 179.111 173.93 179.074 173.768 179.062Z" fill="#999999"/>
<path d="M166.002 203.511L148.576 198.412L154.725 198.238L172.15 203.337L166.002 203.511Z" fill="#411568"/>
<path d="M173.158 179.037L155.733 173.938C155.733 173.938 155.833 173.938 155.87 173.938L173.295 179.037C173.295 179.037 173.196 179.037 173.158 179.037Z" fill="#9E9E9E"/>
<path d="M166.002 203.51L148.576 198.412C149.037 196.87 149.298 195.303 149.36 193.786C149.423 192.206 149.36 190.751 149.149 189.408L166.574 194.507C166.773 195.85 166.848 197.305 166.786 198.884C166.723 200.401 166.45 201.956 166.002 203.51" fill="#858585"/>
<path d="M166.002 203.51L148.576 198.412C149.037 196.87 149.298 195.303 149.36 193.786C149.423 192.206 149.36 190.751 149.149 189.408L166.574 194.507C166.773 195.85 166.848 197.305 166.786 198.884C166.723 200.401 166.45 201.956 166.002 203.51" fill="#858585"/>
<path d="M166.587 194.507L149.161 189.408L155.098 189.234L172.524 194.345L166.587 194.507Z" fill="#A0A0A0"/>
<path d="M166.002 203.51L148.576 198.412C149.037 196.87 149.298 195.303 149.36 193.786C149.423 192.206 149.36 190.751 149.149 189.408L166.574 194.507C166.773 195.85 166.848 197.305 166.786 198.884C166.723 200.401 166.45 201.956 166.002 203.51" fill="#858585"/>
<path d="M164.471 188.265L147.058 183.166L155.36 182.93L172.785 188.028L164.471 188.265Z" fill="#411568"/>
<path d="M166.587 194.507L149.161 189.409C148.8 186.984 148.053 184.919 147.058 183.166L164.483 188.265C165.491 190.018 166.238 192.082 166.587 194.507Z" fill="#361156"/>
<path d="M204.312 189.906L186.887 184.807C181.821 165.892 168.503 151.417 151.277 146.381L168.702 151.479C185.929 156.528 199.247 171.004 204.312 189.906" fill="#2B0B47"/>
<path d="M133.379 271.658L115.953 266.56C118.094 267.194 120.297 267.666 122.563 267.99L139.988 273.088C137.735 272.765 135.532 272.28 133.379 271.658Z" fill="#320D52"/>
<path d="M139.988 273.088L122.562 267.989C124.703 268.3 126.894 268.462 129.122 268.487C129.744 268.487 130.379 268.487 131.014 268.474C137.486 268.288 143.747 266.87 149.609 264.433L167.035 269.531C161.172 271.969 154.911 273.386 148.439 273.573C147.804 273.585 147.17 273.598 146.547 273.585C144.319 273.56 142.129 273.399 139.988 273.088Z" fill="#330D55"/>
<path d="M167.035 269.532L149.609 264.433C154.526 262.393 159.156 259.62 163.413 256.263L180.838 261.361C176.594 264.731 171.951 267.492 167.035 269.532Z" fill="#320D52"/>
<path d="M180.838 261.361L163.413 256.263C166.562 253.776 169.499 250.953 172.175 247.844L189.6 252.942C186.924 256.039 183.987 258.862 180.838 261.361Z" fill="#300C4F"/>
<path d="M143.473 221.045L126.048 215.947C129.085 215.835 131.972 215.213 134.636 214.094L152.061 219.192C149.385 220.312 146.51 220.921 143.473 221.045Z" fill="#401466"/>
<path d="M152.061 219.192L134.636 214.094C136.603 213.273 138.445 212.179 140.162 210.823L157.588 215.922C155.882 217.277 154.028 218.372 152.061 219.192Z" fill="#3E1463"/>
<path d="M157.588 215.934L140.162 210.835C140.224 210.785 140.287 210.735 140.349 210.686C141.469 209.778 142.527 208.758 143.473 207.651L160.898 212.75C159.94 213.857 158.895 214.877 157.774 215.784C157.712 215.834 157.65 215.884 157.588 215.934Z" fill="#3C1360"/>
<path d="M160.899 212.751L143.473 207.652C144.444 206.521 145.315 205.314 146.087 204.046L163.512 209.145C162.753 210.413 161.882 211.619 160.899 212.751Z" fill="#3A125C"/>
<path d="M163.512 209.144L146.087 204.046C146.896 202.703 147.568 201.298 148.091 199.88L165.516 204.979C164.993 206.409 164.309 207.801 163.512 209.144Z" fill="#381259"/>
<path d="M165.516 204.966L148.091 199.867C148.265 199.382 148.427 198.897 148.576 198.412L166.002 203.511C165.852 203.996 165.703 204.481 165.516 204.966" fill="#361156"/>
<path d="M162.218 243.703L144.792 238.604L126.06 215.946L143.473 221.045L162.218 243.703Z" fill="#341153"/>
<path d="M164.471 188.264L147.045 183.165C144.506 178.751 140.312 176.351 136.64 175.281L154.065 180.38C157.737 181.449 161.919 183.849 164.471 188.264Z" fill="#858585"/>
<path d="M136.192 211.034L118.766 205.936C120.098 206.321 121.343 206.595 122.525 206.769L139.951 211.867C138.768 211.693 137.511 211.42 136.192 211.034Z" fill="#999999"/>
<path d="M139.951 211.867L122.525 206.769C123.571 206.918 124.554 206.993 125.475 207.005C128.151 207.03 130.392 206.52 132.234 205.749L149.659 210.848C147.817 211.619 145.577 212.129 142.9 212.104C141.967 212.104 140.984 212.017 139.951 211.867Z" fill="#9E9E9E"/>
<path d="M149.659 210.835L132.234 205.736C133.665 205.139 134.847 204.393 135.818 203.622L153.244 208.721C152.273 209.492 151.09 210.238 149.659 210.835Z" fill="#999999"/>
<path d="M153.244 208.721L135.818 203.622C135.818 203.622 135.905 203.56 135.943 203.523C136.677 202.938 137.324 202.292 137.897 201.62L155.322 206.719C154.75 207.39 154.09 208.024 153.368 208.621C153.331 208.659 153.281 208.684 153.244 208.721Z" fill="#949494"/>
<path d="M155.335 206.719L137.909 201.621C138.519 200.912 139.042 200.178 139.49 199.444L156.916 204.543C156.467 205.277 155.945 206.01 155.335 206.719Z" fill="#8F8F8F"/>
<path d="M156.915 204.542L139.49 199.444C139.652 199.183 139.789 198.921 139.926 198.66C140.224 198.088 140.473 197.529 140.673 196.981L158.098 202.08C157.899 202.627 157.65 203.187 157.351 203.759C157.214 204.02 157.065 204.281 156.915 204.542Z" fill="#8A8A8A"/>
<path d="M158.098 202.08L140.672 196.982C141.071 195.887 141.295 194.868 141.32 194.01C141.394 192.293 141.145 190.851 140.697 189.645C139.403 186.163 136.366 184.67 134.188 184.036L151.613 189.135C153.791 189.769 156.828 191.274 158.123 194.743C158.571 195.95 158.82 197.38 158.745 199.108C158.708 199.966 158.496 200.986 158.098 202.08Z" fill="#858585"/>
<path d="M149.423 188.687L131.997 183.589C132.097 183.589 132.234 183.614 132.395 183.639L149.821 188.737C149.659 188.712 149.522 188.7 149.423 188.687Z" fill="#401466"/>
<path d="M149.821 188.75L132.396 183.651C132.831 183.714 133.466 183.838 134.188 184.049L151.613 189.148C150.891 188.937 150.257 188.825 149.821 188.75Z" fill="#3E1463"/>
<path d="M131.089 189.21L113.676 184.111L131.997 183.589L149.423 188.687L131.089 189.21Z" fill="#411568"/>
<path d="M148.564 188.551L131.138 183.452C131.3 183.502 131.462 183.539 131.636 183.564L149.062 188.663C148.887 188.638 148.726 188.601 148.564 188.551Z" fill="#999999"/>
<path d="M149.062 188.65L131.636 183.552C131.711 183.552 131.773 183.564 131.848 183.577C131.885 183.577 131.935 183.577 132.01 183.589L149.435 188.688C149.373 188.688 149.323 188.688 149.273 188.675C149.199 188.675 149.136 188.663 149.062 188.65Z" fill="#9E9E9E"/>
<path d="M150.144 179.684L132.719 174.585C132.794 174.585 132.868 174.585 132.943 174.585C133.304 174.61 133.69 174.647 134.088 174.709L151.514 179.808C151.115 179.746 150.729 179.708 150.369 179.684C150.294 179.684 150.219 179.684 150.144 179.684Z" fill="#9E9E9E"/>
<path d="M151.514 179.82L134.088 174.722C134.885 174.834 135.756 175.02 136.652 175.281L154.078 180.38C153.181 180.119 152.323 179.932 151.514 179.82Z" fill="#999999"/>
<path d="M148.638 188.55L131.213 183.452C129.321 182.892 128.151 180.965 128.425 178.788C128.475 178.39 128.574 177.992 128.711 177.632L146.137 182.73C146 183.091 145.913 183.477 145.85 183.887C145.577 186.063 146.746 187.991 148.638 188.55Z" fill="#858585"/>
<path d="M146.137 182.73L128.711 177.632C128.823 177.333 128.96 177.035 129.122 176.773L146.547 181.872C146.386 182.146 146.249 182.432 146.137 182.73Z" fill="#8A8A8A"/>
<path d="M146.547 181.872L129.122 176.774C129.271 176.525 129.433 176.301 129.62 176.09L147.045 181.188C146.858 181.4 146.697 181.624 146.547 181.872Z" fill="#8F8F8F"/>
<path d="M147.045 181.176L129.62 176.077C129.819 175.853 130.031 175.642 130.255 175.468L147.68 180.566C147.456 180.74 147.244 180.952 147.045 181.176Z" fill="#949494"/>
<path d="M147.68 180.567L130.255 175.468C130.566 175.219 130.902 175.02 131.25 174.871L148.676 179.97C148.327 180.119 147.991 180.318 147.68 180.567Z" fill="#999999"/>
<path d="M148.676 179.982L131.25 174.883C131.711 174.684 132.209 174.585 132.719 174.585L150.144 179.684C149.634 179.684 149.136 179.783 148.676 179.982Z" fill="#9E9E9E"/>
<path d="M136.192 211.034L118.766 205.935C118.256 205.786 117.733 205.612 117.198 205.425C117.136 205.401 117.086 205.388 117.024 205.363L134.449 210.462C134.449 210.462 134.574 210.499 134.623 210.524C135.159 210.711 135.681 210.872 136.192 211.034Z" fill="#361156"/>
<path d="M136.192 211.034L118.766 205.935C118.256 205.786 117.733 205.612 117.198 205.425C117.136 205.401 117.086 205.388 117.024 205.363L134.449 210.462C134.449 210.462 134.574 210.499 134.623 210.524C135.159 210.711 135.681 210.872 136.192 211.034Z" fill="#361156"/>
<path d="M156.131 250.069L138.706 244.971L112.481 213.26L129.906 218.358L156.131 250.069Z" fill="#808080"/>
<path d="M150.144 179.684C150.219 179.684 150.294 179.684 150.368 179.684C154.463 179.97 161.01 182.221 164.483 188.252C165.491 190.005 166.238 192.07 166.587 194.495C166.786 195.838 166.86 197.293 166.798 198.872C166.736 200.389 166.462 201.944 166.014 203.498C164.657 208.099 161.695 212.613 157.787 215.772C153.717 219.067 148.838 220.833 143.485 221.032L162.23 243.703C163.686 245.456 163.5 248.316 161.819 250.07C161.01 250.915 159.99 251.351 158.994 251.388C157.849 251.388 156.853 250.94 156.144 250.07L129.919 218.359C128.649 216.829 128.549 214.466 129.657 212.613C130.541 211.146 131.985 210.313 133.441 210.325C133.839 210.325 134.238 210.4 134.623 210.537C137.76 211.631 140.511 212.079 142.913 212.104C147.755 212.153 151.165 210.425 153.381 208.622C155.148 207.191 156.467 205.463 157.351 203.759C158.235 202.068 158.695 200.402 158.758 199.121C158.832 197.405 158.583 195.962 158.135 194.756C156.243 189.694 150.68 188.824 149.423 188.7C147.07 188.501 145.539 186.362 145.85 183.887C146.149 181.499 148.041 179.671 150.144 179.684V179.684Z" fill="#E7E7E7"/>
<path d="M129.906 218.359L112.481 213.26C111.41 211.967 111.174 210.089 111.784 208.41L129.209 213.509C128.587 215.175 128.836 217.065 129.906 218.359Z" fill="#858585"/>
<path d="M129.209 213.521L111.784 208.422C111.896 208.112 112.045 207.813 112.219 207.515L129.645 212.613C129.471 212.899 129.321 213.21 129.209 213.521Z" fill="#8A8A8A"/>
<path d="M129.645 212.613L112.219 207.514C112.381 207.253 112.556 207.004 112.742 206.793L130.168 211.892C129.981 212.115 129.807 212.352 129.645 212.613Z" fill="#8F8F8F"/>
<path d="M130.168 211.892L112.742 206.793C112.941 206.557 113.165 206.346 113.402 206.159L130.827 211.258C130.591 211.444 130.367 211.656 130.168 211.892Z" fill="#949494"/>
<path d="M130.827 211.258L113.402 206.159C113.725 205.898 114.086 205.686 114.447 205.537L131.873 210.636C131.499 210.785 131.151 210.996 130.827 211.258Z" fill="#999999"/>
<path d="M131.873 210.636L114.447 205.537C114.945 205.326 115.468 205.227 116.003 205.227C116.165 205.227 116.339 205.239 116.501 205.264L133.926 210.363C133.765 210.338 133.59 210.325 133.429 210.325C132.906 210.325 132.371 210.425 131.873 210.636Z" fill="#9E9E9E"/>
<path d="M133.926 210.362L116.501 205.264C116.675 205.289 116.837 205.326 117.011 205.376L134.437 210.474C134.275 210.424 134.101 210.387 133.926 210.362Z" fill="#999999"/>
<path d="M130.441 204.518L113.016 199.42L139.926 198.661L157.351 203.76L130.441 204.518Z" fill="#411568"/>
<path d="M129.495 204.381L112.07 199.282C112.232 199.332 112.394 199.369 112.555 199.382L129.981 204.48C129.819 204.455 129.657 204.418 129.495 204.381Z" fill="#3E1463"/>
<path d="M129.981 204.48L112.556 199.382C112.705 199.407 112.867 199.419 113.016 199.419L130.441 204.518C130.28 204.518 130.13 204.505 129.981 204.48Z" fill="#401466"/>
<path d="M130.964 195.527L113.539 190.416L140.71 189.645L158.135 194.756L130.964 195.527Z" fill="#A0A0A0"/>
<path d="M130.143 189.072L112.717 183.974C112.879 184.023 113.041 184.061 113.203 184.073L130.628 189.172C130.466 189.147 130.292 189.11 130.143 189.072Z" fill="#3E1463"/>
<path d="M130.628 189.172L113.203 184.073C113.352 184.098 113.514 184.111 113.676 184.111L131.101 189.209C130.939 189.209 130.79 189.197 130.628 189.172Z" fill="#401466"/>
<path d="M129.495 204.382L112.07 199.283C110.402 198.798 109.245 197.094 109.332 195.042C109.357 194.495 109.469 193.973 109.643 193.476L127.068 198.574C126.894 199.059 126.782 199.594 126.757 200.141C126.67 202.193 127.84 203.897 129.495 204.382Z" fill="#858585"/>
<path d="M127.056 198.574L109.63 193.475C109.743 193.177 109.879 192.878 110.041 192.604L127.467 197.703C127.305 197.977 127.168 198.263 127.056 198.574Z" fill="#8A8A8A"/>
<path d="M127.479 197.703L110.054 192.605C110.203 192.356 110.365 192.132 110.552 191.921L127.977 197.02C127.79 197.231 127.628 197.467 127.479 197.703Z" fill="#8F8F8F"/>
<path d="M127.977 197.02L110.552 191.921C110.751 191.697 110.962 191.486 111.186 191.312L128.612 196.41C128.388 196.597 128.176 196.796 127.977 197.02Z" fill="#949494"/>
<path d="M128.612 196.41L111.186 191.312C111.497 191.063 111.834 190.864 112.182 190.715L129.607 195.813C129.246 195.963 128.91 196.162 128.612 196.41Z" fill="#999999"/>
<path d="M129.607 195.813L112.182 190.714C112.605 190.54 113.066 190.428 113.539 190.416L130.964 195.515C130.491 195.527 130.043 195.627 129.607 195.813Z" fill="#9E9E9E"/>
<path d="M131.599 180.206L114.186 175.107L155.746 173.926L173.158 179.037L131.599 180.206Z" fill="#A0A0A0"/>
<path d="M130.143 189.073L112.717 183.974C111.049 183.489 109.892 181.786 109.979 179.721C110.004 179.174 110.116 178.652 110.29 178.154L127.716 183.253C127.541 183.738 127.429 184.273 127.404 184.82C127.317 186.884 128.487 188.588 130.143 189.073Z" fill="#858585"/>
<path d="M127.703 183.253L110.278 178.154C110.39 177.855 110.527 177.569 110.688 177.296L128.114 182.395C127.952 182.668 127.815 182.954 127.703 183.253Z" fill="#8A8A8A"/>
<path d="M128.114 182.395L110.688 177.296C110.838 177.048 111 176.824 111.186 176.612L128.612 181.711C128.425 181.922 128.263 182.159 128.114 182.395Z" fill="#8F8F8F"/>
<path d="M128.612 181.711L111.186 176.612C111.385 176.388 111.597 176.177 111.821 176.003L129.246 181.102C129.022 181.288 128.811 181.487 128.612 181.711Z" fill="#949494"/>
<path d="M129.246 181.102L111.821 176.003C112.132 175.754 112.468 175.555 112.829 175.406L130.255 180.505C129.894 180.654 129.558 180.853 129.246 181.102Z" fill="#999999"/>
<path d="M130.255 180.505L112.829 175.406C113.252 175.232 113.713 175.12 114.173 175.107L131.599 180.206C131.126 180.219 130.678 180.318 130.255 180.505Z" fill="#9E9E9E"/>
<path d="M173.308 179.037C175.461 179.062 177.104 180.99 177.004 183.427C176.892 185.914 175.013 187.966 172.785 188.041L164.471 188.277C160.998 182.246 154.464 179.995 150.356 179.709C150.281 179.709 150.207 179.709 150.132 179.709C148.029 179.684 146.137 181.524 145.838 183.912C145.527 186.387 147.058 188.526 149.248 188.712C149.286 188.712 149.335 188.712 149.41 188.725L131.213 189.247C131.213 189.247 131.126 189.247 131.076 189.247C128.923 189.222 127.267 187.294 127.38 184.857C127.479 182.37 129.371 180.306 131.586 180.243L173.146 179.074C173.146 179.074 173.246 179.074 173.283 179.074L173.308 179.037Z" fill="#E7E7E7"/>
<path d="M133.379 271.658L115.953 266.559C98.7271 261.51 85.4092 247.048 80.3434 228.133L97.7688 233.231C102.835 252.146 116.153 266.621 133.379 271.658Z" fill="#361156"/>
<path d="M204.325 189.906C198.027 166.403 178.984 149.751 155.546 149.54C154.924 149.54 154.289 149.54 153.655 149.552C126.197 150.336 102.474 173.305 96.8354 202.752C96.3375 205.364 95.9765 208.025 95.7649 210.724C95.7027 211.52 95.6529 212.328 95.628 213.124C95.3293 220.187 96.101 226.952 97.7813 233.22C104.079 256.723 123.123 273.375 146.56 273.586C147.182 273.586 147.817 273.586 148.452 273.561C175.698 272.803 199.272 250.157 205.134 221.045C205.731 218.135 206.13 215.176 206.354 212.154C206.404 211.433 206.453 210.711 206.478 209.978C206.765 202.914 206.005 196.161 204.325 189.894V189.906ZM166.587 194.508L172.661 194.346C174.814 194.358 176.457 196.298 176.357 198.723C176.258 201.21 174.366 203.275 172.15 203.337L166.002 203.511C164.657 208.112 161.683 212.614 157.774 215.773C153.692 219.068 148.813 220.834 143.473 221.033L162.218 243.691C163.674 245.444 163.487 248.304 161.807 250.058C160.998 250.903 159.99 251.351 158.857 251.376C157.837 251.376 156.853 250.916 156.131 250.045L129.906 218.334C128.637 216.805 128.537 214.442 129.657 212.589C130.529 211.134 131.985 210.288 133.441 210.301C133.839 210.301 134.238 210.363 134.624 210.5C137.76 211.594 140.511 212.054 142.913 212.067C147.755 212.116 151.153 210.388 153.381 208.597C155.161 207.167 156.467 205.426 157.364 203.735L130.454 204.493C128.301 204.469 126.658 202.541 126.757 200.104C126.857 197.629 128.749 195.552 130.964 195.502L158.135 194.731C156.243 189.658 150.68 188.8 149.423 188.675L131.101 189.197C128.948 189.173 127.292 187.245 127.392 184.795C127.492 182.321 129.383 180.256 131.599 180.194L173.295 179.013C175.449 179.025 177.092 180.965 176.992 183.39C176.892 185.877 175.001 187.941 172.785 188.004L164.471 188.24C165.479 189.981 166.226 192.058 166.587 194.483V194.508Z" fill="#6821A5"/>
<path d="M176.357 198.723C176.258 201.21 174.366 203.275 172.15 203.337L166.002 203.511C164.657 208.112 161.683 212.614 157.774 215.773C153.692 219.068 148.813 220.834 143.473 221.033L162.218 243.691C163.674 245.444 163.487 248.304 161.807 250.058C160.998 250.903 159.99 251.351 158.857 251.376C157.837 251.376 156.853 250.916 156.131 250.045L129.906 218.334C128.637 216.805 128.537 214.442 129.657 212.589C130.529 211.134 131.985 210.288 133.441 210.301C133.839 210.301 134.238 210.363 134.624 210.5C137.76 211.594 140.511 212.054 142.913 212.067C147.755 212.117 151.153 210.388 153.381 208.597C155.161 207.167 156.467 205.426 157.364 203.735L130.454 204.493C128.301 204.469 126.658 202.541 126.757 200.104C126.857 197.629 128.749 195.552 130.964 195.502L158.135 194.731C156.243 189.658 150.68 188.8 149.423 188.675L131.101 189.198C128.948 189.173 127.292 187.245 127.392 184.795C127.492 182.321 129.383 180.256 131.599 180.194L173.295 179.013C175.449 179.025 177.092 180.965 176.992 183.39C176.893 185.877 175.001 187.942 172.785 188.004L164.471 188.24C165.479 189.981 166.226 192.058 166.587 194.483L172.661 194.321C174.814 194.333 176.457 196.273 176.357 198.698V198.723Z" fill="white"/>
<path d="M95.5035 287.24L78.0781 282.142L80.3434 228.121L97.7688 233.22L95.5035 287.24Z" fill="#2B0B47"/>
<path d="M205.134 221.045C199.321 256.909 173.196 285.039 143.025 285.897L95.5035 287.24L97.7688 233.219C104.067 256.723 123.11 273.374 146.547 273.586C147.17 273.586 147.805 273.586 148.439 273.573C175.685 272.802 199.259 250.169 205.134 221.045V221.045Z" fill="#F5A3D3"/>
<path d="M206.59 135.636L204.312 189.893C198.014 166.39 178.971 149.739 155.534 149.527C154.912 149.527 154.277 149.527 153.642 149.54C126.185 150.311 102.461 173.292 96.8229 202.739C102.337 166.44 128.649 137.838 159.069 136.98L206.59 135.624V135.636Z" fill="#F5A3D3"/>
<path d="M95.7649 210.724C95.7026 211.52 95.6528 212.328 95.628 213.136C95.3292 220.2 96.1009 226.952 97.7812 233.22L94.8563 302.822C94.7567 305.322 92.815 307.001 90.9231 306.988C90.0767 306.988 89.2304 306.628 88.5582 305.869L52.0521 264.085C50.7078 262.556 50.8074 259.981 52.2886 258.365L95.7773 210.724H95.7649Z" fill="#F5A3D3"/>
<path d="M46.0777 268.635H8.1775C7.09464 268.635 0.074707 268.026 0.074707 264.295C0.074707 261.535 5.57614 258.612 8.33931 258.612H46.0777C48.8408 258.612 51.0937 260.851 51.0937 263.624C51.0937 266.385 48.8533 268.635 46.0777 268.635Z" fill="#4C1A84"/>
<path d="M58.1385 112.394H24.5698L22.0804 106.624H60.6278L58.1385 112.394Z" fill="#4C1A84"/>
<g clip-path="url(#clip1_959_10534)">
<path d="M176.15 27.8747L93.2062 27.4842C87.6176 27.4579 83.0658 31.963 83.0395 37.5466L82.2586 203.101C82.2323 208.685 86.7414 213.233 92.33 213.259L175.274 213.649C180.862 213.676 185.414 209.171 185.441 203.587L186.221 38.0324C186.248 32.4488 181.739 27.901 176.15 27.8747Z" fill="#8254CC"/>
<path d="M195.172 40.0896C195.179 38.5718 193.954 37.3355 192.435 37.3284C190.915 37.3212 189.678 38.5459 189.671 40.0637L188.867 210.481C188.86 211.998 190.086 213.235 191.605 213.242C193.124 213.249 194.361 212.024 194.368 210.506L195.172 40.0896Z" fill="#9D77E8"/>
<path d="M189.614 41.6423L186.141 41.626L185.332 213.199L188.804 213.216L189.614 41.6423Z" fill="#6821A5"/>
<path d="M174.191 34.2839L95.0429 33.9112C92.0527 33.8972 89.6172 36.3076 89.6031 39.2952L89.5227 56.3568C89.5086 59.3444 91.9212 61.7777 94.9114 61.7918L174.059 62.1644C177.049 62.1785 179.485 59.768 179.499 56.7804L179.579 39.7188C179.593 36.7313 177.181 34.298 174.191 34.2839Z" fill="#6821A5"/>
<path d="M174.185 77.7214L95.0372 77.3487C92.047 77.3347 89.6115 79.7451 89.5974 82.7327L89.4748 108.735C89.4607 111.723 91.8733 114.156 94.8635 114.17L174.011 114.543C177.001 114.557 179.437 112.147 179.451 109.159L179.574 83.1563C179.588 80.1688 177.175 77.7355 174.185 77.7214Z" fill="#6821A5"/>
<path d="M173.455 79.4215L95.7511 79.0556C93.6957 79.0459 92.0217 80.7028 92.012 82.7563L91.8906 108.498C91.8809 110.551 93.5392 112.224 95.5946 112.234L173.298 112.6C175.354 112.609 177.028 110.952 177.037 108.899L177.159 83.1572C177.169 81.1037 175.51 79.4311 173.455 79.4215Z" fill="#ECE4FF"/>
<path d="M110.202 121.392L99.9585 121.344C96.6245 121.328 93.9091 124.016 93.8934 127.347L93.8722 131.848C93.8565 135.179 96.5464 137.892 99.8803 137.908L110.124 137.956C113.458 137.972 116.173 135.284 116.189 131.953L116.21 127.452C116.226 124.121 113.536 121.408 110.202 121.392Z" fill="#6821A5"/>
<path d="M139.65 121.394L129.407 121.346C126.073 121.33 123.358 124.018 123.342 127.349L123.321 131.85C123.305 135.181 125.995 137.894 129.329 137.91L139.572 137.958C142.906 137.974 145.622 135.286 145.637 131.955L145.659 127.454C145.674 124.123 142.984 121.41 139.65 121.394Z" fill="#6821A5"/>
<path d="M168.526 121.393L158.283 121.345C154.949 121.329 152.234 124.017 152.218 127.348L152.197 131.849C152.181 135.18 154.871 137.893 158.205 137.909L168.448 137.957C171.782 137.973 174.498 135.285 174.513 131.954L174.535 127.453C174.55 124.122 171.86 121.409 168.526 121.393Z" fill="#6821A5"/>
<path d="M110.204 142.123L99.9603 142.074C96.6264 142.059 93.911 144.746 93.8953 148.077L93.874 152.579C93.8583 155.91 96.5482 158.623 99.8822 158.638L110.126 158.687C113.46 158.702 116.175 156.015 116.191 152.684L116.212 148.182C116.228 144.851 113.538 142.138 110.204 142.123Z" fill="#6821A5"/>
<path d="M173.467 0.368233L96.0865 0.00390625L95.8286 54.683L173.209 55.0474L173.467 0.368233Z" fill="#ECE4FF"/>
<path d="M76.5596 261.609L5.46415 261.274C2.42715 261.261 -0.0123993 258.799 4.74162e-05 255.777L0.647275 107.233C0.659722 104.211 3.12417 101.761 6.16116 101.773L77.2567 102.109C80.2812 102.122 82.7332 104.584 82.7208 107.618L82.0735 256.163C82.0611 259.185 79.5966 261.634 76.5596 261.622V261.609Z" fill="#4C1A84"/>
<path d="M72.7883 254.484L9.29777 254.186C7.53034 254.186 6.12387 251.288 6.13631 247.732L6.70886 114.682C6.72131 111.126 8.16512 108.253 9.93255 108.253L73.4231 108.551C75.1906 108.551 76.597 111.449 76.5846 115.006L76.012 248.055C75.9996 251.612 74.5558 254.484 72.7883 254.484V254.484Z" fill="#723EAC"/>
<path d="M18.11 164.673C17.4005 164.673 16.828 164.089 16.8404 163.392L16.8902 152.536C16.8902 151.429 17.7988 150.534 18.9066 150.546L29.7725 150.596C30.482 150.596 31.0545 151.18 31.0421 151.877C31.0296 152.573 30.4571 153.158 29.7601 153.145L19.4542 153.095L19.4044 163.392C19.4044 164.101 18.8194 164.673 18.1224 164.661L18.11 164.673Z" fill="#ECE4FF"/>
<path d="M35.445 164.229L30.454 164.205L30.4305 169.192L35.4215 169.215L35.445 164.229Z" fill="#ECE4FF"/>
<path d="M53.5668 164.314L48.5757 164.29L48.5522 169.277L53.5432 169.3L53.5668 164.314Z" fill="#ECE4FF"/>
<path d="M35.4109 174.136L25.217 174.086L25.2793 160.83C25.2793 159.81 26.1256 158.977 27.1463 158.989L40.6883 159.052L40.6385 169.062H38.2736L38.311 161.414L27.6566 161.365L27.6068 171.736L35.4358 171.773V174.136H35.4109Z" fill="#ECE4FF"/>
<path d="M30.5103 182.27L30.4868 187.257L35.4779 187.28L35.5014 182.294L30.5103 182.27Z" fill="#ECE4FF"/>
<path d="M38.2031 182.284L38.1886 185.368L40.5534 185.379L40.568 182.295L38.2031 182.284Z" fill="#ECE4FF"/>
<path d="M38.1616 190.103H40.5265V192.491L27.1214 192.429C26.1008 192.429 25.2793 191.583 25.2793 190.563L25.3415 177.033L35.3611 177.083V179.446L27.7064 179.408L27.6566 190.053L38.1741 190.103H38.1616Z" fill="#ECE4FF"/>
<path d="M56.7819 192.429L50.8075 192.404V190.041L56.2716 190.066V186.994L53.4586 186.982V184.619L58.6738 184.644L58.6489 190.601C58.6489 191.62 57.8025 192.454 56.7819 192.441V192.429Z" fill="#ECE4FF"/>
<path d="M45.6172 192.516L43.2399 192.504L43.3145 177.258L50.8821 177.295L50.8697 179.658L45.6794 179.633L45.6172 192.516Z" fill="#ECE4FF"/>
<path d="M48.4924 182.344L50.8572 182.356L50.8199 190.041L43.2523 190.004L43.2648 187.629L48.4675 187.654L48.4924 182.344Z" fill="#ECE4FF"/>
<path d="M58.7236 174.248L53.5209 174.223V171.86L56.3587 171.873L56.4085 161.501L45.7541 161.451L45.6919 174.198H43.327L43.4017 159.076L56.9437 159.138C57.9643 159.138 58.7983 159.984 58.7858 161.004L58.7236 174.26V174.248Z" fill="#ECE4FF"/>
<path d="M40.5995 171.788L38.2346 171.777L38.2235 174.14L40.5883 174.151L40.5995 171.788Z" fill="#ECE4FF"/>
<path d="M40.5869 177.111L38.222 177.1L38.1928 183.305L40.5576 183.316L40.5869 177.111Z" fill="#ECE4FF"/>
<path d="M50.8926 171.837L48.5277 171.826L48.5166 174.189L50.8814 174.2L50.8926 171.837Z" fill="#ECE4FF"/>
<path d="M55.9586 179.683L53.5938 179.672L53.5826 182.035L55.9474 182.046L55.9586 179.683Z" fill="#ECE4FF"/>
<path d="M58.3346 177.331L55.9697 177.32L55.9586 179.683L58.3234 179.694L58.3346 177.331Z" fill="#ECE4FF"/>
<path d="M65.0216 200.886L54.1556 200.836C53.4462 200.836 52.8736 200.252 52.8861 199.556C52.8985 198.859 53.4711 198.275 54.1681 198.287L64.4739 198.337L64.5237 188.04C64.5237 187.331 65.1087 186.759 65.8057 186.772C66.5027 186.784 67.0877 187.356 67.0753 188.053L67.0255 198.909C67.0255 200.016 66.1169 200.911 65.0091 200.899L65.0216 200.886Z" fill="#ECE4FF"/>
<path d="M65.8181 164.797C65.1086 164.797 64.5361 164.213 64.5485 163.516L64.5983 153.219L54.2925 153.17C53.583 153.17 53.0105 152.585 53.0229 151.889C53.0354 151.192 53.6079 150.608 54.3049 150.62L65.1709 150.67C66.2786 150.67 67.1748 151.578 67.1623 152.685L67.1126 163.541C67.1126 164.25 66.5276 164.822 65.8306 164.809L65.8181 164.797Z" fill="#ECE4FF"/>
<path d="M29.6232 200.811L18.7572 200.762C17.6495 200.762 16.7533 199.854 16.7658 198.747L16.8155 187.891C16.8155 187.182 17.4005 186.61 18.0975 186.622C18.7946 186.635 19.3796 187.207 19.3671 187.903L19.3173 198.2L29.6232 198.25C30.3326 198.25 30.9052 198.834 30.8927 199.531C30.8803 200.227 30.3078 200.811 29.6107 200.799L29.6232 200.811Z" fill="#ECE4FF"/>
<path d="M207.349 119.259C207.399 119.047 207.449 118.848 207.524 118.662C207.524 118.625 207.549 118.6 207.561 118.562C207.648 118.326 207.76 118.102 207.885 117.891C207.897 117.866 207.922 117.841 207.934 117.804C208.046 117.617 208.183 117.431 208.32 117.269C208.333 117.257 208.345 117.232 208.37 117.219C208.532 117.033 208.706 116.871 208.893 116.722C208.918 116.697 208.943 116.685 208.98 116.66C209.092 116.585 209.192 116.498 209.304 116.436C209.341 116.411 209.366 116.399 209.403 116.374C209.54 116.299 209.677 116.224 209.826 116.162C209.839 116.162 209.864 116.15 209.876 116.137C210.075 116.05 210.287 115.988 210.498 115.951H210.523C210.747 115.914 210.971 115.889 211.183 115.889L193.758 110.79C193.534 110.79 193.31 110.815 193.098 110.852H193.073C192.862 110.89 192.65 110.964 192.451 111.051C192.451 111.051 192.426 111.051 192.413 111.051C192.413 111.051 192.413 111.051 192.401 111.051C192.252 111.113 192.115 111.188 191.978 111.263C191.94 111.287 191.916 111.3 191.878 111.325C191.766 111.399 191.654 111.474 191.555 111.549C191.53 111.561 191.517 111.573 191.492 111.586C191.492 111.586 191.48 111.598 191.468 111.611C191.281 111.76 191.107 111.934 190.945 112.108C190.945 112.108 190.92 112.121 190.92 112.133C190.92 112.133 190.92 112.146 190.907 112.158C190.77 112.32 190.634 112.506 190.522 112.693C190.522 112.705 190.497 112.718 190.484 112.742C190.484 112.742 190.484 112.767 190.472 112.78C190.347 112.991 190.248 113.215 190.148 113.439C190.148 113.451 190.136 113.476 190.123 113.489C190.123 113.501 190.123 113.513 190.123 113.526C190.049 113.712 189.999 113.911 189.949 114.123C189.949 114.16 189.937 114.21 189.924 114.247C189.887 114.471 189.849 114.682 189.849 114.919L189.19 130.501L141.668 131.856C140.785 131.881 139.901 131.931 139.03 132.005C138.743 132.03 138.469 132.068 138.183 132.092C137.586 132.155 136.988 132.217 136.403 132.291C136.08 132.341 135.756 132.391 135.432 132.441C134.885 132.528 134.325 132.615 133.777 132.727C133.453 132.789 133.13 132.851 132.806 132.913C132.246 133.025 131.674 133.162 131.113 133.299C130.827 133.373 130.529 133.435 130.242 133.51C129.545 133.697 128.861 133.896 128.176 134.107C128.027 134.157 127.877 134.194 127.728 134.244C126.894 134.505 126.073 134.791 125.251 135.102C125.015 135.189 124.791 135.288 124.554 135.375C124.106 135.55 123.645 135.724 123.197 135.91C123.048 135.972 122.911 136.035 122.762 136.097C122.538 136.196 122.314 136.296 122.102 136.383C121.505 136.644 120.907 136.93 120.31 137.216C120.111 137.315 119.924 137.402 119.725 137.502C118.966 137.875 118.219 138.273 117.472 138.683C117.335 138.758 117.198 138.845 117.049 138.92C116.426 139.268 115.817 139.628 115.219 140.001C115.007 140.138 114.783 140.263 114.572 140.399C113.962 140.785 113.352 141.183 112.742 141.593C112.618 141.68 112.493 141.755 112.369 141.842C111.659 142.327 110.95 142.837 110.253 143.359C110.066 143.496 109.892 143.633 109.718 143.77C109.419 143.993 109.133 144.217 108.834 144.441C108.672 144.565 108.523 144.715 108.361 144.839C107.876 145.224 107.403 145.635 106.917 146.033C106.594 146.319 106.257 146.592 105.934 146.878C105.448 147.314 104.963 147.761 104.49 148.209C104.191 148.483 103.893 148.756 103.594 149.042C103.059 149.552 102.548 150.087 102.026 150.622C101.789 150.858 101.565 151.094 101.329 151.33C100.594 152.114 99.8599 152.91 99.1504 153.731C99.1504 153.731 99.1504 153.743 99.1379 153.755C99.0508 153.855 98.9637 153.967 98.889 154.066C98.2791 154.775 97.6817 155.496 97.0967 156.243C96.8602 156.541 96.6362 156.839 96.4121 157.138C95.9765 157.697 95.5408 158.27 95.1177 158.854C94.8563 159.202 94.6073 159.563 94.3584 159.923C93.9726 160.471 93.5992 161.018 93.2258 161.565C92.9644 161.95 92.7155 162.336 92.4665 162.734C92.118 163.281 91.7695 163.828 91.4334 164.388C91.3214 164.574 91.197 164.749 91.0974 164.935C90.9854 165.134 90.8733 165.333 90.7613 165.532C90.3257 166.266 89.9025 167.012 89.4918 167.758C89.3051 168.106 89.1059 168.442 88.9192 168.79C88.3965 169.773 87.8861 170.78 87.4007 171.787C87.3509 171.899 87.2887 171.999 87.2389 172.098C86.7037 173.217 86.1934 174.361 85.708 175.505C85.5586 175.854 85.4217 176.202 85.2848 176.55C84.9487 177.383 84.6127 178.216 84.289 179.062C84.2144 179.261 84.1272 179.46 84.0526 179.659C83.9156 180.044 83.7787 180.43 83.6418 180.815C83.5671 181.027 83.4924 181.238 83.4178 181.462C83.1066 182.382 82.7954 183.315 82.5092 184.248C82.4469 184.434 82.3971 184.621 82.3349 184.82C82.0984 185.603 81.8744 186.399 81.6503 187.195C81.5881 187.444 81.5134 187.68 81.4512 187.929C81.2023 188.886 80.9533 189.856 80.7293 190.826C80.7044 190.951 80.6795 191.087 80.6422 191.212C80.443 192.07 80.2688 192.94 80.0945 193.823C80.0447 194.084 79.9949 194.345 79.9451 194.619C79.7584 195.614 79.5842 196.621 79.4348 197.628C78.937 200.24 78.576 202.901 78.3644 205.6L34.8757 253.241C34.8757 253.241 34.8259 253.303 34.801 253.328C34.7014 253.44 34.6267 253.564 34.5396 253.676C34.4774 253.751 34.4151 253.825 34.3654 253.912C34.3654 253.912 34.3529 253.925 34.3405 253.937C34.2907 254.012 34.2658 254.099 34.2284 254.174C34.1413 254.335 34.0542 254.497 33.992 254.659C33.992 254.683 33.9671 254.696 33.9671 254.708C33.8924 254.907 33.8426 255.106 33.7928 255.305C33.7928 255.355 33.7804 255.405 33.7679 255.442C33.7306 255.629 33.7057 255.815 33.6932 256.002C33.6932 256.076 33.6932 256.138 33.6932 256.213C33.6932 256.412 33.6932 256.599 33.7181 256.785C33.7181 256.822 33.7181 256.86 33.7181 256.909C33.7555 257.133 33.8053 257.357 33.8675 257.569C33.8799 257.631 33.9048 257.68 33.9297 257.73C33.992 257.892 34.0542 258.054 34.1413 258.203C34.1662 258.265 34.2036 258.315 34.2284 258.377C34.3405 258.576 34.4649 258.762 34.6267 258.936L71.1329 300.72C71.581 301.23 72.1037 301.554 72.6638 301.715L90.0892 306.814C89.5415 306.652 89.0063 306.329 88.5583 305.819L52.0521 264.035C51.9027 263.861 51.7783 263.674 51.6538 263.475C51.6165 263.426 51.5916 263.364 51.5667 263.301C51.492 263.152 51.4173 262.991 51.3551 262.829C51.3302 262.779 51.3178 262.717 51.2929 262.667C51.2306 262.456 51.1808 262.232 51.1435 262.008C51.1435 261.971 51.1435 261.933 51.1435 261.884C51.1186 261.697 51.1186 261.498 51.1186 261.312C51.1186 261.237 51.1186 261.175 51.1186 261.1C51.1186 260.914 51.1559 260.727 51.1933 260.541C51.1933 260.491 51.2057 260.441 51.2182 260.404C51.268 260.18 51.3302 259.956 51.4173 259.745C51.4796 259.583 51.5667 259.421 51.6538 259.26C51.7036 259.173 51.7409 259.086 51.7907 258.999C51.8405 258.912 51.9027 258.837 51.965 258.762C52.077 258.613 52.1766 258.464 52.301 258.315L80.2688 227.661C80.3061 227.798 80.331 227.934 80.3683 228.059L97.7937 233.157C96.1134 226.89 95.3417 220.137 95.6404 213.074C95.6778 212.265 95.7275 211.469 95.7773 210.661C95.9889 207.963 96.3374 205.289 96.8477 202.69C97.022 201.745 97.2336 200.812 97.4452 199.879C97.5199 199.568 97.607 199.258 97.6817 198.959C97.831 198.35 97.9804 197.728 98.1547 197.119C98.2542 196.758 98.3663 196.397 98.4783 196.024C98.6401 195.477 98.7894 194.942 98.9637 194.395C99.0882 194.01 99.2251 193.624 99.3495 193.251C99.5238 192.741 99.6856 192.231 99.8723 191.734C99.9843 191.436 100.096 191.137 100.221 190.839C100.47 190.167 100.744 189.496 101.017 188.836C101.154 188.501 101.304 188.153 101.453 187.817C101.714 187.207 102.001 186.586 102.275 185.989C102.424 185.653 102.586 185.33 102.747 184.994C103.059 184.347 103.395 183.701 103.731 183.066C103.868 182.805 104.005 182.544 104.142 182.283C104.627 181.4 105.112 180.529 105.635 179.671C105.747 179.485 105.872 179.298 105.984 179.112C106.357 178.502 106.743 177.881 107.129 177.284C107.315 176.998 107.515 176.712 107.714 176.426C108.05 175.928 108.386 175.443 108.722 174.958C108.946 174.647 109.17 174.349 109.394 174.038C109.73 173.59 110.054 173.143 110.402 172.707C110.639 172.396 110.888 172.098 111.137 171.787C111.473 171.364 111.821 170.954 112.17 170.544C112.419 170.245 112.668 169.959 112.929 169.673C113.327 169.225 113.725 168.778 114.136 168.342C114.385 168.069 114.634 167.808 114.883 167.547C115.319 167.086 115.767 166.639 116.227 166.203C116.451 165.98 116.675 165.756 116.912 165.532C117.534 164.947 118.156 164.363 118.791 163.803C118.866 163.741 118.928 163.679 119.003 163.617C119.712 162.995 120.434 162.398 121.169 161.814C121.766 161.341 122.376 160.869 122.986 160.421C123.098 160.334 123.21 160.259 123.322 160.185C123.845 159.812 124.367 159.438 124.903 159.078C125.114 158.929 125.326 158.792 125.537 158.655C125.985 158.357 126.446 158.071 126.894 157.785C127.118 157.648 127.342 157.511 127.554 157.374C128.064 157.063 128.587 156.765 129.11 156.466C129.259 156.379 129.408 156.292 129.57 156.205C130.242 155.832 130.927 155.471 131.611 155.136C131.786 155.049 131.96 154.974 132.122 154.887C132.644 154.626 133.18 154.377 133.702 154.141C133.939 154.029 134.175 153.929 134.412 153.83C134.86 153.643 135.308 153.457 135.756 153.27C136.105 153.134 136.453 152.997 136.802 152.86C137.225 152.698 137.648 152.549 138.071 152.4C138.42 152.276 138.768 152.151 139.129 152.039C139.565 151.902 139.988 151.766 140.424 151.641C140.772 151.542 141.121 151.43 141.482 151.33C141.93 151.206 142.365 151.094 142.813 150.995C143.162 150.908 143.51 150.821 143.871 150.733C144.332 150.634 144.792 150.535 145.253 150.447C145.601 150.385 145.938 150.311 146.286 150.249C146.771 150.161 147.257 150.099 147.755 150.025C148.078 149.975 148.402 149.925 148.738 149.875C149.286 149.801 149.821 149.751 150.369 149.701C150.642 149.676 150.929 149.639 151.202 149.614C152.024 149.552 152.858 149.502 153.692 149.477C154.327 149.465 154.961 149.453 155.584 149.465C156.144 149.465 156.716 149.49 157.276 149.515C157.463 149.515 157.65 149.54 157.824 149.552C158.198 149.577 158.571 149.589 158.944 149.614C159.168 149.627 159.38 149.652 159.604 149.676C159.94 149.701 160.276 149.739 160.6 149.776C160.836 149.801 161.06 149.838 161.297 149.863C161.608 149.9 161.919 149.938 162.23 149.987C162.554 150.037 162.865 150.087 163.189 150.149C163.425 150.186 163.662 150.224 163.886 150.261C164.222 150.323 164.545 150.385 164.881 150.46C165.093 150.51 165.317 150.547 165.529 150.597C165.89 150.671 166.251 150.758 166.599 150.845C166.786 150.895 166.96 150.932 167.147 150.97C167.682 151.107 168.217 151.256 168.74 151.405L151.314 146.306C150.779 146.157 150.257 146.008 149.721 145.871C149.535 145.821 149.348 145.784 149.161 145.734C148.813 145.647 148.452 145.56 148.091 145.486C147.879 145.436 147.655 145.399 147.431 145.349C147.107 145.287 146.771 145.212 146.448 145.15C146.211 145.113 145.975 145.075 145.751 145.038C145.427 144.988 145.116 144.926 144.792 144.876C144.768 144.876 144.743 144.876 144.705 144.864C144.431 144.827 144.145 144.789 143.859 144.752C143.622 144.727 143.386 144.69 143.149 144.665C142.826 144.628 142.49 144.603 142.166 144.565C141.942 144.541 141.718 144.516 141.506 144.503C141.133 144.478 140.76 144.453 140.386 144.441C140.2 144.441 140.013 144.416 139.826 144.404C139.266 144.379 138.706 144.366 138.133 144.354C137.511 144.354 136.876 144.354 136.242 144.366C135.408 144.391 134.574 144.441 133.752 144.503C133.665 144.503 133.578 144.516 133.478 144.528C133.802 144.342 134.113 144.143 134.437 143.968C134.574 143.894 134.723 143.807 134.86 143.732C135.607 143.322 136.354 142.924 137.113 142.551C137.3 142.451 137.499 142.364 137.698 142.265C138.295 141.979 138.893 141.705 139.49 141.432C139.714 141.332 139.938 141.233 140.15 141.146C140.747 140.897 141.345 140.661 141.942 140.424C142.179 140.337 142.403 140.238 142.639 140.151C143.461 139.852 144.282 139.566 145.116 139.293C145.265 139.243 145.415 139.206 145.564 139.156C146.249 138.944 146.946 138.745 147.63 138.559C147.917 138.484 148.215 138.422 148.502 138.348C149.062 138.211 149.622 138.086 150.194 137.962C150.518 137.9 150.841 137.838 151.165 137.776C151.713 137.676 152.26 137.577 152.821 137.489C153.144 137.44 153.468 137.39 153.791 137.34C154.389 137.266 154.974 137.191 155.571 137.141C155.858 137.116 156.131 137.079 156.418 137.054C157.289 136.98 158.173 136.93 159.056 136.905L188.928 136.059L186.887 184.72L204.312 189.819L207.25 119.968C207.25 119.731 207.287 119.507 207.325 119.296C207.325 119.259 207.337 119.209 207.349 119.172V119.259Z" fill="#4C1A84"/>
<path d="M180.838 261.361L163.413 256.263C166.562 253.776 169.499 250.953 172.175 247.844L189.6 252.942C186.924 256.039 183.987 258.862 180.838 261.361Z" fill="#300C4F"/>
<path d="M189.6 252.942L172.175 247.844C174.714 244.909 177.017 241.725 179.046 238.343L196.471 243.441C194.43 246.836 192.127 250.02 189.6 252.942Z" fill="#2E0C4D"/>
<path d="M196.471 243.442L179.046 238.343C181.286 234.612 183.19 230.633 184.734 226.467L202.159 231.565C200.616 235.744 198.711 239.723 196.471 243.442Z" fill="#2D0B4A"/>
<path d="M202.159 231.553L184.734 226.454C185.978 223.072 186.987 219.565 187.709 215.946L205.134 221.045C204.4 224.651 203.404 228.171 202.159 231.553Z" fill="#2B0B47"/>
<path d="M206.341 212.154L188.916 207.055C188.966 206.334 189.015 205.613 189.04 204.891C189.339 197.828 188.567 191.075 186.887 184.808L204.312 189.906C205.993 196.174 206.764 202.926 206.466 209.99C206.441 210.711 206.391 211.432 206.341 212.154Z" fill="#2B0B47"/>
<path d="M211.183 115.889L193.758 110.79C193.895 110.79 194.032 110.79 194.181 110.827L211.606 115.926C211.469 115.901 211.332 115.901 211.183 115.889Z" fill="#330D55"/>
<path d="M211.606 115.926L194.181 110.827C194.318 110.852 194.467 110.877 194.604 110.914L212.029 116.013C211.893 115.976 211.756 115.938 211.606 115.926Z" fill="#320D52"/>
<path d="M211.183 115.889C212.029 115.889 212.876 116.249 213.548 117.008L250.054 158.792C251.398 160.334 251.299 162.896 249.818 164.512L206.341 212.153C206.391 211.432 206.441 210.711 206.466 209.99C206.765 202.926 205.993 196.174 204.312 189.906L207.25 120.055C207.349 117.555 209.291 115.876 211.183 115.889V115.889Z" fill="#F5A3D3"/>
<path d="M158.845 251.389L141.419 246.29C141.955 246.278 142.465 246.166 142.938 245.967L160.363 251.065C159.89 251.264 159.38 251.364 158.845 251.389Z" fill="#401466"/>
<path d="M160.376 251.078L142.95 245.979C143.299 245.83 143.622 245.644 143.921 245.407L161.346 250.506C161.048 250.742 160.712 250.941 160.376 251.078Z" fill="#3E1463"/>
<path d="M161.347 250.493L143.921 245.395C144.083 245.27 144.232 245.121 144.382 244.972C144.444 244.91 144.494 244.847 144.543 244.785L161.969 249.884C161.919 249.946 161.857 250.008 161.807 250.07C161.658 250.22 161.508 250.369 161.347 250.493Z" fill="#3C1360"/>
<path d="M161.969 249.883L144.543 244.785C144.73 244.573 144.892 244.337 145.041 244.101L162.467 249.199C162.317 249.436 162.156 249.672 161.969 249.883Z" fill="#3A125C"/>
<path d="M162.467 249.2L145.041 244.101C145.203 243.828 145.34 243.542 145.452 243.243L162.877 248.342C162.765 248.64 162.628 248.926 162.467 249.2Z" fill="#381259"/>
<path d="M162.877 248.342L145.452 243.243C146.037 241.676 145.825 239.86 144.792 238.604L162.218 243.703C163.263 244.959 163.462 246.762 162.877 248.342Z" fill="#361156"/>
<path d="M158.845 251.388L141.419 246.289C141.955 246.277 142.465 246.165 142.938 245.966L160.363 251.064C159.89 251.263 159.38 251.363 158.845 251.388Z" fill="#401466"/>
<path d="M158.372 251.351L140.946 246.252C141.108 246.277 141.258 246.289 141.419 246.289L158.845 251.388C158.683 251.388 158.534 251.375 158.372 251.351Z" fill="#401466"/>
<path d="M157.899 251.251L140.473 246.152C140.635 246.202 140.785 246.227 140.946 246.252L158.372 251.35C158.21 251.326 158.048 251.288 157.899 251.251Z" fill="#3E1463"/>
<path d="M158.372 251.351L140.946 246.252C141.108 246.277 141.258 246.289 141.419 246.289L158.845 251.388C158.683 251.388 158.534 251.375 158.372 251.351Z" fill="#401466"/>
<path d="M172.15 203.337L154.725 198.238C155.198 198.225 155.646 198.126 156.082 197.939L173.507 203.038C173.084 203.212 172.623 203.312 172.15 203.337Z" fill="#401466"/>
<path d="M173.494 203.051L156.069 197.952C156.43 197.803 156.766 197.604 157.065 197.355L174.49 202.454C174.179 202.703 173.843 202.902 173.494 203.051Z" fill="#3E1463"/>
<path d="M174.503 202.454L157.077 197.355C157.301 197.169 157.513 196.97 157.712 196.746L175.137 201.845C174.938 202.069 174.727 202.28 174.503 202.454Z" fill="#3C1360"/>
<path d="M175.137 201.844L157.712 196.745C157.899 196.534 158.061 196.298 158.21 196.062L175.635 201.16C175.486 201.409 175.324 201.633 175.137 201.844Z" fill="#3A125C"/>
<path d="M175.635 201.148L158.21 196.049C158.372 195.776 158.509 195.49 158.621 195.191L176.046 200.29C175.934 200.588 175.797 200.887 175.635 201.148" fill="#381259"/>
<path d="M176.046 200.29L158.621 195.191C158.807 194.706 158.907 194.172 158.932 193.624C159.019 191.56 157.861 189.869 156.194 189.384L173.619 194.482C175.287 194.967 176.444 196.671 176.357 198.723C176.332 199.27 176.22 199.805 176.046 200.29Z" fill="#361156"/>
<path d="M172.661 194.346L155.235 189.247C155.397 189.247 155.546 189.26 155.708 189.284L173.134 194.383C172.984 194.358 172.822 194.346 172.661 194.346Z" fill="#9E9E9E"/>
<path d="M173.121 194.37L155.696 189.271C155.858 189.296 156.032 189.334 156.181 189.383L173.607 194.482C173.445 194.432 173.283 194.395 173.121 194.37" fill="#999999"/>
<path d="M172.524 194.346L155.098 189.247C155.098 189.247 155.185 189.247 155.235 189.247L172.661 194.346C172.661 194.346 172.573 194.346 172.524 194.346Z" fill="#9E9E9E"/>
<path d="M157.886 251.239L140.461 246.141C139.776 245.942 139.191 245.556 138.706 244.972L156.131 250.07C156.604 250.642 157.202 251.04 157.886 251.239Z" fill="#858585"/>
<path d="M172.785 188.028L155.36 182.929C155.833 182.917 156.281 182.817 156.704 182.631L174.129 187.73C173.706 187.904 173.246 188.016 172.785 188.028" fill="#401466"/>
<path d="M174.129 187.73L156.704 182.631C157.065 182.482 157.401 182.283 157.712 182.034L175.137 187.133C174.826 187.382 174.49 187.581 174.129 187.73Z" fill="#3E1463"/>
<path d="M175.137 187.145L157.712 182.047C157.936 181.86 158.16 181.661 158.347 181.438L175.772 186.536C175.573 186.76 175.361 186.971 175.137 187.145" fill="#3C1360"/>
<path d="M175.772 186.524L158.347 181.425C158.534 181.214 158.695 180.977 158.845 180.741L176.27 185.84C176.121 186.089 175.959 186.312 175.772 186.524Z" fill="#3A125C"/>
<path d="M176.27 185.84L158.845 180.741C159.007 180.467 159.143 180.181 159.255 179.883L176.681 184.981C176.569 185.28 176.432 185.578 176.27 185.84" fill="#381259"/>
<path d="M176.693 184.982L159.268 179.883C159.442 179.398 159.554 178.876 159.579 178.328C159.666 176.277 158.496 174.573 156.841 174.088L174.266 179.187C175.934 179.672 177.092 181.375 177.004 183.427C176.98 183.974 176.868 184.497 176.693 184.982" fill="#361156"/>
<path d="M173.308 179.037L155.882 173.938C156.044 173.938 156.194 173.951 156.343 173.976L173.768 179.074C173.619 179.05 173.457 179.037 173.308 179.037Z" fill="#9E9E9E"/>
<path d="M173.768 179.062L156.343 173.963C156.505 173.988 156.667 174.025 156.828 174.062L174.254 179.161C174.092 179.111 173.93 179.074 173.768 179.062Z" fill="#999999"/>
<path d="M166.002 203.511L148.576 198.412L154.725 198.238L172.15 203.337L166.002 203.511Z" fill="#411568"/>
<path d="M173.158 179.037L155.733 173.938C155.733 173.938 155.833 173.938 155.87 173.938L173.295 179.037C173.295 179.037 173.196 179.037 173.158 179.037Z" fill="#9E9E9E"/>
<path d="M166.002 203.51L148.576 198.412C149.037 196.87 149.298 195.303 149.36 193.786C149.423 192.206 149.36 190.751 149.149 189.408L166.574 194.507C166.773 195.85 166.848 197.305 166.786 198.884C166.723 200.401 166.45 201.956 166.002 203.51" fill="#858585"/>
<path d="M166.002 203.51L148.576 198.412C149.037 196.87 149.298 195.303 149.36 193.786C149.423 192.206 149.36 190.751 149.149 189.408L166.574 194.507C166.773 195.85 166.848 197.305 166.786 198.884C166.723 200.401 166.45 201.956 166.002 203.51" fill="#858585"/>
<path d="M166.587 194.507L149.161 189.408L155.098 189.234L172.524 194.345L166.587 194.507Z" fill="#A0A0A0"/>
<path d="M166.002 203.51L148.576 198.412C149.037 196.87 149.298 195.303 149.36 193.786C149.423 192.206 149.36 190.751 149.149 189.408L166.574 194.507C166.773 195.85 166.848 197.305 166.786 198.884C166.723 200.401 166.45 201.956 166.002 203.51" fill="#858585"/>
<path d="M164.471 188.265L147.058 183.166L155.36 182.93L172.785 188.028L164.471 188.265Z" fill="#411568"/>
<path d="M166.587 194.507L149.161 189.409C148.8 186.984 148.053 184.919 147.058 183.166L164.483 188.265C165.491 190.018 166.238 192.082 166.587 194.507Z" fill="#361156"/>
<path d="M204.312 189.906L186.887 184.807C181.821 165.892 168.503 151.417 151.277 146.381L168.702 151.479C185.929 156.528 199.247 171.004 204.312 189.906" fill="#2B0B47"/>
<path d="M133.379 271.658L115.953 266.56C118.094 267.194 120.297 267.666 122.563 267.99L139.988 273.088C137.735 272.765 135.532 272.28 133.379 271.658Z" fill="#320D52"/>
<path d="M139.988 273.088L122.562 267.989C124.703 268.3 126.894 268.462 129.122 268.487C129.744 268.487 130.379 268.487 131.014 268.474C137.486 268.288 143.747 266.87 149.609 264.433L167.035 269.531C161.172 271.969 154.911 273.386 148.439 273.573C147.804 273.585 147.17 273.598 146.547 273.585C144.319 273.56 142.129 273.399 139.988 273.088Z" fill="#330D55"/>
<path d="M167.035 269.532L149.609 264.433C154.526 262.393 159.156 259.62 163.413 256.263L180.838 261.361C176.594 264.731 171.951 267.492 167.035 269.532Z" fill="#320D52"/>
<path d="M180.838 261.361L163.413 256.263C166.562 253.776 169.499 250.953 172.175 247.844L189.6 252.942C186.924 256.039 183.987 258.862 180.838 261.361Z" fill="#300C4F"/>
<path d="M143.473 221.045L126.048 215.947C129.085 215.835 131.972 215.213 134.636 214.094L152.061 219.192C149.385 220.312 146.51 220.921 143.473 221.045Z" fill="#401466"/>
<path d="M152.061 219.192L134.636 214.094C136.603 213.273 138.445 212.179 140.162 210.823L157.588 215.922C155.882 217.277 154.028 218.372 152.061 219.192Z" fill="#3E1463"/>
<path d="M157.588 215.934L140.162 210.835C140.224 210.785 140.287 210.735 140.349 210.686C141.469 209.778 142.527 208.758 143.473 207.651L160.898 212.75C159.94 213.857 158.895 214.877 157.774 215.784C157.712 215.834 157.65 215.884 157.588 215.934Z" fill="#3C1360"/>
<path d="M160.899 212.751L143.473 207.652C144.444 206.521 145.315 205.314 146.087 204.046L163.512 209.145C162.753 210.413 161.882 211.619 160.899 212.751Z" fill="#3A125C"/>
<path d="M163.512 209.144L146.087 204.046C146.896 202.703 147.568 201.298 148.091 199.88L165.516 204.979C164.993 206.409 164.309 207.801 163.512 209.144Z" fill="#381259"/>
<path d="M165.516 204.966L148.091 199.867C148.265 199.382 148.427 198.897 148.576 198.412L166.002 203.511C165.852 203.996 165.703 204.481 165.516 204.966" fill="#361156"/>
<path d="M162.218 243.703L144.792 238.604L126.06 215.946L143.473 221.045L162.218 243.703Z" fill="#341153"/>
<path d="M164.471 188.264L147.045 183.165C144.506 178.751 140.312 176.351 136.64 175.281L154.065 180.38C157.737 181.449 161.919 183.849 164.471 188.264Z" fill="#858585"/>
<path d="M136.192 211.034L118.766 205.936C120.098 206.321 121.343 206.595 122.525 206.769L139.951 211.867C138.768 211.693 137.511 211.42 136.192 211.034Z" fill="#999999"/>
<path d="M139.951 211.867L122.525 206.769C123.571 206.918 124.554 206.993 125.475 207.005C128.151 207.03 130.392 206.52 132.234 205.749L149.659 210.848C147.817 211.619 145.577 212.129 142.9 212.104C141.967 212.104 140.984 212.017 139.951 211.867Z" fill="#9E9E9E"/>
<path d="M149.659 210.835L132.234 205.736C133.665 205.139 134.847 204.393 135.818 203.622L153.244 208.721C152.273 209.492 151.09 210.238 149.659 210.835Z" fill="#999999"/>
<path d="M153.244 208.721L135.818 203.622C135.818 203.622 135.905 203.56 135.943 203.523C136.677 202.938 137.324 202.292 137.897 201.62L155.322 206.719C154.75 207.39 154.09 208.024 153.368 208.621C153.331 208.659 153.281 208.684 153.244 208.721Z" fill="#949494"/>
<path d="M155.335 206.719L137.909 201.621C138.519 200.912 139.042 200.178 139.49 199.444L156.916 204.543C156.467 205.277 155.945 206.01 155.335 206.719Z" fill="#8F8F8F"/>
<path d="M156.915 204.542L139.49 199.444C139.652 199.183 139.789 198.921 139.926 198.66C140.224 198.088 140.473 197.529 140.673 196.981L158.098 202.08C157.899 202.627 157.65 203.187 157.351 203.759C157.214 204.02 157.065 204.281 156.915 204.542Z" fill="#8A8A8A"/>
<path d="M158.098 202.08L140.672 196.982C141.071 195.887 141.295 194.868 141.32 194.01C141.394 192.293 141.145 190.851 140.697 189.645C139.403 186.163 136.366 184.67 134.188 184.036L151.613 189.135C153.791 189.769 156.828 191.274 158.123 194.743C158.571 195.95 158.82 197.38 158.745 199.108C158.708 199.966 158.496 200.986 158.098 202.08Z" fill="#858585"/>
<path d="M149.423 188.687L131.997 183.589C132.097 183.589 132.234 183.614 132.395 183.639L149.821 188.737C149.659 188.712 149.522 188.7 149.423 188.687Z" fill="#401466"/>
<path d="M149.821 188.75L132.396 183.651C132.831 183.714 133.466 183.838 134.188 184.049L151.613 189.148C150.891 188.937 150.257 188.825 149.821 188.75Z" fill="#3E1463"/>
<path d="M131.089 189.21L113.676 184.111L131.997 183.589L149.423 188.687L131.089 189.21Z" fill="#411568"/>
<path d="M148.564 188.551L131.138 183.452C131.3 183.502 131.462 183.539 131.636 183.564L149.062 188.663C148.887 188.638 148.726 188.601 148.564 188.551Z" fill="#999999"/>
<path d="M149.062 188.65L131.636 183.552C131.711 183.552 131.773 183.564 131.848 183.577C131.885 183.577 131.935 183.577 132.01 183.589L149.435 188.688C149.373 188.688 149.323 188.688 149.273 188.675C149.199 188.675 149.136 188.663 149.062 188.65Z" fill="#9E9E9E"/>
<path d="M150.144 179.684L132.719 174.585C132.794 174.585 132.868 174.585 132.943 174.585C133.304 174.61 133.69 174.647 134.088 174.709L151.514 179.808C151.115 179.746 150.729 179.708 150.369 179.684C150.294 179.684 150.219 179.684 150.144 179.684Z" fill="#9E9E9E"/>
<path d="M151.514 179.82L134.088 174.722C134.885 174.834 135.756 175.02 136.652 175.281L154.078 180.38C153.181 180.119 152.323 179.932 151.514 179.82Z" fill="#999999"/>
<path d="M148.638 188.55L131.213 183.452C129.321 182.892 128.151 180.965 128.425 178.788C128.475 178.39 128.574 177.992 128.711 177.632L146.137 182.73C146 183.091 145.913 183.477 145.85 183.887C145.577 186.063 146.746 187.991 148.638 188.55Z" fill="#858585"/>
<path d="M146.137 182.73L128.711 177.632C128.823 177.333 128.96 177.035 129.122 176.773L146.547 181.872C146.386 182.146 146.249 182.432 146.137 182.73Z" fill="#8A8A8A"/>
<path d="M146.547 181.872L129.122 176.774C129.271 176.525 129.433 176.301 129.62 176.09L147.045 181.188C146.858 181.4 146.697 181.624 146.547 181.872Z" fill="#8F8F8F"/>
<path d="M147.045 181.176L129.62 176.077C129.819 175.853 130.031 175.642 130.255 175.468L147.68 180.566C147.456 180.74 147.244 180.952 147.045 181.176Z" fill="#949494"/>
<path d="M147.68 180.567L130.255 175.468C130.566 175.219 130.902 175.02 131.25 174.871L148.676 179.97C148.327 180.119 147.991 180.318 147.68 180.567Z" fill="#999999"/>
<path d="M148.676 179.982L131.25 174.883C131.711 174.684 132.209 174.585 132.719 174.585L150.144 179.684C149.634 179.684 149.136 179.783 148.676 179.982Z" fill="#9E9E9E"/>
<path d="M136.192 211.034L118.766 205.935C118.256 205.786 117.733 205.612 117.198 205.425C117.136 205.401 117.086 205.388 117.024 205.363L134.449 210.462C134.449 210.462 134.574 210.499 134.623 210.524C135.159 210.711 135.681 210.872 136.192 211.034Z" fill="#361156"/>
<path d="M136.192 211.034L118.766 205.935C118.256 205.786 117.733 205.612 117.198 205.425C117.136 205.401 117.086 205.388 117.024 205.363L134.449 210.462C134.449 210.462 134.574 210.499 134.623 210.524C135.159 210.711 135.681 210.872 136.192 211.034Z" fill="#361156"/>
<path d="M156.131 250.069L138.706 244.971L112.481 213.26L129.906 218.358L156.131 250.069Z" fill="#808080"/>
<path d="M150.144 179.684C150.219 179.684 150.294 179.684 150.368 179.684C154.463 179.97 161.01 182.221 164.483 188.252C165.491 190.005 166.238 192.07 166.587 194.495C166.786 195.838 166.86 197.293 166.798 198.872C166.736 200.389 166.462 201.944 166.014 203.498C164.657 208.099 161.695 212.613 157.787 215.772C153.717 219.067 148.838 220.833 143.485 221.032L162.23 243.703C163.686 245.456 163.5 248.316 161.819 250.07C161.01 250.915 159.99 251.351 158.994 251.388C157.849 251.388 156.853 250.94 156.144 250.07L129.919 218.359C128.649 216.829 128.549 214.466 129.657 212.613C130.541 211.146 131.985 210.313 133.441 210.325C133.839 210.325 134.238 210.4 134.623 210.537C137.76 211.631 140.511 212.079 142.913 212.104C147.755 212.153 151.165 210.425 153.381 208.622C155.148 207.191 156.467 205.463 157.351 203.759C158.235 202.068 158.695 200.402 158.758 199.121C158.832 197.405 158.583 195.962 158.135 194.756C156.243 189.694 150.68 188.824 149.423 188.7C147.07 188.501 145.539 186.362 145.85 183.887C146.149 181.499 148.041 179.671 150.144 179.684V179.684Z" fill="#E7E7E7"/>
<path d="M129.906 218.359L112.481 213.26C111.41 211.967 111.174 210.089 111.784 208.41L129.209 213.509C128.587 215.175 128.836 217.065 129.906 218.359Z" fill="#858585"/>
<path d="M129.209 213.521L111.784 208.422C111.896 208.112 112.045 207.813 112.219 207.515L129.645 212.613C129.471 212.899 129.321 213.21 129.209 213.521Z" fill="#8A8A8A"/>
<path d="M129.645 212.613L112.219 207.514C112.381 207.253 112.556 207.004 112.742 206.793L130.168 211.892C129.981 212.115 129.807 212.352 129.645 212.613Z" fill="#8F8F8F"/>
<path d="M130.168 211.892L112.742 206.793C112.941 206.557 113.165 206.346 113.402 206.159L130.827 211.258C130.591 211.444 130.367 211.656 130.168 211.892Z" fill="#949494"/>
<path d="M130.827 211.258L113.402 206.159C113.725 205.898 114.086 205.686 114.447 205.537L131.873 210.636C131.499 210.785 131.151 210.996 130.827 211.258Z" fill="#999999"/>
<path d="M131.873 210.636L114.447 205.537C114.945 205.326 115.468 205.227 116.003 205.227C116.165 205.227 116.339 205.239 116.501 205.264L133.926 210.363C133.765 210.338 133.59 210.325 133.429 210.325C132.906 210.325 132.371 210.425 131.873 210.636Z" fill="#9E9E9E"/>
<path d="M133.926 210.362L116.501 205.264C116.675 205.289 116.837 205.326 117.011 205.376L134.437 210.474C134.275 210.424 134.101 210.387 133.926 210.362Z" fill="#999999"/>
<path d="M130.441 204.518L113.016 199.42L139.926 198.661L157.351 203.76L130.441 204.518Z" fill="#411568"/>
<path d="M129.495 204.381L112.07 199.282C112.232 199.332 112.394 199.369 112.555 199.382L129.981 204.48C129.819 204.455 129.657 204.418 129.495 204.381Z" fill="#3E1463"/>
<path d="M129.981 204.48L112.556 199.382C112.705 199.407 112.867 199.419 113.016 199.419L130.441 204.518C130.28 204.518 130.13 204.505 129.981 204.48Z" fill="#401466"/>
<path d="M130.964 195.527L113.539 190.416L140.71 189.645L158.135 194.756L130.964 195.527Z" fill="#A0A0A0"/>
<path d="M130.143 189.072L112.717 183.974C112.879 184.023 113.041 184.061 113.203 184.073L130.628 189.172C130.466 189.147 130.292 189.11 130.143 189.072Z" fill="#3E1463"/>
<path d="M130.628 189.172L113.203 184.073C113.352 184.098 113.514 184.111 113.676 184.111L131.101 189.209C130.939 189.209 130.79 189.197 130.628 189.172Z" fill="#401466"/>
<path d="M129.495 204.382L112.07 199.283C110.402 198.798 109.245 197.094 109.332 195.042C109.357 194.495 109.469 193.973 109.643 193.476L127.068 198.574C126.894 199.059 126.782 199.594 126.757 200.141C126.67 202.193 127.84 203.897 129.495 204.382Z" fill="#858585"/>
<path d="M127.056 198.574L109.63 193.475C109.743 193.177 109.879 192.878 110.041 192.604L127.467 197.703C127.305 197.977 127.168 198.263 127.056 198.574Z" fill="#8A8A8A"/>
<path d="M127.479 197.703L110.054 192.605C110.203 192.356 110.365 192.132 110.552 191.921L127.977 197.02C127.79 197.231 127.628 197.467 127.479 197.703Z" fill="#8F8F8F"/>
<path d="M127.977 197.02L110.552 191.921C110.751 191.697 110.962 191.486 111.186 191.312L128.612 196.41C128.388 196.597 128.176 196.796 127.977 197.02Z" fill="#949494"/>
<path d="M128.612 196.41L111.186 191.312C111.497 191.063 111.834 190.864 112.182 190.715L129.607 195.813C129.246 195.963 128.91 196.162 128.612 196.41Z" fill="#999999"/>
<path d="M129.607 195.813L112.182 190.714C112.605 190.54 113.066 190.428 113.539 190.416L130.964 195.515C130.491 195.527 130.043 195.627 129.607 195.813Z" fill="#9E9E9E"/>
<path d="M131.599 180.206L114.186 175.107L155.746 173.926L173.158 179.037L131.599 180.206Z" fill="#A0A0A0"/>
<path d="M130.143 189.073L112.717 183.974C111.049 183.489 109.892 181.786 109.979 179.721C110.004 179.174 110.116 178.652 110.29 178.154L127.716 183.253C127.541 183.738 127.429 184.273 127.404 184.82C127.317 186.884 128.487 188.588 130.143 189.073Z" fill="#858585"/>
<path d="M127.703 183.253L110.278 178.154C110.39 177.855 110.527 177.569 110.688 177.296L128.114 182.395C127.952 182.668 127.815 182.954 127.703 183.253Z" fill="#8A8A8A"/>
<path d="M128.114 182.395L110.688 177.296C110.838 177.048 111 176.824 111.186 176.612L128.612 181.711C128.425 181.922 128.263 182.159 128.114 182.395Z" fill="#8F8F8F"/>
<path d="M128.612 181.711L111.186 176.612C111.385 176.388 111.597 176.177 111.821 176.003L129.246 181.102C129.022 181.288 128.811 181.487 128.612 181.711Z" fill="#949494"/>
<path d="M129.246 181.102L111.821 176.003C112.132 175.754 112.468 175.555 112.829 175.406L130.255 180.505C129.894 180.654 129.558 180.853 129.246 181.102Z" fill="#999999"/>
<path d="M130.255 180.505L112.829 175.406C113.252 175.232 113.713 175.12 114.173 175.107L131.599 180.206C131.126 180.219 130.678 180.318 130.255 180.505Z" fill="#9E9E9E"/>
<path d="M173.308 179.037C175.461 179.062 177.104 180.99 177.004 183.427C176.892 185.914 175.013 187.966 172.785 188.041L164.471 188.277C160.998 182.246 154.464 179.995 150.356 179.709C150.281 179.709 150.207 179.709 150.132 179.709C148.029 179.684 146.137 181.524 145.838 183.912C145.527 186.387 147.058 188.526 149.248 188.712C149.286 188.712 149.335 188.712 149.41 188.725L131.213 189.247C131.213 189.247 131.126 189.247 131.076 189.247C128.923 189.222 127.267 187.294 127.38 184.857C127.479 182.37 129.371 180.306 131.586 180.243L173.146 179.074C173.146 179.074 173.246 179.074 173.283 179.074L173.308 179.037Z" fill="#E7E7E7"/>
<path d="M133.379 271.658L115.953 266.559C98.7271 261.51 85.4092 247.048 80.3434 228.133L97.7688 233.231C102.835 252.146 116.153 266.621 133.379 271.658Z" fill="#361156"/>
<path d="M204.325 189.906C198.027 166.403 178.984 149.751 155.546 149.54C154.924 149.54 154.289 149.54 153.655 149.552C126.197 150.336 102.474 173.305 96.8354 202.752C96.3375 205.364 95.9765 208.025 95.7649 210.724C95.7027 211.52 95.6529 212.328 95.628 213.124C95.3293 220.187 96.101 226.952 97.7813 233.22C104.079 256.723 123.123 273.375 146.56 273.586C147.182 273.586 147.817 273.586 148.452 273.561C175.698 272.803 199.272 250.157 205.134 221.045C205.731 218.135 206.13 215.176 206.354 212.154C206.404 211.433 206.453 210.711 206.478 209.978C206.765 202.914 206.005 196.161 204.325 189.894V189.906ZM166.587 194.508L172.661 194.346C174.814 194.358 176.457 196.298 176.357 198.723C176.258 201.21 174.366 203.275 172.15 203.337L166.002 203.511C164.657 208.112 161.683 212.614 157.774 215.773C153.692 219.068 148.813 220.834 143.473 221.033L162.218 243.691C163.674 245.444 163.487 248.304 161.807 250.058C160.998 250.903 159.99 251.351 158.857 251.376C157.837 251.376 156.853 250.916 156.131 250.045L129.906 218.334C128.637 216.805 128.537 214.442 129.657 212.589C130.529 211.134 131.985 210.288 133.441 210.301C133.839 210.301 134.238 210.363 134.624 210.5C137.76 211.594 140.511 212.054 142.913 212.067C147.755 212.116 151.153 210.388 153.381 208.597C155.161 207.167 156.467 205.426 157.364 203.735L130.454 204.493C128.301 204.469 126.658 202.541 126.757 200.104C126.857 197.629 128.749 195.552 130.964 195.502L158.135 194.731C156.243 189.658 150.68 188.8 149.423 188.675L131.101 189.197C128.948 189.173 127.292 187.245 127.392 184.795C127.492 182.321 129.383 180.256 131.599 180.194L173.295 179.013C175.449 179.025 177.092 180.965 176.992 183.39C176.892 185.877 175.001 187.941 172.785 188.004L164.471 188.24C165.479 189.981 166.226 192.058 166.587 194.483V194.508Z" fill="#6821A5"/>
<g clip-path="url(#clip2_959_10534)">
<ellipse cx="148.333" cy="204.376" rx="50.6667" ry="51.4648" fill="#6821A5"/>
<path d="M170.578 189.999L160.975 190.266C162.528 192.433 163.564 195.007 164.096 197.975L173 197.736L171.012 205.852L164.362 206.035C163.844 210.916 162.01 214.7 158.847 217.372C155.683 220.045 151.161 221.704 145.267 222.366L166.434 245.927V246.503L153.807 246.841L130.694 221.198L130.47 214.432L141.613 214.137C144.903 214.052 147.493 213.293 149.383 211.872C151.273 210.452 152.505 208.609 153.093 206.344L129.392 206.977L131.422 198.861L152.701 198.284C151.133 193.755 147.185 191.575 140.843 191.743L129 192.067L131.128 182.966L172.608 181.841L170.578 189.999Z" fill="white"/>
</g>
<path d="M95.5035 287.24L78.0781 282.142L80.3434 228.121L97.7688 233.22L95.5035 287.24Z" fill="#2B0B47"/>
<path d="M205.134 221.045C199.321 256.909 173.196 285.039 143.025 285.897L95.5035 287.24L97.7688 233.219C104.067 256.723 123.11 273.374 146.547 273.586C147.17 273.586 147.805 273.586 148.439 273.573C175.685 272.802 199.259 250.169 205.134 221.045V221.045Z" fill="#F5A3D3"/>
<path d="M206.59 135.636L204.312 189.893C198.014 166.39 178.971 149.739 155.534 149.527C154.912 149.527 154.277 149.527 153.642 149.54C126.185 150.311 102.461 173.292 96.8229 202.739C102.337 166.44 128.649 137.838 159.069 136.98L206.59 135.624V135.636Z" fill="#F5A3D3"/>
<path d="M95.7649 210.724C95.7026 211.52 95.6528 212.328 95.628 213.136C95.3292 220.2 96.1009 226.952 97.7812 233.22L94.8563 302.822C94.7567 305.322 92.815 307.001 90.9231 306.988C90.0767 306.988 89.2304 306.628 88.5582 305.869L52.0521 264.085C50.7078 262.556 50.8074 259.981 52.2886 258.365L95.7773 210.724H95.7649Z" fill="#F5A3D3"/>
<path d="M46.0777 268.635H8.1775C7.09464 268.635 0.074707 268.026 0.074707 264.295C0.074707 261.535 5.57614 258.612 8.33931 258.612H46.0777C48.8408 258.612 51.0937 260.851 51.0937 263.624C51.0937 266.385 48.8533 268.635 46.0777 268.635Z" fill="#4C1A84"/>
<path d="M58.1385 112.394H24.5698L22.0804 106.624H60.6278L58.1385 112.394Z" fill="#4C1A84"/>
</g>
</g>
<defs>
<clipPath id="clip0_959_10534">
<rect width="251" height="307" fill="white"/>
</clipPath>
<clipPath id="clip1_959_10534">
<rect width="251" height="307" fill="white"/>
</clipPath>
<clipPath id="clip2_959_10534">
<rect width="64" height="87" fill="white" transform="translate(119 168.841)"/>
</clipPath>
</defs>
</svg>
