<svg width="100" height="100" viewBox="0 0 100 100" fill="none" xmlns="http://www.w3.org/2000/svg">
<path d="M49.9988 14.3105L78.9395 27.0944C79.093 34.7345 79.2943 48.903 78.4397 53.7616C76.3552 65.6023 66.7293 76.2798 49.818 85.5211C34.012 76.8451 24.4868 66.6211 21.4948 55.1103C21.3703 54.6327 20.9626 52.2549 20.9251 41.6976C20.9063 36.4903 20.9813 30.9892 21.0445 27.0978L49.9971 14.3123M46.4336 49.2415L41.4374 44.2094L41.4322 44.2042L41.4271 44.1991C40.2655 43.0394 38.7251 42.4003 37.0893 42.4003C36.5485 42.4003 36.0095 42.4725 35.4875 42.6133C33.3757 43.1854 31.7109 44.8622 31.1411 46.9874C30.5697 49.1144 31.1718 51.4079 32.7122 52.973L32.719 52.9799L32.7258 52.9868L42.0753 62.4033C43.2387 63.5767 44.7875 64.2227 46.4336 64.2227C48.0798 64.2227 49.6269 63.5767 50.7903 62.405L69.3 43.7679C70.4616 42.5962 71.0996 41.0379 71.0996 39.3834C71.0996 37.729 70.4599 36.1707 69.3 34.999L68.4351 34.1263L68.1127 34.0661C67.1592 33.4906 66.0572 33.1762 64.9382 33.1762C63.2904 33.1762 61.7415 33.8239 60.5799 34.9956L46.4371 49.2449M50.0005 10L17.1672 24.4984C17.0324 32.1609 16.6861 52.2068 17.7011 56.1136C21.0973 69.1775 31.9019 80.5818 49.8163 90C68.9963 79.9409 79.9237 67.9852 82.305 54.454C83.2142 49.2759 83.0539 35.7344 82.8099 24.4916L50.0005 10ZM46.4388 54.8337L63.3569 37.7891C63.7766 37.3648 64.3463 37.1277 64.9399 37.1277C65.5335 37.1277 66.1033 37.3665 66.5229 37.7891C66.9425 38.2117 67.178 38.7856 67.178 39.3834C67.178 39.9813 66.9425 40.5551 66.5229 40.9778L48.0183 59.6115C47.5987 60.0342 47.029 60.2712 46.4354 60.2712C45.8417 60.2712 45.272 60.0342 44.8524 59.6115L35.5012 50.1933C34.9399 49.6229 34.7233 48.7948 34.9314 48.02C35.1395 47.2451 35.74 46.6404 36.511 46.4308C36.7038 46.3793 36.8982 46.3535 37.0927 46.3535C37.6743 46.3535 38.2441 46.5837 38.6688 47.0063L46.4405 54.8337H46.4388Z" fill="#4C1A84"/>
</svg>
